<svg width="37" height="37" viewBox="0 0 37 37" fill="none" xmlns="http://www.w3.org/2000/svg">
<circle cx="18.5" cy="18.5" r="18.5" fill="white"/>
<path d="M20 12C20 11.4477 19.5523 11 19 11C18.4477 11 18 11.4477 18 12L20 12ZM18.2929 25.7071C18.6834 26.0976 19.3166 26.0976 19.7071 25.7071L26.0711 19.3431C26.4616 18.9526 26.4616 18.3195 26.0711 17.9289C25.6805 17.5384 25.0474 17.5384 24.6569 17.9289L19 23.5858L13.3431 17.9289C12.9526 17.5384 12.3195 17.5384 11.9289 17.9289C11.5384 18.3195 11.5384 18.9526 11.9289 19.3431L18.2929 25.7071ZM18 12L18 25L20 25L20 12L18 12Z" fill="#22253B"/>
</svg>
