<svg width="211" height="220" viewBox="0 0 211 220" fill="none" xmlns="http://www.w3.org/2000/svg">
<path d="M177.647 114.54H33.3789V175.314H177.647V114.54Z" fill="#38BFF2" stroke="#263238" stroke-linecap="round" stroke-linejoin="round"/>
<path d="M49.9654 118.219H36.3936V125.732H49.9654V118.219Z" fill="white" stroke="#263238" stroke-miterlimit="10"/>
<path d="M174.307 154.851H152.93V162.364H174.307V154.851Z" fill="white" stroke="#263238" stroke-miterlimit="10"/>
<path d="M174.314 127.602H161.117V135.115H174.314V127.602Z" fill="white" stroke="#263238" stroke-miterlimit="10"/>
<path d="M49.9654 145.587H36.3936V153.1H49.9654V145.587Z" fill="white" stroke="#263238" stroke-miterlimit="10"/>
<path d="M47.3824 136.535H36.3936V144.048H47.3824V136.535Z" fill="white" stroke="#263238" stroke-miterlimit="10"/>
<path d="M43.905 127.377H36.3936V134.89H43.905V127.377Z" fill="white" stroke="#263238" stroke-miterlimit="10"/>
<path d="M53.4992 127.377H45.9878V134.89H53.4992V127.377Z" fill="white" stroke="#263238" stroke-miterlimit="10"/>
<path d="M63.0871 127.377H55.5757V134.89H63.0871V127.377Z" fill="white" stroke="#263238" stroke-miterlimit="10"/>
<path d="M72.675 127.377H65.1636V134.89H72.675V127.377Z" fill="white" stroke="#263238" stroke-miterlimit="10"/>
<path d="M82.2693 127.377H74.7578V134.89H82.2693V127.377Z" fill="white" stroke="#263238" stroke-miterlimit="10"/>
<path d="M91.8572 127.377H84.3457V134.89H91.8572V127.377Z" fill="white" stroke="#263238" stroke-miterlimit="10"/>
<path d="M101.445 127.377H93.9331V134.89H101.445V127.377Z" fill="white" stroke="#263238" stroke-miterlimit="10"/>
<path d="M111.039 127.377H103.527V134.89H111.039V127.377Z" fill="white" stroke="#263238" stroke-miterlimit="10"/>
<path d="M120.627 127.377H113.115V134.89H120.627V127.377Z" fill="white" stroke="#263238" stroke-miterlimit="10"/>
<path d="M130.221 127.377H122.709V134.89H130.221V127.377Z" fill="white" stroke="#263238" stroke-miterlimit="10"/>
<path d="M139.809 127.377H132.297V134.89H139.809V127.377Z" fill="white" stroke="#263238" stroke-miterlimit="10"/>
<path d="M149.397 127.377H141.885V134.89H149.397V127.377Z" fill="white" stroke="#263238" stroke-miterlimit="10"/>
<path d="M158.99 127.377H151.479V134.89H158.99V127.377Z" fill="white" stroke="#263238" stroke-miterlimit="10"/>
<path d="M43.905 164.116H36.3936V171.629H43.905V164.116Z" fill="white" stroke="#263238" stroke-miterlimit="10"/>
<path d="M53.4992 164.116H45.9878V171.629H53.4992V164.116Z" fill="white" stroke="#263238" stroke-miterlimit="10"/>
<path d="M63.0871 164.116H55.5757V171.629H63.0871V164.116Z" fill="white" stroke="#263238" stroke-miterlimit="10"/>
<path d="M74.3324 164.116H65.1636V171.629H74.3324V164.116Z" fill="white" stroke="#263238" stroke-miterlimit="10"/>
<path d="M122.284 164.116H76.4087V171.629H122.284V164.116Z" fill="white" stroke="#263238" stroke-miterlimit="10"/>
<path d="M154.807 164.116H147.295V171.629H154.807V164.116Z" fill="white" stroke="#263238" stroke-miterlimit="10"/>
<path d="M164.413 164.116H156.902V171.629H164.413V164.116Z" fill="white" stroke="#263238" stroke-miterlimit="10"/>
<path d="M135.824 164.116H124.16V171.629H135.824V164.116Z" fill="white" stroke="#263238" stroke-miterlimit="10"/>
<path d="M174.308 164.116H166.796V171.629H174.308V164.116Z" fill="white" stroke="#263238" stroke-miterlimit="10"/>
<path d="M57.0266 136.535H49.5151V144.048H57.0266V136.535Z" fill="white" stroke="#263238" stroke-miterlimit="10"/>
<path d="M66.6145 136.535H59.103V144.048H66.6145V136.535Z" fill="white" stroke="#263238" stroke-miterlimit="10"/>
<path d="M76.2087 136.535H68.6973V144.048H76.2087V136.535Z" fill="white" stroke="#263238" stroke-miterlimit="10"/>
<path d="M85.7966 136.535H78.2852V144.048H85.7966V136.535Z" fill="white" stroke="#263238" stroke-miterlimit="10"/>
<path d="M95.3908 136.535H87.8794V144.048H95.3908V136.535Z" fill="white" stroke="#263238" stroke-miterlimit="10"/>
<path d="M104.979 136.535H97.4673V144.048H104.979V136.535Z" fill="white" stroke="#263238" stroke-miterlimit="10"/>
<path d="M114.567 136.535H107.055V144.048H114.567V136.535Z" fill="white" stroke="#263238" stroke-miterlimit="10"/>
<path d="M124.16 136.535H116.649V144.048H124.16V136.535Z" fill="white" stroke="#263238" stroke-miterlimit="10"/>
<path d="M133.748 136.535H126.237V144.048H133.748V136.535Z" fill="white" stroke="#263238" stroke-miterlimit="10"/>
<path d="M143.336 136.535H135.825V144.048H143.336V136.535Z" fill="white" stroke="#263238" stroke-miterlimit="10"/>
<path d="M152.93 136.535H145.419V144.048H152.93V136.535Z" fill="white" stroke="#263238" stroke-miterlimit="10"/>
<path d="M162.518 136.535H155.007V144.048H162.518V136.535Z" fill="white" stroke="#263238" stroke-miterlimit="10"/>
<path d="M174.308 136.535V153.212H166.796V144.048H164.595V136.535H174.308Z" fill="white" stroke="#263238" stroke-miterlimit="10"/>
<path d="M59.2282 145.693H51.7168V153.206H59.2282V145.693Z" fill="white" stroke="#263238" stroke-miterlimit="10"/>
<path d="M68.8161 145.693H61.3047V153.206H68.8161V145.693Z" fill="white" stroke="#263238" stroke-miterlimit="10"/>
<path d="M78.404 145.693H70.8926V153.206H78.404V145.693Z" fill="white" stroke="#263238" stroke-miterlimit="10"/>
<path d="M87.9983 145.693H80.4868V153.206H87.9983V145.693Z" fill="white" stroke="#263238" stroke-miterlimit="10"/>
<path d="M97.5857 145.693H90.0742V153.206H97.5857V145.693Z" fill="white" stroke="#263238" stroke-miterlimit="10"/>
<path d="M107.18 145.693H99.6685V153.206H107.18V145.693Z" fill="white" stroke="#263238" stroke-miterlimit="10"/>
<path d="M116.768 145.693H109.256V153.206H116.768V145.693Z" fill="white" stroke="#263238" stroke-miterlimit="10"/>
<path d="M126.356 145.693H118.844V153.206H126.356V145.693Z" fill="white" stroke="#263238" stroke-miterlimit="10"/>
<path d="M135.95 145.693H128.438V153.206H135.95V145.693Z" fill="white" stroke="#263238" stroke-miterlimit="10"/>
<path d="M145.538 145.693H138.026V153.206H145.538V145.693Z" fill="white" stroke="#263238" stroke-miterlimit="10"/>
<path d="M155.126 145.693H147.614V153.206H155.126V145.693Z" fill="white" stroke="#263238" stroke-miterlimit="10"/>
<path d="M164.72 145.693H157.208V153.206H164.72V145.693Z" fill="white" stroke="#263238" stroke-miterlimit="10"/>
<path d="M55.1501 154.851H47.6387V162.364H55.1501V154.851Z" fill="white" stroke="#263238" stroke-miterlimit="10"/>
<path d="M64.738 154.851H57.2266V162.364H64.738V154.851Z" fill="white" stroke="#263238" stroke-miterlimit="10"/>
<path d="M74.3322 154.851H66.8208V162.364H74.3322V154.851Z" fill="white" stroke="#263238" stroke-miterlimit="10"/>
<path d="M83.9201 154.851H76.4087V162.364H83.9201V154.851Z" fill="white" stroke="#263238" stroke-miterlimit="10"/>
<path d="M93.5144 154.851H86.0029V162.364H93.5144V154.851Z" fill="white" stroke="#263238" stroke-miterlimit="10"/>
<path d="M103.102 154.851H95.5903V162.364H103.102V154.851Z" fill="white" stroke="#263238" stroke-miterlimit="10"/>
<path d="M112.69 154.851H105.179V162.364H112.69V154.851Z" fill="white" stroke="#263238" stroke-miterlimit="10"/>
<path d="M122.284 154.851H114.773V162.364H122.284V154.851Z" fill="white" stroke="#263238" stroke-miterlimit="10"/>
<path d="M131.872 154.851H124.361V162.364H131.872V154.851Z" fill="white" stroke="#263238" stroke-miterlimit="10"/>
<path d="M141.46 154.851H133.948V162.364H141.46V154.851Z" fill="white" stroke="#263238" stroke-miterlimit="10"/>
<path d="M151.054 154.851H143.542V162.364H151.054V154.851Z" fill="white" stroke="#263238" stroke-miterlimit="10"/>
<path d="M59.2282 118.669H51.7168V126.182H59.2282V118.669Z" fill="white" stroke="#263238" stroke-miterlimit="10"/>
<path d="M68.8161 118.669H61.3047V126.182H68.8161V118.669Z" fill="white" stroke="#263238" stroke-miterlimit="10"/>
<path d="M78.404 118.669H70.8926V126.182H78.404V118.669Z" fill="white" stroke="#263238" stroke-miterlimit="10"/>
<path d="M87.9983 118.669H80.4868V126.182H87.9983V118.669Z" fill="white" stroke="#263238" stroke-miterlimit="10"/>
<path d="M97.5857 118.669H90.0742V126.182H97.5857V118.669Z" fill="white" stroke="#263238" stroke-miterlimit="10"/>
<path d="M107.18 118.669H99.6685V126.182H107.18V118.669Z" fill="white" stroke="#263238" stroke-miterlimit="10"/>
<path d="M116.768 118.669H109.256V126.182H116.768V118.669Z" fill="white" stroke="#263238" stroke-miterlimit="10"/>
<path d="M126.356 118.669H118.844V126.182H126.356V118.669Z" fill="white" stroke="#263238" stroke-miterlimit="10"/>
<path d="M135.95 118.669H128.438V126.182H135.95V118.669Z" fill="white" stroke="#263238" stroke-miterlimit="10"/>
<path d="M145.538 118.669H138.026V126.182H145.538V118.669Z" fill="white" stroke="#263238" stroke-miterlimit="10"/>
<path d="M155.126 118.669H147.614V126.182H155.126V118.669Z" fill="white" stroke="#263238" stroke-miterlimit="10"/>
<path d="M164.72 118.669H157.208V126.182H164.72V118.669Z" fill="white" stroke="#263238" stroke-miterlimit="10"/>
<path d="M174.308 118.669H166.796V126.182H174.308V118.669Z" fill="white" stroke="#263238" stroke-miterlimit="10"/>
<path d="M45.4936 154.851H36.3936V162.364H45.4936V154.851Z" fill="white" stroke="#263238" stroke-miterlimit="10"/>
<path d="M33.3789 114.928L36.3935 113.921H175.69L177.672 114.915L33.3789 114.928Z" fill="#263238"/>
<path d="M159.71 186.93L159.785 159.274C160.086 158.161 160.329 154.057 160.967 151.198C162.056 146.406 157.778 140.626 157.478 140.438C156.277 139.688 153.725 139.7 153.725 139.7C153.725 139.7 151.223 136.848 148.99 135.947C147.456 135.402 145.821 135.199 144.2 135.353C142.48 133.933 140.563 132.771 138.508 131.906C137.704 131.602 136.831 131.525 135.986 131.684C135.141 131.843 134.356 132.231 133.717 132.807L130.903 137.186C130.492 137.807 130.305 138.55 130.375 139.292C130.444 140.034 130.765 140.73 131.284 141.264C132.623 142.578 134.337 141.965 135.2 141.965C136.394 141.965 136.845 140.614 136.845 140.614C136.845 140.614 137.138 147.651 136.845 148.552C136.538 149.447 134.299 151.542 134.299 151.542L126.794 141.64C124.217 138.143 121.963 134.42 120.058 130.517C119.841 130.041 119.556 129.599 119.214 129.203C117.9 127.721 115.092 127.283 114.36 130.035C114.18 130.916 114.221 131.827 114.479 132.688C117.606 141.934 121.596 148.921 125.23 156.203C127.388 160.525 126.587 160.475 127.663 162.427C127.538 162.515 127.601 162.677 127.463 162.759C126.938 164.86 126.569 166.969 126.037 169.07C125.597 166.432 124.79 163.867 123.642 161.451C123.945 159.987 124.056 158.49 123.973 156.997C123.879 155.489 123.207 154.075 122.097 153.05C121.475 152.547 120.712 152.25 119.914 152.199C119.342 152.162 118.778 152.341 118.333 152.702C117.887 153.062 117.595 153.577 117.512 154.145C117.388 155.289 117.179 156.422 116.887 157.535C116.409 158.989 115.832 160.408 115.161 161.783C115.161 164.579 116.887 164.122 118.144 175.345C119.12 184.103 130.378 189.864 136.507 196.176L143.766 217.623C152.898 213.325 156.659 211.176 164.449 205.267L159.71 186.93Z" fill="white"/>
<path d="M122.252 171.792C122.328 171.654 122.39 171.516 122.453 171.373C122.386 171.419 122.333 171.483 122.298 171.556C122.263 171.629 122.247 171.711 122.252 171.792Z" fill="#92E3A9"/>
<path d="M140.283 133.094C139.425 132.423 138.404 131.992 137.325 131.843L140.283 133.094Z" fill="#92E3A9"/>
<path d="M136.95 136.022L136.988 136.335C137.01 136.229 136.996 136.119 136.95 136.022Z" fill="#92E3A9"/>
<g opacity="0.5">
<path opacity="0.5" d="M122.252 171.792C122.328 171.654 122.39 171.516 122.453 171.373C122.386 171.419 122.333 171.483 122.298 171.556C122.263 171.629 122.247 171.711 122.252 171.792Z" fill="white"/>
<path opacity="0.5" d="M140.283 133.094C139.425 132.423 138.404 131.992 137.325 131.843L140.283 133.094Z" fill="white"/>
<path opacity="0.5" d="M136.95 136.022L136.988 136.335C137.01 136.229 136.996 136.119 136.95 136.022Z" fill="white"/>
<path opacity="0.5" d="M140.396 163.153C140.115 162.452 138.751 160.438 137.957 161.833L140.396 163.153Z" fill="white"/>
</g>
<path d="M117.143 159.787C116.416 160.36 115.796 161.057 115.311 161.845L117.143 159.787Z" fill="white"/>
<path d="M143.766 217.623L136.569 196.157C130.44 189.845 119.182 184.071 118.207 175.326C116.956 164.103 115.223 164.56 115.223 161.764C115.895 160.389 116.471 158.97 116.949 157.516C117.241 156.403 117.45 155.27 117.575 154.126C117.657 153.559 117.95 153.044 118.395 152.683C118.84 152.322 119.405 152.143 119.977 152.18C120.775 152.231 121.537 152.528 122.159 153.031C123.27 154.056 123.942 155.47 124.036 156.978C124.119 158.471 124.007 159.968 123.704 161.432C124.853 163.848 125.659 166.413 126.1 169.052C126.631 166.95 127 164.842 127.526 162.74C127.663 162.658 127.601 162.496 127.726 162.408C126.65 160.456 127.45 160.531 125.293 156.184C121.659 148.902 117.675 141.915 114.542 132.669C114.284 131.808 114.243 130.897 114.423 130.017C115.154 127.264 117.963 127.702 119.276 129.185C119.619 129.58 119.903 130.022 120.12 130.498C122.025 134.401 124.28 138.124 126.856 141.621L134.362 151.523C134.362 151.523 136.601 149.428 136.907 148.533C137.201 147.632 136.907 140.595 136.907 140.595C136.907 140.595 136.457 141.946 135.262 141.946C134.399 141.946 132.685 142.572 131.347 141.245C130.823 140.72 130.493 140.031 130.412 139.293C130.331 138.555 130.504 137.812 130.903 137.185L133.699 132.807C134.338 132.231 135.123 131.843 135.968 131.684C136.813 131.525 137.685 131.602 138.489 131.906C140.544 132.771 142.462 133.933 144.181 135.353C145.802 135.199 147.437 135.402 148.972 135.947C151.223 136.854 153.706 139.7 153.706 139.7C153.706 139.7 156.252 139.7 157.459 140.438C157.759 140.626 162.037 146.406 160.949 151.198C160.323 154.057 160.067 158.161 159.767 159.274L159.692 186.93L164.718 205.267" stroke="#263238" stroke-miterlimit="10"/>
<path d="M144.887 136.328C145.989 140.409 146.56 144.614 146.588 148.84C146.553 149.548 146.629 150.257 146.814 150.942C146.911 151.282 147.093 151.592 147.344 151.841C147.595 152.091 147.905 152.272 148.246 152.368" stroke="#263238" stroke-miterlimit="10"/>
<path d="M153.731 140.438C155.607 144.354 153.687 153.1 153.825 153.719C153.884 154.03 154.009 154.325 154.191 154.584C154.373 154.843 154.609 155.06 154.882 155.22" stroke="#263238" stroke-miterlimit="10"/>
<path d="M137.607 135.791C137.388 137.042 137.207 138.48 136.982 139.725C136.254 139.099 135.658 138.334 135.228 137.474C134.799 136.615 134.544 135.679 134.48 134.721" stroke="#263238" stroke-miterlimit="10"/>
<path d="M125.624 169.171L124.273 169.765" stroke="#263238" stroke-miterlimit="10"/>
<path d="M125.968 170.253C125.752 171.297 125.752 172.374 125.968 173.418" stroke="#263238" stroke-miterlimit="10"/>
<path d="M133.874 158.561L135.368 161.257" stroke="#263238" stroke-miterlimit="10"/>
<path d="M136.75 148.696L138.239 146.594" stroke="#263238" stroke-miterlimit="10"/>
<path d="M157.684 158.561L157.233 160.212" stroke="#263238" stroke-miterlimit="10"/>
<path d="M154.043 154.076C154.46 152.674 154.9 151.273 155.363 149.872" stroke="#263238" stroke-miterlimit="10"/>
<path d="M158.421 146.6C158.817 146.393 159.279 146.351 159.706 146.483C160.132 146.616 160.489 146.912 160.698 147.307" stroke="#263238" stroke-miterlimit="10"/>
<path d="M149.459 139.419C149.978 139.273 150.526 139.26 151.051 139.38C151.577 139.5 152.064 139.75 152.468 140.107" stroke="#263238" stroke-miterlimit="10"/>
<path d="M121.603 143.591C122.088 143.059 122.692 142.649 123.366 142.395C124.04 142.14 124.764 142.049 125.48 142.127" stroke="#263238" stroke-miterlimit="10"/>
<path d="M115.955 131.793C116.402 131.471 116.908 131.24 117.445 131.113C117.981 130.986 118.538 130.967 119.082 131.055" stroke="#263238" stroke-miterlimit="10"/>
<path d="M117.143 159.787C116.416 160.36 115.796 161.057 115.311 161.845" stroke="#263238" stroke-miterlimit="10"/>
<path d="M117.719 156.941C118.707 156.24 120.283 157.817 121.19 157.01C121.351 156.828 121.463 156.61 121.516 156.373C121.57 156.137 121.563 155.891 121.496 155.658C121.363 155.193 121.302 154.71 121.315 154.226" stroke="#263238" stroke-miterlimit="10"/>
<path d="M145.606 152.606C146.81 155.104 147.055 157.958 146.294 160.625" stroke="#263238" stroke-miterlimit="10"/>
<path d="M152.874 156.465C153.069 157.648 152.848 158.862 152.249 159.9" stroke="#263238" stroke-miterlimit="10"/>
<path d="M90.0148 156.114C89.7459 154.863 87.9884 155.057 87.9884 155.057C82.0781 155.401 81.2838 164.665 81.2838 164.665L79.1636 171.015L78.5381 161.469L78.6007 149.164C78.6007 149.164 80.3894 137.391 79.5951 135.546C79.4137 135.037 79.0835 134.594 78.6475 134.275C78.2114 133.956 77.6896 133.775 77.1497 133.756C73.7098 132.893 73.5097 137.854 73.5097 137.854L70.6076 147.975L69.3818 158.892L68.3936 158.36C68.3936 158.36 67.9245 146.781 68.1247 146.587C68.3248 146.393 69.5131 138.579 69.5131 138.579C69.5131 138.579 70.1386 137.128 70.9704 135.277C71.2054 134.757 71.327 134.193 71.327 133.622C71.327 133.051 71.2054 132.487 70.9704 131.967C69.5757 129.121 66.6737 130.447 66.0733 131.967C65.3684 133.511 64.5748 135.013 63.6966 136.465L60.3818 145.529C60.5069 147.581 59.3311 157.697 59.3311 157.697L58.1365 157.159L56.2165 151.216L57.68 145.129C57.68 145.129 60.8759 141.626 60.3193 139.562C59.7627 137.497 57.0796 138.11 57.0796 138.11L51.6633 144.585H50.0685L46.3159 149.352C44.6124 154.464 44.3079 159.94 45.434 165.21L46.2971 169.232V195.237C46.2971 195.237 43.7266 199.403 43.7266 199.797C43.7266 199.979 41.2938 204.392 39.8115 208.49C46.2702 212.713 53.2422 216.28 61.5693 219.772C63.9397 213.097 67.9808 203.976 69.5131 202.312C72.5527 199.003 78.5069 192.653 78.5069 192.653C78.5069 192.653 85.2678 181.787 86.0621 178.171C86.6875 175.206 88.3011 169.826 88.8515 167.981C88.9793 167.562 89.0302 167.123 89.0016 166.686C88.9578 165.71 88.864 163.815 88.864 162.144C88.864 159.73 90.2712 157.346 90.0148 156.114Z" fill="white"/>
<path d="M39.8115 208.49C41.6918 204.192 44.3301 198.197 44.3301 198.015C44.3301 197.621 46.9007 193.455 46.9007 193.455V167.457L46.0376 163.459C44.9122 158.203 45.2102 152.741 46.9007 147.639L50.6533 142.872H52.2481L57.6643 136.397C57.6643 136.397 60.3787 135.772 60.9041 137.849C61.4295 139.926 58.2648 143.404 58.2648 143.404L56.8012 149.49L58.7213 155.433L59.9159 155.971C59.9159 155.971 61.0917 145.856 60.9666 143.804L64.2814 134.74C65.1596 133.287 65.9532 131.786 66.6581 130.242C67.2835 128.722 70.1605 127.396 71.5552 130.242C71.7902 130.762 71.9118 131.326 71.9118 131.896C71.9118 132.467 71.7902 133.031 71.5552 133.551C70.7546 135.428 70.0979 136.854 70.0979 136.854C70.0979 136.854 68.9096 144.661 68.7095 144.861C68.5093 145.061 68.9784 156.634 68.9784 156.634L69.9666 157.166L71.1612 146.25L74.0632 136.128C74.0632 136.128 74.2633 131.168 77.7032 132.031C78.2431 132.05 78.765 132.23 79.201 132.549C79.6371 132.868 79.9672 133.311 80.1486 133.82C80.9429 135.665 79.1542 147.439 79.1542 147.439L79.0917 159.743L79.7171 169.289L81.8373 162.94C81.8373 162.94 82.6316 153.675 88.5419 153.331C88.5419 153.331 90.2994 153.15 90.5683 154.389C90.8373 155.627 89.4175 158.004 89.4175 160.388C89.4175 162.058 89.5114 163.953 89.5551 164.929C89.5837 165.366 89.5328 165.805 89.405 166.224C88.8546 168.07 87.2723 173.449 86.6156 176.415C85.8213 180.03 79.0604 190.896 79.0604 190.896C79.0604 190.896 73.1063 197.246 70.0667 200.555C68.5344 202.219 63.9397 213.097 61.5693 219.772" stroke="#263238" stroke-miterlimit="10"/>
<path d="M59.8284 156.928C59.9946 157.55 59.9997 158.203 59.8432 158.827C59.6867 159.451 59.3738 160.025 58.9341 160.494" fill="white"/>
<path d="M59.8284 156.928C59.9946 157.55 59.9997 158.203 59.8432 158.827C59.6867 159.451 59.3738 160.025 58.9341 160.494" stroke="#263238" stroke-miterlimit="10"/>
<path d="M49.7402 165.674C50.5971 164.341 51.4352 162.515 51.2037 160.951C50.7534 157.879 49.3274 154.345 49.9842 151.304C50.3844 149.365 50.791 147.42 51.1912 145.48" fill="white"/>
<path d="M49.7402 165.674C50.5971 164.341 51.4352 162.515 51.2037 160.951C50.7534 157.879 49.3274 154.345 49.9842 151.304C50.3844 149.365 50.791 147.42 51.1912 145.48" stroke="#263238" stroke-miterlimit="10"/>
<path d="M74.6763 136.66C75.7012 136.39 76.7785 136.39 77.8034 136.66C77.8034 136.372 77.8034 136.085 77.8034 135.791" stroke="#263238" stroke-miterlimit="10"/>
<path d="M66.4829 132.75C66.7843 132.958 67.137 133.079 67.5025 133.099C67.8679 133.12 68.232 133.04 68.5549 132.867C68.8778 132.695 69.147 132.437 69.3331 132.122C69.5193 131.806 69.6151 131.446 69.6101 131.08" stroke="#263238" stroke-miterlimit="10"/>
<path d="M89.0676 154.47C88.203 154.692 87.4431 155.21 86.9191 155.933C86.395 156.655 86.1396 157.539 86.1969 158.43L87.7292 158.886" stroke="#263238" stroke-miterlimit="10"/>
<path d="M68.9412 155.233C69.01 156.284 68.8787 158.792 68.9412 159.837V155.233Z" fill="white"/>
<path d="M68.9412 155.233C69.01 156.284 68.8787 158.792 68.9412 159.837" stroke="#263238" stroke-miterlimit="10"/>
<path d="M70.092 156.684C69.9669 158.407 69.8397 160.127 69.7104 161.845C69.7104 161.626 69.7104 161.407 69.7104 161.188" fill="white"/>
<path d="M70.092 156.684C69.9669 158.407 69.8397 160.127 69.7104 161.845C69.7104 161.626 69.7104 161.407 69.7104 161.188" stroke="#263238" stroke-miterlimit="10"/>
<path d="M79.6172 171.185C80.0712 173.086 79.8638 175.085 79.0293 176.852L79.6172 171.185Z" fill="white"/>
<path d="M79.6172 171.185C80.0712 173.086 79.8638 175.085 79.0293 176.852" stroke="#263238" stroke-miterlimit="10"/>
<path d="M63.7811 162.171C62.4177 163.666 62.6178 167.25 63.581 169.227" stroke="#263238" stroke-miterlimit="10"/>
<path d="M73.8569 164.635C73.8647 166.316 73.2726 167.944 72.187 169.227" stroke="#263238" stroke-miterlimit="10"/>
<path d="M53.8494 162.884C53.6228 164.408 53.9537 165.963 54.7813 167.263" stroke="#263238" stroke-miterlimit="10"/>
<path d="M48.0453 167.557C47.9855 168.746 48.3245 169.922 49.0085 170.897" stroke="#263238" stroke-miterlimit="10"/>
<path d="M56.0005 138.712C56.3597 138.548 56.7594 138.495 57.1491 138.558C57.5388 138.621 57.9008 138.799 58.1895 139.069L58.9775 138.043" stroke="#263238" stroke-miterlimit="10"/>
<path d="M62.418 143.31C62.9454 142.994 63.5684 142.876 64.1749 142.978C64.7814 143.08 65.3316 143.395 65.7265 143.867" stroke="#263238" stroke-miterlimit="10"/>
<path d="M72.437 146.438C72.999 146.187 73.6095 146.064 74.2248 146.076C74.84 146.089 75.4448 146.238 75.9957 146.513" stroke="#263238" stroke-miterlimit="10"/>
<path d="M50.1406 151.686C50.4736 151.129 50.9595 150.68 51.5405 150.392C52.1216 150.103 52.7732 149.988 53.4179 150.06" stroke="#263238" stroke-miterlimit="10"/>
<path d="M45.9443 157.666C45.9645 157.262 46.1225 156.876 46.3922 156.573C46.6618 156.27 47.0268 156.069 47.4266 156.002" stroke="#263238" stroke-miterlimit="10"/>
<path d="M210.333 7.95671L0.5 8.9451L3.67094 4.19082C4.41953 3.05979 5.43574 2.13113 6.62935 1.48727C7.82297 0.84342 9.15705 0.504293 10.5132 0.500002H200.369C201.598 0.499117 202.811 0.774062 203.92 1.30457C205.028 1.83508 206.004 2.60762 206.774 3.56526L210.333 7.95671Z" fill="white" stroke="#263238" stroke-linecap="round" stroke-linejoin="round"/>
<path d="M109.062 39.4163H97.567C85.771 39.4163 76.2085 48.9808 76.2085 60.7792V72.2771C76.2085 84.0755 85.771 93.64 97.567 93.64H109.062C120.858 93.64 130.421 84.0755 130.421 72.2771V60.7792C130.421 48.9808 120.858 39.4163 109.062 39.4163Z" fill="#757575" stroke="#263238" stroke-linecap="round" stroke-linejoin="round"/>
<path d="M86.0591 71.1135V78.8205C86.0591 79.9818 86.5203 81.0956 87.3414 81.9168C88.1624 82.7381 89.276 83.1994 90.4371 83.1994H116.874C118.03 83.1994 119.139 82.7424 119.959 81.9279C120.779 81.1135 121.244 80.0077 121.252 78.8517C121.29 75.3799 121.471 71.1135 121.471 71.1135H86.0591Z" fill="#999999" stroke="#263238" stroke-linecap="round" stroke-linejoin="round"/>
<path d="M182.814 73.6846H28.2067C27.4115 73.6865 26.6342 73.4487 25.976 73.0024C25.3179 72.5561 24.8093 71.9219 24.5166 71.1824L0.668896 9.94604C0.5242 9.57584 0.472129 9.17589 0.517212 8.78097C0.562295 8.38605 0.703167 8.00813 0.927573 7.68008C1.15198 7.35203 1.45312 7.0838 1.80481 6.8987C2.15649 6.71361 2.54807 6.61726 2.94547 6.61805H208.087C208.482 6.62232 208.87 6.72236 209.217 6.90959C209.565 7.09681 209.862 7.36561 210.083 7.69292C210.304 8.02022 210.442 8.39625 210.485 8.7887C210.529 9.18115 210.476 9.5783 210.333 9.94604L186.485 71.1636C186.196 71.9037 185.692 72.5398 185.037 72.9894C184.382 73.439 183.608 73.6812 182.814 73.6846Z" fill="white" stroke="#263238" stroke-linecap="round" stroke-linejoin="round"/>
<path d="M183.964 68.3485H26.6868L5.04688 10.4965H205.504L183.964 68.3485Z" fill="white"/>
<path d="M121.29 73.6034H86.228V76.0055H121.29V73.6034Z" fill="#263238"/>
<path d="M160.992 65.8713H49.928C49.3026 65.8713 48.7397 65.5961 48.6271 65.2457L32.8287 15.0443C32.6536 14.4813 33.1477 14.0247 33.9357 14.0247H176.985C177.773 14.0247 178.267 14.4813 178.085 15.0443L162.293 65.2457C162.174 65.5898 161.599 65.8713 160.992 65.8713Z" fill="#38BFF2"/>
<path d="M159.879 64.7265H51.0537C50.8496 64.7279 50.6507 64.6627 50.487 64.5407C50.3234 64.4188 50.2039 64.2468 50.1468 64.0509L37.2879 21.8504C37.2401 21.7066 37.2273 21.5534 37.2506 21.4037C37.2739 21.2539 37.3327 21.1119 37.4221 20.9895C37.5114 20.867 37.6288 20.7678 37.7643 20.6999C37.8998 20.632 38.0495 20.5975 38.2011 20.5993H172.719C172.871 20.5975 173.02 20.632 173.156 20.6999C173.291 20.7678 173.409 20.867 173.498 20.9895C173.587 21.1119 173.646 21.2539 173.669 21.4037C173.693 21.5534 173.68 21.7066 173.632 21.8504L160.786 64.0509C160.728 64.2463 160.608 64.4177 160.445 64.5395C160.281 64.6612 160.083 64.7269 159.879 64.7265Z" fill="#263238"/>
<path d="M66.164 31.5717H45.2934C44.7743 31.5717 44.4365 31.8469 44.5366 32.1972C44.6375 32.3988 44.796 32.5658 44.992 32.6772C45.188 32.7886 45.4126 32.8392 45.6374 32.8228H66.3892C66.9021 32.8228 67.2648 32.5475 67.2085 32.1972C67.1522 31.8469 66.6769 31.5717 66.164 31.5717Z" fill="white"/>
<path d="M66.8581 35.3813H49.1083C48.6017 35.3813 48.2702 35.6503 48.3578 36.0069C48.4533 36.206 48.6062 36.3719 48.7968 36.4834C48.9874 36.5948 49.2069 36.6468 49.4273 36.6325H67.1082C67.6148 36.6325 67.9713 36.3635 67.915 36.0069C67.8587 35.6503 67.3647 35.3813 66.8581 35.3813Z" fill="white"/>
<path opacity="0.5" d="M67.5337 39.0597H47.3948C46.8945 39.0597 46.5692 39.3162 46.6568 39.6352C46.7574 39.8262 46.9117 39.9837 47.1006 40.0882C47.2895 40.1926 47.5048 40.2396 47.72 40.2232H67.7339C68.228 40.2232 68.5845 39.9668 68.5282 39.6477C68.4719 39.3287 68.0341 39.0597 67.5337 39.0597Z" fill="white"/>
<path d="M68.1841 42.6129H56.3571C55.8693 42.6129 55.5316 42.8631 55.6066 43.1697C55.6817 43.4762 56.1382 43.7264 56.6261 43.7264H68.3905C68.8783 43.7264 69.2285 43.4762 69.1723 43.1697C69.116 42.8631 68.6782 42.6129 68.1841 42.6129Z" fill="white"/>
<path d="M68.8162 46.041H49.3527C48.8774 46.041 48.5522 46.285 48.6397 46.579C48.7273 46.873 49.1776 47.117 49.6592 47.117H69.0476C69.5229 47.117 69.8669 46.8793 69.8169 46.579C69.7668 46.2787 69.2978 46.041 68.8162 46.041Z" fill="white"/>
<path d="M69.4225 49.3628H53.7116C53.2363 49.3628 52.9173 49.5943 52.9924 49.882C53.0674 50.1698 53.5115 50.4012 53.9806 50.4012H69.6164C70.0854 50.4012 70.4232 50.1698 70.3731 49.882C70.3231 49.5943 69.8978 49.3628 69.4225 49.3628Z" fill="white"/>
<path d="M70.0107 52.5719H54.5562C54.0872 52.5719 53.7744 52.7971 53.8495 53.0724C53.9245 53.3476 54.3561 53.5791 54.8189 53.5791H70.1983C70.6611 53.5791 70.9926 53.3539 70.9425 53.0724C70.8925 52.7908 70.4797 52.5719 70.0107 52.5719Z" fill="white"/>
<path d="M70.5798 55.6747H53.6931C53.2366 55.6747 52.9239 55.8936 52.9989 56.1626C53.074 56.4316 53.4993 56.6506 53.9558 56.6506H70.7362C71.1927 56.6506 71.5242 56.4316 71.4742 56.1626C71.4242 55.8936 71.0426 55.6747 70.5798 55.6747Z" fill="white"/>
<path opacity="0.5" d="M71.136 58.6836H60.2285C59.7782 58.6836 59.4654 58.8963 59.528 59.159C59.5905 59.4218 60.0096 59.6282 60.4536 59.6282H71.2924C71.7427 59.6282 72.0679 59.4155 72.0241 59.159C71.9803 58.9025 71.5863 58.6836 71.136 58.6836Z" fill="white"/>
<path opacity="0.5" d="M65.4389 27.6182H49.8844C49.359 27.6182 49.0088 27.906 49.1026 28.2438C49.2033 28.4469 49.3626 28.6151 49.56 28.7267C49.7574 28.8382 49.9837 28.8879 50.2096 28.8693H65.6703C66.1957 28.8693 66.5647 28.5816 66.5021 28.2438C66.4151 28.0395 66.2648 27.8685 66.0735 27.7559C65.8821 27.6433 65.6597 27.5951 65.4389 27.6182Z" fill="white"/>
<path d="M64.6819 23.5208H43.0294C42.4978 23.5208 42.1476 23.8148 42.2539 24.1838C42.3586 24.3959 42.5238 24.5721 42.7287 24.6901C42.9335 24.8081 43.1688 24.8627 43.4047 24.8469H64.9321C65.4574 24.8469 65.8389 24.5529 65.7701 24.1838C65.7013 23.8148 65.2323 23.5208 64.6819 23.5208Z" fill="white"/>
<path d="M71.668 61.5988H53.7243C53.2803 61.5988 52.9801 61.8052 53.0489 62.0554C53.1177 62.3056 53.5367 62.5121 53.9808 62.5121H71.8369C72.2747 62.5121 72.5999 62.3056 72.5561 62.0554C72.5123 61.8052 72.112 61.5988 71.668 61.5988Z" fill="white"/>
<path opacity="0.5" d="M73.4941 32.9604H77.5407L77.3405 31.4153H73.2627L73.4941 32.9604Z" fill="white"/>
<path opacity="0.5" d="M74.0572 36.7202H78.0349L77.8411 35.2313H73.832L74.0572 36.7202Z" fill="white"/>
<path opacity="0.5" d="M74.6013 40.3547H78.5103L78.3226 38.9159H74.3887L74.6013 40.3547Z" fill="white"/>
<path opacity="0.5" d="M75.1331 43.864H78.9732L78.7856 42.469H74.9204L75.1331 43.864Z" fill="white"/>
<path opacity="0.5" d="M75.6396 47.2483H79.4172L79.2358 45.9095H75.4395L75.6396 47.2483Z" fill="white"/>
<path opacity="0.5" d="M76.1337 50.5262H79.8425L79.6737 49.2313H75.9336L76.1337 50.5262Z" fill="white"/>
<path opacity="0.5" d="M76.609 53.7041H80.2615L80.0989 52.4404H76.4214L76.609 53.7041Z" fill="white"/>
<path opacity="0.5" d="M77.0652 56.7694H80.6614L80.505 55.5558H76.8838L77.0652 56.7694Z" fill="white"/>
<path opacity="0.5" d="M77.5155 59.747H81.0554L80.899 58.5647H77.3403L77.5155 59.747Z" fill="white"/>
<path opacity="0.5" d="M72.9061 29.0631H77.0277L76.8213 27.4554H72.6685L72.9061 29.0631Z" fill="white"/>
<path opacity="0.5" d="M72.2995 25.0158H76.4961L76.2835 23.3518H72.0493L72.2995 25.0158Z" fill="white"/>
<path opacity="0.5" d="M77.9472 62.6246H81.4308L81.2807 61.4799H77.7783L77.9472 62.6246Z" fill="white"/>
<path d="M99.2808 56.1626C99.2808 55.8936 99.631 55.6747 100.088 55.6747H160.016C160.473 55.6747 160.786 55.8936 160.704 56.1626C160.606 56.3265 160.464 56.4593 160.293 56.5456C160.123 56.6319 159.931 56.6683 159.741 56.6506H100.119C99.6623 56.6506 99.287 56.4316 99.2808 56.1626Z" fill="white"/>
<path d="M160.623 53.5791H127.438C126.975 53.5791 126.625 53.3539 126.656 53.0724C126.688 52.7908 127.088 52.5719 127.557 52.5719H160.924C161.386 52.5719 161.699 52.7971 161.618 53.0724C161.519 53.2444 161.373 53.3839 161.196 53.4739C161.02 53.5639 160.821 53.6004 160.623 53.5791Z" fill="white"/>
<path opacity="0.5" d="M119.563 53.5791H109.244C108.781 53.5791 108.405 53.3539 108.412 53.0724C108.418 52.7908 108.793 52.5719 109.262 52.5719H119.644C120.107 52.5719 120.47 52.7971 120.445 53.0724C120.42 53.3476 120.026 53.5791 119.563 53.5791Z" fill="white"/>
<path d="M141.103 50.4012H94.2961C93.827 50.4012 93.433 50.1698 93.4143 49.882C93.3955 49.5943 93.7645 49.3628 94.2398 49.3628H141.297C141.766 49.3628 142.11 49.5943 142.054 49.882C141.998 50.1698 141.579 50.4012 141.103 50.4012Z" fill="white"/>
<path opacity="0.5" d="M84.5144 49.3628H87.8479C88.317 49.3628 88.7235 49.5943 88.7486 49.882C88.7736 50.1698 88.4108 50.4012 87.9417 50.4012H84.6207C84.1516 50.4012 83.7451 50.1698 83.7138 49.882C83.6826 49.5943 84.039 49.3628 84.5144 49.3628Z" fill="white"/>
<path d="M147.877 46.579C147.814 46.8793 147.376 47.117 146.895 47.117H102.789C102.308 47.117 101.92 46.8793 101.914 46.579C101.907 46.2787 102.295 46.041 102.77 46.041H147.12C147.601 46.041 147.939 46.285 147.877 46.579Z" fill="white"/>
<path d="M84.158 46.041H96.6666C97.1482 46.041 97.5485 46.285 97.561 46.579C97.5735 46.873 97.192 47.117 96.7167 47.117H84.2706C83.7952 47.117 83.3824 46.8793 83.3449 46.579C83.3074 46.2787 83.6764 46.041 84.158 46.041Z" fill="white"/>
<path d="M83.789 42.6129H131.91C132.398 42.6129 132.76 42.8631 132.717 43.1697C132.673 43.4762 132.247 43.7264 131.76 43.7264H83.9078C83.4262 43.7264 83.0009 43.4762 82.9697 43.1697C82.9384 42.8631 83.3011 42.6129 83.789 42.6129Z" fill="white"/>
<path d="M115.029 40.2233C114.535 40.2233 114.147 39.9668 114.16 39.6478C114.172 39.3287 114.585 39.0723 115.086 39.0723H140.472C140.972 39.0723 141.329 39.3287 141.272 39.6478C141.216 39.9668 140.772 40.2233 140.278 40.2233H115.029Z" fill="white"/>
<path d="M83.4134 39.0597H105.385C105.885 39.0597 106.285 39.3162 106.285 39.6352C106.285 39.9542 105.885 40.2232 105.385 40.2232H83.5385C83.0382 40.2232 82.6129 39.9668 82.5753 39.6477C82.5378 39.3287 82.9131 39.0597 83.4134 39.0597Z" fill="white"/>
<path d="M165.501 36.5762H105.016C104.515 36.5762 104.103 36.3072 104.103 35.9506C104.103 35.5941 104.509 35.3251 105.016 35.3251H165.839C166.346 35.3251 166.677 35.5941 166.583 35.9506C166.484 36.1496 166.329 36.3151 166.136 36.4263C165.944 36.5375 165.723 36.5897 165.501 36.5762Z" fill="white"/>
<path d="M166.552 32.8041H113.391C112.878 32.8041 112.471 32.5289 112.484 32.1785C112.496 31.8282 112.921 31.553 113.441 31.553H166.965C167.478 31.553 167.816 31.8282 167.716 32.1785C167.609 32.3897 167.441 32.5629 167.233 32.6749C167.024 32.7868 166.787 32.8319 166.552 32.8041Z" fill="white"/>
<path opacity="0.5" d="M167.703 28.9006H156.546C156.02 28.9006 155.664 28.6128 155.745 28.275C155.842 28.0707 156 27.9012 156.197 27.7893C156.394 27.6775 156.62 27.6287 156.846 27.6495H168.053C168.579 27.6495 168.923 27.9372 168.816 28.275C168.711 28.4755 168.55 28.6412 168.352 28.7521C168.155 28.8631 167.929 28.9147 167.703 28.9006Z" fill="white"/>
<path d="M148.759 28.9005H107.837C107.318 28.9005 106.892 28.6128 106.899 28.275C106.905 27.9372 107.324 27.6494 107.849 27.6494H149.04C149.565 27.6494 149.934 27.9372 149.859 28.275C149.766 28.4823 149.609 28.6545 149.411 28.7669C149.213 28.8793 148.985 28.9261 148.759 28.9005Z" fill="white"/>
<path d="M85.5022 58.6836H123.297C123.747 58.6836 124.091 58.8963 124.06 59.159C124.029 59.4218 123.654 59.6282 123.203 59.6282H85.6086C85.1583 59.6282 84.7705 59.4155 84.7455 59.159C84.7205 58.9025 85.0519 58.6836 85.5022 58.6836Z" fill="white"/>
<path d="M85.8153 61.5988H143.88C144.318 61.5988 144.637 61.8052 144.581 62.0554C144.525 62.3056 144.131 62.5121 143.687 62.5121H85.9154C85.4713 62.5121 85.0898 62.3056 85.0648 62.0554C85.0398 61.8052 85.3713 61.5988 85.8153 61.5988Z" fill="white"/>
<path d="M146.726 24.8469H117.143C116.611 24.8469 116.199 24.5529 116.217 24.1838C116.236 23.8148 116.68 23.5208 117.218 23.5208H146.976C147.514 23.5208 147.889 23.8148 147.82 24.1838C147.732 24.3964 147.579 24.5753 147.382 24.6946C147.185 24.8138 146.955 24.8672 146.726 24.8469Z" fill="white"/>
<path opacity="0.5" d="M108.787 24.8469H81.8935C81.3619 24.8469 80.8991 24.5529 80.8553 24.1838C80.8115 23.8148 81.2118 23.5208 81.7497 23.5208H108.8C109.331 23.5208 109.763 23.8148 109.757 24.1838C109.75 24.5529 109.319 24.8469 108.787 24.8469Z" fill="white"/>
<path opacity="0.5" d="M131.678 58.6836C132.128 58.6836 132.466 58.8963 132.429 59.159C132.391 59.4218 131.997 59.6282 131.547 59.6282H128.626C128.182 59.6282 127.844 59.4155 127.876 59.159C127.907 58.9025 128.295 58.6836 128.745 58.6836H131.678Z" fill="white"/>
<path opacity="0.5" d="M95.8345 56.1626C95.8345 56.4316 95.4905 56.6506 95.0339 56.6506H91.0562C90.5996 56.6506 90.2119 56.4316 90.1931 56.1626C90.1743 55.8936 90.5246 55.6747 90.9811 55.6747H94.9777C95.4405 55.6747 95.822 55.8936 95.8345 56.1626Z" fill="white"/>
<path opacity="0.5" d="M143.836 43.1697C143.78 43.4762 143.342 43.7264 142.855 43.7264H138.201C137.713 43.7264 137.363 43.4762 137.407 43.1697C137.451 42.8631 137.895 42.6129 138.383 42.6129H143.061C143.549 42.6129 143.899 42.8631 143.836 43.1697Z" fill="white"/>
<path opacity="0.5" d="M158.353 46.041C158.835 46.041 159.16 46.285 159.079 46.579C158.982 46.7578 158.835 46.9042 158.656 46.9999C158.477 47.0956 158.274 47.1363 158.072 47.117H154.363C153.881 47.117 153.556 46.8793 153.625 46.579C153.719 46.4001 153.865 46.2535 154.043 46.1577C154.222 46.0618 154.424 46.0212 154.626 46.041H158.353Z" fill="white"/>
<path opacity="0.5" d="M97.6922 36.5762C97.1918 36.5762 96.7728 36.3072 96.754 35.9506C96.7353 35.5941 97.1418 35.3251 97.6484 35.3251H101.595C102.101 35.3251 102.514 35.5941 102.521 35.9506C102.527 36.3072 102.12 36.5762 101.62 36.5762H97.6922Z" fill="white"/>
<path d="M43.9676 17.3151C44.0553 17.5243 44.0883 17.7525 44.0632 17.9779C44.0382 18.2034 43.956 18.4187 43.8245 18.6036C43.693 18.7884 43.5164 18.9365 43.3116 19.034C43.1068 19.1315 42.8805 19.175 42.6542 19.1606C42.1077 19.1287 41.5827 18.9368 41.1445 18.6086C40.7063 18.2805 40.3744 17.8306 40.19 17.3151C40.0975 17.1055 40.0604 16.8755 40.0823 16.6474C40.1041 16.4193 40.1841 16.2006 40.3147 16.0122C40.4452 15.8239 40.6219 15.6722 40.8279 15.5718C41.0338 15.4713 41.2621 15.4254 41.4909 15.4385C42.0442 15.467 42.5761 15.6612 43.0178 15.9958C43.4594 16.3305 43.7903 16.7901 43.9676 17.3151Z" fill="white"/>
<path d="M49.0337 17.3464C49.1124 17.5606 49.1363 17.7911 49.1032 18.0169C49.0702 18.2427 48.9813 18.4566 48.8446 18.6393C48.7079 18.8221 48.5278 18.9677 48.3205 19.0631C48.1132 19.1585 47.8854 19.2006 47.6578 19.1856C47.1183 19.1587 46.5997 18.9684 46.1707 18.6399C45.7418 18.3115 45.4229 17.8603 45.2561 17.3464C45.1734 17.1312 45.1458 16.8987 45.1758 16.6701C45.2059 16.4415 45.2926 16.2241 45.4281 16.0376C45.5636 15.851 45.7436 15.7014 45.9517 15.6022C46.1598 15.503 46.3894 15.4575 46.6196 15.4697C47.1664 15.495 47.6921 15.689 48.1243 16.025C48.5565 16.361 48.8742 16.8226 49.0337 17.3464Z" fill="white"/>
<path d="M54.1809 17.3151C54.251 17.5363 54.2659 17.7713 54.2242 17.9996C54.1825 18.2278 54.0855 18.4424 53.9417 18.6245C53.7979 18.8066 53.6117 18.9506 53.3994 19.0441C53.187 19.1375 52.955 19.1775 52.7237 19.1605C52.1891 19.1362 51.6755 18.9451 51.2549 18.6142C50.8344 18.2833 50.5278 17.829 50.3783 17.3151C50.3046 17.0948 50.2859 16.8598 50.3237 16.6305C50.3616 16.4013 50.4548 16.1848 50.5954 15.9998C50.7359 15.8148 50.9195 15.667 51.1302 15.5691C51.3409 15.4713 51.5723 15.4264 51.8043 15.4384C52.3494 15.4545 52.8748 15.6457 53.3029 15.9837C53.7309 16.3217 54.0388 16.7885 54.1809 17.3151Z" fill="white"/>
<path d="M49.7775 93.4586H36.5871C35.7577 93.4586 34.9623 93.7882 34.3759 94.3747C33.7894 94.9613 33.46 95.7569 33.46 96.5864V103.011C33.46 103.841 33.7894 104.636 34.3759 105.223C34.9623 105.809 35.7577 106.139 36.5871 106.139H40.0333L42.6476 112.063L46.3314 106.139H49.7775C50.6069 106.139 51.4023 105.809 51.9887 105.223C52.5752 104.636 52.9046 103.841 52.9046 103.011V96.5614C52.898 95.7362 52.5657 94.947 51.9799 94.3659C51.3942 93.7847 50.6025 93.4586 49.7775 93.4586Z" fill="white" stroke="#263238" stroke-linecap="round" stroke-linejoin="round"/>
<path d="M41.3467 97.1495C41.3467 96.9836 41.4126 96.8245 41.5299 96.7072C41.6472 96.5898 41.8062 96.5239 41.9721 96.5239C42.1307 96.5235 42.2835 96.5834 42.3996 96.6914C42.5157 96.7994 42.5864 96.9475 42.5975 97.1057C42.5975 97.2716 42.5317 97.4307 42.4144 97.548C42.2971 97.6654 42.138 97.7313 41.9721 97.7313C41.8136 97.7316 41.6608 97.6718 41.5447 97.5638C41.4285 97.4558 41.3578 97.3077 41.3467 97.1495ZM41.4843 98.4569H42.4912V102.748H41.4655L41.4843 98.4569Z" fill="#263238"/>
<path d="M44.912 98.2192V98.4757H46.0941V99.2827H44.9495V102.736H43.9676V99.2827H43.2358V98.4757H43.9676V98.2005C43.9516 97.9973 43.9806 97.7932 44.0527 97.6026C44.1248 97.412 44.2381 97.2397 44.3845 97.0981C44.5309 96.9564 44.7068 96.8489 44.8997 96.7831C45.0925 96.7174 45.2975 96.6951 45.4999 96.7179C45.8206 96.7017 46.1387 96.7823 46.413 96.9493L46.1316 97.7063C45.9677 97.5935 45.7738 97.5325 45.575 97.5311C45.1309 97.5311 44.912 97.7751 44.912 98.2192Z" fill="#263238"/>
<path d="M89.9429 94.3594H76.7463C75.9169 94.3594 75.1215 94.6889 74.5351 95.2755C73.9486 95.8621 73.6191 96.6576 73.6191 97.4872V103.905C73.6191 104.735 73.9486 105.531 74.5351 106.117C75.1215 106.704 75.9169 107.033 76.7463 107.033H80.1987L82.8067 112.957L86.4905 107.033H89.9429C90.7723 107.033 91.5677 106.704 92.1542 106.117C92.7406 105.531 93.0701 104.735 93.0701 103.905V97.4622C93.0635 96.637 92.7311 95.8478 92.1454 95.2666C91.5596 94.6855 90.768 94.3593 89.9429 94.3594Z" fill="white" stroke="#263238" stroke-linecap="round" stroke-linejoin="round"/>
<path d="M79.5236 101.81H76.1525C76.2186 102.123 76.397 102.401 76.654 102.591C76.911 102.781 77.2288 102.87 77.5473 102.842C77.7632 102.85 77.9784 102.812 78.1789 102.731C78.3793 102.651 78.5605 102.528 78.7106 102.373L79.2484 102.999C78.9236 103.321 78.5134 103.545 78.066 103.643C77.6186 103.741 77.1525 103.709 76.7224 103.552C76.2924 103.394 75.9162 103.117 75.638 102.753C75.3598 102.389 75.1912 101.954 75.1518 101.497C75.1431 101.205 75.1945 100.914 75.3029 100.642C75.4113 100.371 75.5743 100.124 75.782 99.9182C75.9896 99.7123 76.2374 99.5513 76.5098 99.4452C76.7823 99.3391 77.0737 99.2902 77.3659 99.3014C77.6584 99.2894 77.9501 99.3391 78.2222 99.4471C78.4943 99.5552 78.7406 99.7192 78.9453 99.9286C79.1499 100.138 79.3082 100.388 79.41 100.663C79.5118 100.937 79.5548 101.23 79.5361 101.522C79.5361 101.591 79.5299 101.716 79.5236 101.81ZM76.1463 101.147H78.5792C78.5492 100.85 78.4068 100.576 78.1812 100.38C77.9557 100.185 77.664 100.083 77.3659 100.096C77.0675 100.085 76.7758 100.187 76.5496 100.382C76.3233 100.577 76.1792 100.85 76.1463 101.147Z" fill="#263238"/>
<path d="M80.4993 97.6749H81.4938V103.637H80.4868L80.4993 97.6749Z" fill="#263238"/>
<path d="M82.3315 103.211L82.7131 102.448C83.1631 102.724 83.6801 102.871 84.2078 102.873C84.8333 102.873 85.1085 102.698 85.1085 102.398C85.1085 101.578 82.4566 102.348 82.4566 100.64C82.4566 99.8269 83.1884 99.2951 84.3329 99.2951C84.8907 99.2862 85.4423 99.4129 85.9403 99.6642L85.5525 100.427C85.1732 100.207 84.7401 100.097 84.3017 100.108C83.6762 100.108 83.401 100.309 83.401 100.59C83.401 101.46 86.0529 100.684 86.0529 102.367C86.0529 103.167 85.3149 103.693 84.1078 103.693C83.4829 103.697 82.8688 103.53 82.3315 103.211Z" fill="#263238"/>
<path d="M90.9753 101.81H87.6042C87.6703 102.123 87.8487 102.401 88.1057 102.591C88.3627 102.781 88.6805 102.87 88.9989 102.842C89.2149 102.85 89.4301 102.812 89.6305 102.731C89.831 102.651 90.0121 102.528 90.1622 102.373L90.7001 102.999C90.3753 103.321 89.9651 103.545 89.5176 103.643C89.0702 103.741 88.6042 103.709 88.1741 103.552C87.744 103.394 87.3679 103.117 87.0897 102.753C86.8115 102.389 86.6428 101.954 86.6035 101.497C86.5947 101.205 86.6461 100.914 86.7545 100.642C86.8629 100.371 87.026 100.124 87.2336 99.9182C87.4413 99.7123 87.689 99.5513 87.9615 99.4452C88.234 99.3391 88.5254 99.2902 88.8175 99.3014C89.11 99.2894 89.4018 99.3391 89.6739 99.4471C89.946 99.5552 90.1923 99.7192 90.3969 99.9286C90.6016 100.138 90.7599 100.388 90.8617 100.663C90.9635 100.937 91.0064 101.23 90.9878 101.522C90.9878 101.591 90.9815 101.716 90.9753 101.81ZM87.5979 101.147H90.0309C90.0008 100.85 89.8585 100.576 89.6329 100.38C89.4073 100.185 89.1157 100.083 88.8175 100.096C88.5191 100.085 88.2275 100.187 88.0012 100.382C87.775 100.577 87.6309 100.85 87.5979 101.147Z" fill="#263238"/>
<path d="M128.882 93.9779H115.686C114.856 93.9779 114.061 94.3074 113.475 94.894C112.888 95.4806 112.559 96.2762 112.559 97.1057V103.53C112.559 104.36 112.888 105.155 113.475 105.742C114.061 106.329 114.856 106.658 115.686 106.658H119.138L121.746 112.582L125.43 106.658H128.882C129.712 106.658 130.507 106.329 131.094 105.742C131.68 105.155 132.01 104.36 132.01 103.53V97.0807C132.003 96.2555 131.671 95.4663 131.085 94.8852C130.499 94.304 129.707 93.9779 128.882 93.9779Z" fill="white" stroke="#263238" stroke-linecap="round" stroke-linejoin="round"/>
<path d="M118.713 98.7384V99.0261H119.895V99.8331H118.744V103.286H117.769V99.8331H117.062V99.0261H117.769V98.7509C117.753 98.5477 117.782 98.3436 117.854 98.153C117.926 97.9624 118.039 97.7901 118.186 97.6485C118.332 97.5068 118.508 97.3993 118.701 97.3335C118.894 97.2678 119.099 97.2455 119.301 97.2683C119.62 97.2526 119.936 97.3333 120.208 97.4998L119.926 98.2567C119.766 98.1411 119.574 98.0778 119.376 98.0753C118.932 98.044 118.713 98.2817 118.713 98.7384Z" fill="#263238"/>
<path d="M120.152 101.109C120.134 100.653 120.254 100.202 120.494 99.8137C120.735 99.4257 121.087 99.1186 121.504 98.932C121.921 98.7454 122.384 98.6877 122.833 98.7664C123.283 98.8451 123.699 99.0566 124.028 99.3737C124.357 99.6908 124.583 100.099 124.678 100.546C124.773 100.992 124.732 101.457 124.561 101.881C124.389 102.304 124.095 102.667 123.717 102.922C123.338 103.176 122.891 103.312 122.434 103.311C122.137 103.329 121.839 103.284 121.56 103.181C121.28 103.077 121.025 102.917 120.811 102.71C120.597 102.503 120.427 102.254 120.314 101.979C120.2 101.703 120.145 101.407 120.152 101.109ZM123.71 101.109C123.693 100.866 123.606 100.634 123.458 100.44C123.311 100.246 123.11 100.099 122.881 100.018C122.651 99.9363 122.403 99.9237 122.166 99.9814C121.93 100.039 121.715 100.165 121.549 100.343C121.382 100.521 121.272 100.743 121.23 100.983C121.188 101.223 121.218 101.47 121.314 101.694C121.411 101.917 121.571 102.108 121.774 102.242C121.978 102.376 122.216 102.447 122.459 102.448C122.631 102.448 122.801 102.413 122.959 102.345C123.117 102.277 123.259 102.177 123.376 102.051C123.494 101.926 123.584 101.777 123.641 101.615C123.699 101.453 123.722 101.281 123.71 101.109Z" fill="#263238"/>
<path d="M128.163 98.9135V99.8706C128.086 99.8651 128.009 99.8651 127.932 99.8706C127.757 99.8568 127.582 99.8823 127.419 99.9452C127.256 100.008 127.109 100.107 126.989 100.234C126.869 100.361 126.779 100.514 126.725 100.68C126.672 100.847 126.657 101.024 126.681 101.197V103.28H125.674V98.9635H126.631V99.5891C126.806 99.3534 127.039 99.1672 127.308 99.0488C127.576 98.9304 127.871 98.8838 128.163 98.9135Z" fill="#263238"/>
<path d="M167.259 93.4586H154.044C153.214 93.4586 152.419 93.7882 151.832 94.3747C151.246 94.9613 150.917 95.7569 150.917 96.5864V103.011C150.917 103.841 151.246 104.636 151.832 105.223C152.419 105.809 153.214 106.139 154.044 106.139H157.496L160.104 112.063L163.788 106.139H167.24C168.07 106.139 168.865 105.809 169.452 105.223C170.038 104.636 170.367 103.841 170.367 103.011V96.5614C170.361 95.7394 170.031 94.9531 169.449 94.3725C168.868 93.7918 168.081 93.4635 167.259 93.4586Z" fill="white" stroke="#263238" stroke-linecap="round" stroke-linejoin="round"/>
<path d="M158.947 98.2317H162.65V99.0262H158.947V98.2317ZM158.947 100.177H162.65V100.984H158.947V100.177Z" fill="#263238"/>
<path d="M69.8917 86.0332H56.695C55.8657 86.0332 55.0703 86.3627 54.4838 86.9493C53.8973 87.5359 53.5679 88.3315 53.5679 89.161V95.5793C53.5679 96.4088 53.8973 97.2044 54.4838 97.791C55.0703 98.3776 55.8657 98.7071 56.695 98.7071H60.1474L62.7555 104.631L66.4393 98.7071H69.8917C70.721 98.7071 71.5164 98.3776 72.1029 97.791C72.6893 97.2044 73.0188 96.4088 73.0188 95.5793V89.136C73.0122 88.3108 72.6798 87.5216 72.0941 86.9405C71.5083 86.3593 70.7167 86.0332 69.8917 86.0332Z" fill="white" stroke="#263238" stroke-linecap="round" stroke-linejoin="round"/>
<path d="M60.1909 88.6981H62.1047V89.5051H61.1916V95.4167H62.1047V96.2236H60.1909V88.6981Z" fill="#263238"/>
<path d="M64.6069 96.2236V95.4167H65.5138V89.5051H64.6069V88.6981H66.4832V96.2049L64.6069 96.2236Z" fill="#263238"/>
<path d="M109.119 85.3763H95.9221C95.0927 85.3763 94.2973 85.7059 93.7108 86.2925C93.1244 86.879 92.7949 87.6746 92.7949 88.5042V94.8974C92.7949 95.727 93.1244 96.5225 93.7108 97.1091C94.2973 97.6957 95.0927 98.0252 95.9221 98.0252H99.3745L101.989 103.949L105.673 98.0252H109.119C109.948 98.0252 110.743 97.6957 111.33 97.1091C111.916 96.5225 112.246 95.727 112.246 94.8974V88.4791C112.239 87.6539 111.907 86.8648 111.321 86.2836C110.735 85.7024 109.944 85.3763 109.119 85.3763Z" fill="white" stroke="#263238" stroke-linecap="round" stroke-linejoin="round"/>
<path d="M99.8372 91.7759C100.156 91.8822 100.313 92.1012 100.313 92.5953V94.128C100.298 94.2106 100.304 94.2953 100.328 94.3755C100.352 94.4558 100.395 94.5292 100.453 94.5899C100.51 94.6507 100.581 94.6971 100.66 94.7255C100.739 94.7539 100.824 94.7635 100.907 94.7535H101.076V95.5605H100.669C100.488 95.5875 100.303 95.5726 100.129 95.5169C99.955 95.4612 99.7959 95.3662 99.6641 95.2393C99.5324 95.1123 99.4316 94.9568 99.3694 94.7848C99.3072 94.6127 99.2854 94.4287 99.3056 94.2468V92.5953C99.3056 92.3264 99.168 92.2075 98.9429 92.2075H98.6802V91.388H98.9429C99.168 91.388 99.3056 91.2691 99.3056 91.0002V89.3424C99.2852 89.1608 99.3069 88.9769 99.3691 88.805C99.4312 88.6332 99.5322 88.478 99.6641 88.3515C99.796 88.225 99.9553 88.1306 100.13 88.0757C100.304 88.0209 100.488 88.0069 100.669 88.035H101.076V88.842H100.882C100.798 88.8306 100.713 88.8392 100.634 88.8671C100.554 88.8951 100.483 88.9415 100.424 89.0026C100.366 89.0637 100.324 89.1377 100.3 89.2186C100.276 89.2994 100.272 89.3847 100.288 89.4675V90.9939C100.313 91.4568 100.156 91.6758 99.8372 91.7759Z" fill="#263238"/>
<path d="M105.967 91.3693V92.1888H105.691C105.472 92.1888 105.335 92.3076 105.335 92.5766V94.2281C105.354 94.4103 105.331 94.5944 105.268 94.7664C105.205 94.9384 105.104 95.0937 104.972 95.2205C104.84 95.3473 104.68 95.4421 104.506 95.4978C104.331 95.5535 104.146 95.5685 103.965 95.5418H103.559V94.7348H103.727C103.813 94.7489 103.9 94.7424 103.983 94.716C104.065 94.6895 104.14 94.6438 104.201 94.5826C104.262 94.5215 104.308 94.4467 104.334 94.3643C104.361 94.282 104.367 94.1946 104.353 94.1092V92.5766C104.353 92.0824 104.497 91.8635 104.816 91.7571C104.497 91.657 104.353 91.4381 104.353 90.9376V89.4113C104.368 89.3257 104.363 89.2376 104.337 89.1546C104.311 89.0716 104.266 88.9961 104.204 88.9346C104.143 88.8731 104.067 88.8274 103.984 88.8015C103.901 88.7755 103.813 88.7701 103.727 88.7857H103.559V88.0162H103.965C104.146 87.9884 104.331 88.0024 104.505 88.0573C104.68 88.1122 104.839 88.2064 104.972 88.3328C105.104 88.4591 105.206 88.6141 105.269 88.7859C105.332 88.9578 105.354 89.1417 105.335 89.3237V90.9814C105.335 91.2504 105.472 91.3693 105.691 91.3693H105.967Z" fill="#263238"/>
<path d="M147.933 84.0752H134.737C133.907 84.0752 133.112 84.4047 132.525 84.9913C131.939 85.5779 131.609 86.3735 131.609 87.203V93.6213C131.609 94.4508 131.939 95.2464 132.525 95.833C133.112 96.4196 133.907 96.7491 134.737 96.7491H138.183L140.797 102.673L144.481 96.7491H147.933C148.763 96.7491 149.558 96.4196 150.144 95.833C150.731 95.2464 151.06 94.4508 151.06 93.6213V87.178C151.054 86.3528 150.721 85.5636 150.136 84.9824C149.55 84.4013 148.758 84.0752 147.933 84.0752Z" fill="white" stroke="#263238" stroke-linecap="round" stroke-linejoin="round"/>
<path d="M140.81 88.8233C140.801 88.7312 140.811 88.6383 140.84 88.5505C140.869 88.4626 140.916 88.3819 140.979 88.3134C141.041 88.2449 141.117 88.1901 141.201 88.1526C141.286 88.1152 141.377 88.0958 141.47 88.0958C141.562 88.0958 141.654 88.1152 141.738 88.1526C141.823 88.1901 141.898 88.2449 141.961 88.3134C142.023 88.3819 142.07 88.4626 142.099 88.5505C142.128 88.6383 142.138 88.7312 142.129 88.8233C142.138 88.9153 142.128 89.0082 142.099 89.0961C142.07 89.1839 142.023 89.2646 141.961 89.3331C141.898 89.4016 141.823 89.4564 141.738 89.4939C141.654 89.5313 141.562 89.5507 141.47 89.5507C141.377 89.5507 141.286 89.5313 141.201 89.4939C141.117 89.4564 141.041 89.4016 140.979 89.3331C140.916 89.2646 140.869 89.1839 140.84 89.0961C140.811 89.0082 140.801 88.9153 140.81 88.8233ZM142.129 91.8885C142.112 92.1279 142.049 92.3617 141.942 92.5766L141.529 93.7151H140.904L141.229 92.464C141.113 92.4149 141.014 92.3319 140.946 92.2259C140.878 92.1198 140.844 91.9957 140.847 91.8697C140.847 91.6964 140.916 91.5301 141.039 91.4075C141.161 91.2849 141.328 91.216 141.501 91.216C141.674 91.216 141.84 91.2849 141.963 91.4075C142.086 91.5301 142.154 91.6964 142.154 91.8697L142.129 91.8885Z" fill="#263238"/>
<path d="M96.3474 196.326H109.538C110.367 196.326 111.163 195.997 111.749 195.41C112.335 194.824 112.665 194.028 112.665 193.198V186.799C112.657 185.975 112.324 185.187 111.738 184.607C111.152 184.028 110.362 183.702 109.538 183.702H106.092L105.085 177.778L99.7935 183.702H96.3474C95.5234 183.702 94.7327 184.028 94.1471 184.607C93.5616 185.187 93.2285 185.975 93.2202 186.799V193.223C93.2268 194.049 93.5592 194.838 94.1449 195.419C94.7307 196 95.5223 196.326 96.3474 196.326Z" fill="white" stroke="#263238" stroke-linecap="round" stroke-linejoin="round"/>
<path d="M100.982 188.694L98.2112 189.733L100.982 190.771V191.609L97.2793 190.171V189.295L100.982 187.856V188.694Z" fill="#263238"/>
<path d="M103.909 185.773H104.804L102.133 193.349H101.257L103.909 185.773Z" fill="#263238"/>
<path d="M108.7 189.295V190.164L104.997 191.603V190.765L107.762 189.733L104.991 188.701V187.856L108.7 189.295Z" fill="#263238"/>
<path d="M12.4641 149.565H25.6544C26.4838 149.565 27.2792 149.236 27.8657 148.649C28.4521 148.063 28.7816 147.267 28.7816 146.438V140.044C28.7816 139.215 28.4521 138.419 27.8657 137.833C27.2792 137.246 26.4838 136.917 25.6544 136.917H22.2083L22.9588 130.992L15.9102 136.917H12.4641C11.6347 136.917 10.8393 137.246 10.2528 137.833C9.66638 138.419 9.33691 139.215 9.33691 140.044V146.463C9.34351 147.288 9.67589 148.077 10.2616 148.658C10.8474 149.239 11.639 149.565 12.4641 149.565Z" fill="white" stroke="#263238" stroke-linecap="round" stroke-linejoin="round"/>
<path d="M16.3735 145.493C16.3735 145.327 16.4394 145.168 16.5567 145.051C16.674 144.933 16.8331 144.867 16.999 144.867C17.1648 144.867 17.3239 144.933 17.4412 145.051C17.5585 145.168 17.6244 145.327 17.6244 145.493C17.6244 145.659 17.5585 145.818 17.4412 145.935C17.3239 146.053 17.1648 146.118 16.999 146.118C16.8331 146.118 16.674 146.053 16.5567 145.935C16.4394 145.818 16.3735 145.659 16.3735 145.493ZM16.4486 140.438H17.6369L17.4368 144.192H16.6237L16.4486 140.438Z" fill="#263238"/>
<path d="M18.6562 141.877H22.3588V142.684H18.6562V141.877ZM18.6562 143.823H22.3588V144.63H18.6562V143.823Z" fill="#263238"/>
</svg>
