<svg width="75" height="75" viewBox="0 0 75 75" fill="none" xmlns="http://www.w3.org/2000/svg">
<path d="M73.8401 36.9033C73.8401 42.6501 69.1893 47.301 63.4424 47.301V26.4761C69.1894 26.4759 73.8401 31.1416 73.8401 36.9033Z" fill="white"/>
<path d="M60.8163 5.08496C59.3658 5.08496 58.1899 6.26079 58.1899 7.71128V66.0662C58.1899 67.5167 59.3658 68.6926 60.8163 68.6926C62.2668 68.6926 63.4426 67.5167 63.4426 66.0662V7.71128C63.4426 6.26079 62.2668 5.08496 60.8163 5.08496Z" fill="white"/>
<path d="M58.1926 9.60498V64.1723C52.3497 53.5768 38.1842 47.3704 26.6978 46.8004V26.9771C38.1842 26.407 52.3497 20.2008 58.1926 9.60498Z" fill="#38BFF2"/>
<path d="M26.6945 26.9742V46.8055C26.6945 47.9808 25.7417 48.9335 24.5665 48.9335H8.07427C6.89902 48.9335 5.94629 47.9808 5.94629 46.8055V26.9742C5.94629 25.7989 6.89902 24.8462 8.07427 24.8462H24.5665C25.7417 24.846 26.6945 25.7989 26.6945 26.9742Z" fill="white"/>
<path d="M3.11582 29.5439H5.94604V44.2359H3.11582C2.03374 44.2359 1.15967 43.362 1.15967 42.2797V31.5001C1.15981 30.418 2.03374 29.5439 3.11582 29.5439Z" fill="#38BFF2"/>
<path d="M21.023 22.7841V24.8431H11.6211V22.7841C11.6211 21.6561 12.5356 20.7417 13.6635 20.7417H18.9808C20.1087 20.7417 21.023 21.6561 21.023 22.7841Z" fill="white"/>
<path d="M15.157 68.9089L21.2967 48.9336H11.3433V68.4903C11.3433 69.2773 11.9813 69.9154 12.7684 69.9154H13.7948C14.4205 69.9153 14.973 69.5072 15.157 68.9089Z" fill="#38BFF2"/>
<path d="M74.6136 36.9036C74.6136 30.9894 70.0146 26.1433 64.2163 25.742V7.71084C64.2163 5.83672 62.6911 4.31152 60.8162 4.31152C58.9421 4.31152 57.4169 5.83672 57.4169 7.71084V9.4001C51.7279 19.5071 38.1557 25.4136 27.3371 26.1611C26.9827 24.9591 25.8816 24.0733 24.5665 24.0733H21.7969V22.7836C21.7969 21.2312 20.5336 19.9679 18.9812 19.9679H13.6639C12.1115 19.9679 10.8482 21.2312 10.8482 22.7836V24.0733H8.07422C6.4749 24.0733 5.17324 25.3751 5.17324 26.9743V28.7706H3.11631C1.61147 28.7706 0.386719 29.9954 0.386719 31.5002V42.2797C0.386719 43.7845 1.61147 45.0085 3.11631 45.0085H5.1731V46.8056C5.1731 48.4049 6.4749 49.7066 8.07407 49.7066H10.5705V68.4906C10.5705 69.7024 11.5566 70.6886 12.7685 70.6886H13.7946C14.7664 70.6886 15.6105 70.0648 15.8959 69.1361L21.8684 49.7066H24.5665C25.8823 49.7066 26.9842 48.8198 27.3376 47.6165C38.1561 48.3642 51.7286 54.2709 57.4166 64.3767V66.066C57.4166 67.9401 58.9418 69.4653 60.8159 69.4653C62.6908 69.4653 64.216 67.9401 64.216 66.066V48.0349C70.0146 47.6349 74.6136 42.8018 74.6136 36.9036ZM12.3946 22.7836C12.3946 22.0837 12.964 21.5144 13.6639 21.5144H18.9812C19.6811 21.5144 20.2504 22.0837 20.2504 22.7836V24.0695H12.3946V22.7836ZM3.11631 43.4621C2.46387 43.4621 1.93315 42.9312 1.93315 42.2797V31.5002C1.93315 30.8478 2.46401 30.317 3.11631 30.317H5.1731V43.4621H3.11631ZM14.4176 68.6816V68.6823C14.3331 68.9571 14.083 69.1421 13.7946 69.1421H12.7685C12.409 69.1421 12.1169 68.8499 12.1169 68.4906V49.7066H20.2506L14.4176 68.6816ZM25.9211 46.8056C25.9211 47.5524 25.3134 48.1602 24.5666 48.1602C18.7397 48.1602 13.9042 48.1602 8.07422 48.1602C7.32744 48.1602 6.71968 47.5524 6.71968 46.8056C6.71968 41.8172 6.71968 31.9626 6.71968 26.9744C6.71968 26.2276 7.32744 25.6199 8.07422 25.6199H24.5666C25.3134 25.6199 25.9211 26.2276 25.9211 26.9744V46.8056ZM27.4712 46.0725V27.7052C37.9274 26.9713 50.873 21.5656 57.4168 12.2951V61.4817C50.8739 52.2121 37.9276 46.8055 27.4712 46.0725ZM62.6698 66.066C62.6698 67.0875 61.8385 67.9188 60.8161 67.9188C59.7945 67.9188 58.9632 67.0875 58.9632 66.066C58.967 -5.70361 58.9632 12.9408 58.9632 7.71084C58.9632 6.68926 59.7945 5.85796 60.8161 5.85796C61.8384 5.85796 62.6698 6.68926 62.6698 7.71084V66.066ZM64.2161 46.4968V27.2801C69.1626 27.6758 73.0671 31.8408 73.0671 36.9036C73.0671 41.9504 69.1626 46.1019 64.2161 46.4968Z" fill="#1A2E35"/>
<path d="M23.1041 27.9282H9.53682C9.10937 27.9282 8.76367 28.2741 8.76367 28.7014C8.76367 29.1287 9.10952 29.4745 9.53682 29.4745H23.1041C23.5315 29.4745 23.8772 29.1287 23.8772 28.7014C23.8772 28.2741 23.5313 27.9282 23.1041 27.9282Z" fill="#1A2E35"/>
<path d="M23.1041 32.0229H9.53682C9.10937 32.0229 8.76367 32.3688 8.76367 32.7961C8.76367 33.2234 9.10952 33.5692 9.53682 33.5692H23.1041C23.5315 33.5692 23.8772 33.2234 23.8772 32.7961C23.8772 32.3688 23.5313 32.0229 23.1041 32.0229Z" fill="#1A2E35"/>
<path d="M23.1041 36.1167H9.53682C9.10937 36.1167 8.76367 36.4625 8.76367 36.8898C8.76367 37.3171 9.10952 37.663 9.53682 37.663H23.1041C23.5315 37.663 23.8772 37.3171 23.8772 36.8898C23.8772 36.4625 23.5313 36.1167 23.1041 36.1167Z" fill="#1A2E35"/>
<path d="M23.1041 40.2109H9.53682C9.10937 40.2109 8.76367 40.5568 8.76367 40.9841C8.76367 41.4115 9.10952 41.7572 9.53682 41.7572H23.1041C23.5315 41.7572 23.8772 41.4114 23.8772 40.9841C23.8772 40.5568 23.5313 40.2109 23.1041 40.2109Z" fill="#1A2E35"/>
<path d="M23.1041 44.3047H9.53682C9.10937 44.3047 8.76367 44.6505 8.76367 45.0778C8.76367 45.5053 9.10952 45.851 9.53682 45.851H23.1041C23.5315 45.851 23.8772 45.5051 23.8772 45.0778C23.8772 44.6504 23.5313 44.3047 23.1041 44.3047Z" fill="#1A2E35"/>
</svg>
