<svg width="40" height="40" viewBox="0 0 40 40" fill="none" xmlns="http://www.w3.org/2000/svg">
<g clip-path="url(#clip0_64_4816)">
<path d="M39.3815 8.07007V37.5669C39.3815 38.5731 38.5691 39.3814 37.5629 39.3814H2.43717C1.431 39.3814 0.618652 38.5731 0.618652 37.5669V8.07007H39.3815Z" fill="white"/>
<path d="M39.3815 2.43711V8.07008H0.618652V2.43711C0.618652 1.43094 1.431 0.618591 2.43717 0.618591H37.5629C38.5691 0.618591 39.3815 1.43094 39.3815 2.43711Z" fill="#38BFF2"/>
<path d="M5.59832 4.34245C5.59832 4.86737 5.1723 5.29347 4.6473 5.29347C4.1223 5.29347 3.69629 4.86745 3.69629 4.34245C3.69629 3.81745 4.1223 3.39526 4.6473 3.39526C5.1723 3.39526 5.59832 3.81753 5.59832 4.34245Z" fill="#D7E9FF"/>
<path d="M9.61932 4.34245C9.61932 4.86737 9.1933 5.29347 8.6683 5.29347C8.1433 5.29347 7.71729 4.86745 7.71729 4.34245C7.71729 3.81745 8.1433 3.39526 8.6683 3.39526C9.1933 3.39526 9.61932 3.81753 9.61932 4.34245Z" fill="#D7E9FF"/>
<path d="M13.6408 4.34245C13.6408 4.86737 13.2148 5.29347 12.6898 5.29347C12.1648 5.29347 11.7388 4.86745 11.7388 4.34245C11.7388 3.81745 12.1648 3.39526 12.6898 3.39526C13.2148 3.39526 13.6408 3.81753 13.6408 4.34245Z" fill="#D7E9FF"/>
<path d="M36.3036 4.34184C36.3036 4.86707 35.8743 5.29129 35.3491 5.29129H25.2839C24.7587 5.29129 24.3345 4.86707 24.3345 4.34184C24.3345 3.8166 24.7587 3.39746 25.2839 3.39746H35.3492C35.8743 3.39746 36.3036 3.8166 36.3036 4.34184Z" fill="#D7E9FF"/>
<path d="M37.5627 0.206177H2.43707C1.20684 0.206177 0.206055 1.20688 0.206055 2.43719V37.567C0.206055 38.7949 1.20676 39.7938 2.43707 39.7938H37.5627C38.7929 39.7938 39.7937 38.7949 39.7937 37.567C39.7937 33.1532 39.7937 7.6711 39.7937 2.43719C39.7937 1.20688 38.793 0.206177 37.5627 0.206177ZM1.03082 2.43719C1.03082 1.6618 1.66184 1.03094 2.43707 1.03094H37.5627C38.3379 1.03094 38.9689 1.6618 38.9689 2.43719V7.65766H1.03082V2.43719ZM38.9689 37.567C38.9689 38.34 38.3379 38.9691 37.5627 38.9691H2.43707C1.66184 38.9691 1.03082 38.34 1.03082 37.567V8.48243H38.9689V37.567Z" fill="#1A2E35"/>
<path d="M5.58307 24.1462C6.38323 24.1462 7.03401 24.79 7.03401 25.5811V29.1787C7.03401 30.4333 8.04761 31.4541 9.29323 31.4541C9.5212 31.4541 9.70557 31.2695 9.70557 31.0418C9.70557 30.8141 9.52112 30.6295 9.29323 30.6295C8.50229 30.6295 7.85878 29.9787 7.85878 29.1787V25.5811C7.85878 24.8121 7.46979 24.1316 6.87698 23.7232C7.4605 23.3088 7.84268 22.6302 7.84268 21.8708V18.273C7.84268 17.473 8.4862 16.8222 9.27753 16.8222C9.5055 16.8222 9.68987 16.6376 9.68987 16.4098C9.68987 16.1821 9.50542 15.9975 9.27753 15.9975C8.03159 15.9975 7.01792 17.0184 7.01792 18.273V21.8708C7.01792 22.658 6.3712 23.3088 5.57667 23.3216C5.03479 23.3302 5.04221 24.1462 5.58307 24.1462Z" fill="#1A2E35"/>
<path d="M32.1412 25.5811V29.1787C32.1412 29.9787 31.4977 30.6295 30.7068 30.6295C30.4788 30.6295 30.2944 30.8141 30.2944 31.0418C30.2944 31.2695 30.4789 31.4542 30.7068 31.4542C31.9523 31.4542 32.966 30.4333 32.966 29.1787V25.5811C32.966 24.79 33.6168 24.1463 34.4169 24.1463C34.9584 24.1463 34.9645 23.3302 34.4233 23.3215C33.6288 23.3088 32.9821 22.6581 32.9821 21.8707V18.2729C32.9821 17.0183 31.9685 15.9974 30.7225 15.9974C30.4945 15.9974 30.3101 16.182 30.3101 16.4098C30.3101 16.6375 30.4946 16.8221 30.7225 16.8221C31.5138 16.8221 32.1573 17.4729 32.1573 18.2729V21.8707C32.1573 22.6303 32.5395 23.3088 33.123 23.7231C32.5303 24.1316 32.1412 24.8121 32.1412 25.5811Z" fill="#1A2E35"/>
<path d="M17.2311 30.8948C17.4435 30.9773 17.6821 30.8712 17.7643 30.6588L23.0043 17.0901C23.0865 16.8776 22.9806 16.6388 22.7683 16.5569C22.5569 16.4749 22.3173 16.5806 22.2351 16.7929L16.9951 30.3616C16.913 30.5741 17.0189 30.8129 17.2311 30.8948Z" fill="#1A2E35"/>
<path d="M28.275 23.7321L23.521 26.9449C23.3321 27.0726 23.2826 27.3289 23.4103 27.5176C23.5382 27.7075 23.7956 27.7549 23.9825 27.6283L29.241 24.0744C29.4843 23.9101 29.4815 23.5544 29.2418 23.3915L23.9833 19.8239C23.7957 19.6962 23.5387 19.7451 23.4107 19.9336C23.2826 20.1221 23.3318 20.3786 23.5202 20.5065L28.275 23.7321Z" fill="#1A2E35"/>
<path d="M10.7572 24.0734L15.9662 27.6273C16.1536 27.7556 16.411 27.7071 16.5393 27.5189C16.6677 27.3309 16.619 27.0743 16.4309 26.9459L11.7204 23.7321L16.4317 20.5053C16.6193 20.3767 16.6672 20.1199 16.5388 19.9321C16.41 19.7442 16.1542 19.6963 15.9654 19.8247L10.7564 23.3923C10.644 23.4692 10.5771 23.5969 10.5771 23.733C10.5771 23.8691 10.6449 23.9967 10.7572 24.0734Z" fill="#1A2E35"/>
<path d="M4.6473 2.98279C3.89582 2.98279 3.28418 3.59271 3.28418 4.34232C3.28418 5.09419 3.8959 5.70568 4.6473 5.70568C5.39918 5.70568 6.0109 5.09419 6.0109 4.34232C6.01082 3.59271 5.3991 2.98279 4.6473 2.98279ZM4.6473 4.88099C4.35051 4.88099 4.10887 4.63935 4.10887 4.3424C4.10887 4.0474 4.35051 3.80763 4.6473 3.80763C4.94449 3.80763 5.18613 4.04748 5.18613 4.3424C5.18605 4.63935 4.94449 4.88099 4.6473 4.88099Z" fill="#1A2E35"/>
<path d="M8.66877 2.98279C7.91689 2.98279 7.30518 3.59271 7.30518 4.34232C7.30518 5.09419 7.91689 5.70568 8.66877 5.70568C9.42025 5.70568 10.0319 5.09419 10.0319 4.34232C10.0319 3.59271 9.42018 2.98279 8.66877 2.98279ZM8.66877 4.88099C8.37158 4.88099 8.12994 4.63935 8.12994 4.3424C8.12994 4.0474 8.37158 3.80763 8.66877 3.80763C8.96557 3.80763 9.20721 4.04748 9.20721 4.3424C9.20721 4.63935 8.96557 4.88099 8.66877 4.88099Z" fill="#1A2E35"/>
<path d="M12.6898 2.98279C11.9379 2.98279 11.3262 3.59271 11.3262 4.34232C11.3262 5.09419 11.9379 5.70568 12.6898 5.70568C13.4412 5.70568 14.0529 5.09419 14.0529 4.34232C14.0529 3.59271 13.4412 2.98279 12.6898 2.98279ZM12.6898 4.88099C12.3926 4.88099 12.1509 4.63935 12.1509 4.3424C12.1509 4.0474 12.3926 3.80763 12.6898 3.80763C12.9866 3.80763 13.2282 4.04748 13.2282 4.3424C13.2282 4.63935 12.9866 4.88099 12.6898 4.88099Z" fill="#1A2E35"/>
<path d="M35.3491 2.98511H25.2838C24.5328 2.98511 23.9219 3.59378 23.9219 4.34183C23.9219 5.09284 24.5328 5.70378 25.2838 5.70378H35.3491C36.1025 5.70378 36.7159 5.09284 36.7159 4.34183C36.7159 3.59378 36.1025 2.98511 35.3491 2.98511ZM35.3491 4.87901H25.2838C24.9874 4.87901 24.7466 4.638 24.7466 4.34183C24.7466 4.04362 24.9827 3.80987 25.2838 3.80987H35.3491C35.6479 3.80987 35.8911 4.04847 35.8911 4.34183C35.8911 4.638 35.6479 4.87901 35.3491 4.87901Z" fill="#1A2E35"/>
</g>
<defs>
<clipPath id="clip0_64_4816">
<rect width="40" height="40" fill="white"/>
</clipPath>
</defs>
</svg>
