<svg width="42" height="37" viewBox="0 0 42 37" fill="none" xmlns="http://www.w3.org/2000/svg">
<path d="M6 0.5H26.0195C29.057 0.500162 31.5195 2.96253 31.5195 6V20.3271C31.5194 23.3645 29.0569 25.827 26.0195 25.8271H13.457C11.7816 25.8272 10.1304 26.2277 8.6416 26.9961L2.6875 30.0693C1.68924 30.5842 0.500026 29.8596 0.5 28.7363V6C0.500002 2.96244 2.96244 0.5 6 0.5Z" fill="white" stroke="#263238"/>
<path d="M33.5766 8.53845H34.5576C37.8713 8.53845 40.5576 11.2247 40.5576 14.5385V31.5607V33.4776C40.5576 35.03 38.8659 35.9905 37.5328 35.1951L33.8094 32.9733C32.26 32.0488 30.4894 31.5607 28.6852 31.5607H17.6856C15.7775 31.5607 14.2307 30.0139 14.2307 28.1058" stroke="#263238"/>
<rect x="6.61523" y="8.03845" width="19.5" height="2.42308" rx="1.21154" fill="#38BFF2" stroke="#263238"/>
<rect x="6.61523" y="13.0192" width="15.2308" height="2.42308" rx="1.21154" fill="#38BFF2" stroke="#263238"/>
</svg>
