<svg width="37" height="37" viewBox="0 0 37 37" fill="none" xmlns="http://www.w3.org/2000/svg">
<path d="M24.2141 2.47938V34.5206C24.2141 35.5739 23.3602 36.4278 22.3068 36.4278H5.08594C4.0326 36.4278 3.17871 35.5739 3.17871 34.5206V2.47938C3.17871 1.42603 4.0326 0.572144 5.08594 0.572144H22.3068C23.3602 0.572216 24.2141 1.42611 24.2141 2.47938Z" fill="white"/>
<path d="M19.0023 0.572144V2.09485C19.0023 2.93754 18.3192 3.6206 17.4766 3.6206H9.91637C9.07368 3.6206 8.39062 2.93747 8.39062 2.09485V0.572144H19.0023Z" fill="#38BFF2"/>
<path d="M33.8208 12.8051V24.9579C33.8208 25.8006 33.1376 26.4836 32.295 26.4836H13.6958V11.2793H32.295C33.1376 11.2793 33.8208 11.9624 33.8208 12.8051Z" fill="#38BFF2"/>
<path d="M13.6958 14.3976H33.8208V18.1782H13.6958V14.3976Z" fill="#D7E9FF"/>
<path d="M8.66755 33.7577C8.4569 33.7577 8.28613 33.9283 8.28613 34.1391C8.28613 34.35 8.4569 34.5205 8.66755 34.5205H18.725C18.9356 34.5205 19.1064 34.3499 19.1064 34.1391C19.1064 33.9282 18.9356 33.7577 18.725 33.7577H8.66755Z" fill="#1A2E35"/>
<path d="M16.463 2.47792H17.1441C17.3547 2.47792 17.5255 2.3073 17.5255 2.09651C17.5255 1.88571 17.3547 1.71509 17.1441 1.71509H16.463C16.2523 1.71509 16.0815 1.88571 16.0815 2.09651C16.0815 2.3073 16.2523 2.47792 16.463 2.47792Z" fill="#1A2E35"/>
<path d="M10.2486 2.47792H14.6755C14.8861 2.47792 15.0569 2.3073 15.0569 2.09651C15.0569 1.88571 14.8861 1.71509 14.6755 1.71509H10.2486C10.038 1.71509 9.86719 1.88571 9.86719 2.09651C9.86719 2.3073 10.038 2.47792 10.2486 2.47792Z" fill="#1A2E35"/>
<path d="M32.2951 10.8979H24.5955V2.47933C24.5955 1.21728 23.5689 0.190674 22.3068 0.190674C18.5563 0.190674 8.83891 0.190674 5.08602 0.190674C3.82397 0.190674 2.79736 1.21728 2.79736 2.47933V34.5205C2.79736 35.7826 3.82397 36.8092 5.08602 36.8092H22.3068C23.5688 36.8092 24.5954 35.7826 24.5954 34.5205V26.8649H32.295C33.3466 26.8649 34.2023 26.0093 34.2023 24.9577C34.2023 20.5228 34.2023 17.1726 34.2023 12.8051C34.2023 11.7535 33.3466 10.8979 32.2951 10.8979ZM33.4394 12.8051V14.0162H14.0774V11.6608H32.2951C32.9261 11.6608 33.4394 12.1741 33.4394 12.8051ZM33.4394 17.7967H14.0774V14.779H33.4394V17.7967ZM18.6207 0.953582V2.09495C18.6207 2.72597 18.1074 3.23927 17.4764 3.23927H9.91625C9.28523 3.23927 8.77192 2.72597 8.77192 2.09495V0.953582H18.6207ZM23.8326 34.5206C23.8326 35.3621 23.1481 36.0463 22.3068 36.0463H5.08594C4.24463 36.0463 3.5602 35.3621 3.5602 34.5206V2.47933C3.5602 1.63786 4.2447 0.953582 5.08594 0.953582H8.00894V2.09495C8.00894 3.14655 8.86457 4.00218 9.91618 4.00218H17.4763C18.5279 4.00218 19.3836 3.14655 19.3836 2.09495V0.953582H22.3068C23.1481 0.953582 23.8325 1.63786 23.8325 2.47933V10.8979H14.0774V9.17734C14.0774 8.96647 13.9066 8.79592 13.696 8.79592C13.4853 8.79592 13.3145 8.96654 13.3145 9.17734V28.5814C13.3145 28.7922 13.4853 28.9628 13.696 28.9628C13.9066 28.9628 14.0774 28.7922 14.0774 28.5814V26.8649H23.8325V34.5206H23.8326ZM32.2951 26.102H14.0774V21.4397H26.6884C26.899 21.4397 27.0698 21.2691 27.0698 21.0583C27.0698 20.8474 26.899 20.6769 26.6884 20.6769H14.0774V18.5596H33.4394V24.9577C33.4394 25.5887 32.9261 26.102 32.2951 26.102Z" fill="#1A2E35"/>
<path d="M26.6885 23.2218H25.5958C25.3851 23.2218 25.2144 23.3924 25.2144 23.6032C25.2144 23.8141 25.3851 23.9846 25.5958 23.9846H26.6885C26.8992 23.9846 27.0699 23.814 27.0699 23.6032C27.0699 23.3924 26.8992 23.2218 26.6885 23.2218Z" fill="#1A2E35"/>
<path d="M23.565 23.2218H22.4722C22.2616 23.2218 22.0908 23.3924 22.0908 23.6032C22.0908 23.8141 22.2616 23.9846 22.4722 23.9846H23.565C23.7756 23.9846 23.9464 23.814 23.9464 23.6032C23.9464 23.3924 23.7756 23.2218 23.565 23.2218Z" fill="#1A2E35"/>
<path d="M20.4409 23.2218H19.3482C19.1376 23.2218 18.9668 23.3924 18.9668 23.6032C18.9668 23.8141 19.1376 23.9846 19.3482 23.9846H20.4409C20.6516 23.9846 20.8224 23.814 20.8224 23.6032C20.8224 23.3924 20.6516 23.2218 20.4409 23.2218Z" fill="#1A2E35"/>
<path d="M17.3174 23.2218H16.2247C16.014 23.2218 15.8433 23.3924 15.8433 23.6032C15.8433 23.8141 16.014 23.9846 16.2247 23.9846H17.3174C17.5281 23.9846 17.6988 23.814 17.6988 23.6032C17.6989 23.3924 17.5281 23.2218 17.3174 23.2218Z" fill="#1A2E35"/>
</svg>
