<svg width="37" height="37" viewBox="0 0 37 37" fill="none" xmlns="http://www.w3.org/2000/svg">
<g clip-path="url(#clip0_64_4907)">
<path d="M31.3029 31.307C38.376 24.2339 38.376 12.7661 31.3029 5.69297C24.2298 -1.38016 12.762 -1.38015 5.68886 5.69297C-1.38426 12.7661 -1.38426 24.2339 5.68886 31.307C12.762 38.3802 24.2298 38.3802 31.3029 31.307Z" fill="#38BFF2"/>
<path d="M18.4996 32.7604C26.3754 32.7604 32.76 26.3758 32.76 18.5C32.76 10.6242 26.3754 4.23962 18.4996 4.23962C10.6239 4.23962 4.23926 10.6242 4.23926 18.5C4.23926 26.3758 10.6239 32.7604 18.4996 32.7604Z" fill="white"/>
<path d="M18.5 0C8.29906 0 0 8.29906 0 18.5C0 28.7009 8.29906 37 18.5 37C28.7009 37 37 28.7009 37 18.5C37 8.29906 28.7009 0 18.5 0ZM18.5 36.2291C8.7242 36.2291 0.770857 28.2758 0.770857 18.5C0.770857 8.7242 8.7242 0.770857 18.5 0.770857C28.2758 0.770857 36.2291 8.7242 36.2291 18.5C36.2291 28.2758 28.2758 36.2291 18.5 36.2291Z" fill="#1A2E35"/>
<path d="M18.4999 3.85413C10.4242 3.85413 3.854 10.4243 3.854 18.5C3.854 26.5757 10.4242 33.1458 18.4999 33.1458C26.5755 33.1458 33.1457 26.5757 33.1457 18.5C33.1457 10.4243 26.5755 3.85413 18.4999 3.85413ZM18.4999 32.375C10.8491 32.375 4.62486 26.1507 4.62486 18.5C4.62486 10.8492 10.8491 4.62498 18.4999 4.62498C26.1506 4.62498 32.3749 10.8492 32.3749 18.5C32.3749 26.1507 26.1506 32.375 18.4999 32.375Z" fill="#1A2E35"/>
<path d="M20.0433 10.1686H14.9175C14.911 10.1682 14.9055 10.1648 14.8988 10.1648C14.686 10.1648 14.5134 10.3374 14.5134 10.5502V10.5539V17.9239H13.0792C12.8664 17.9239 12.6938 18.0965 12.6938 18.3093C12.6938 18.5221 12.8664 18.6947 13.0792 18.6947H14.5134V20.3261H13.0792C12.8664 20.3261 12.6938 20.4987 12.6938 20.7115C12.6938 20.9243 12.8664 21.0969 13.0792 21.0969H14.5134V26.4496C14.5134 26.6625 14.686 26.835 14.8988 26.835C15.1116 26.835 15.2842 26.6625 15.2842 26.4496V21.0969H22.2392C22.452 21.0969 22.6246 20.9243 22.6246 20.7115C22.6246 20.4987 22.452 20.3261 22.2392 20.3261H15.2843V18.6947H15.934H19.7734C22.1371 18.6947 24.1225 16.9727 24.2932 14.7745C24.2932 14.7743 24.2932 14.7743 24.2932 14.7743C24.4914 12.219 22.4741 10.1686 20.0433 10.1686ZM23.5247 14.7149V14.7146C23.385 16.5143 21.7372 17.9239 19.7734 17.9239H15.934H15.2843V10.9393H20.0433C22.0338 10.9394 23.6875 12.6163 23.5247 14.7149Z" fill="#1A2E35"/>
</g>
<defs>
<clipPath id="clip0_64_4907">
<rect width="37" height="37" fill="white"/>
</clipPath>
</defs>
</svg>
