<svg width="43" height="38" viewBox="0 0 43 38" fill="none" xmlns="http://www.w3.org/2000/svg">
<path d="M42.5518 2.27169V24.356H0.447754V2.27169C0.447754 1.26767 1.2495 0.454468 2.23939 0.454468H40.7602C41.7501 0.454382 42.5518 1.26767 42.5518 2.27169Z" fill="white"/>
<path d="M0.447754 24.3566V28.4159C0.447754 29.4196 1.24993 30.2331 2.23939 30.2331H40.7602C41.7497 30.2331 42.5518 29.4195 42.5518 28.4159V24.3566H0.447754Z" fill="#38BFF2"/>
<path d="M16.8013 30.2332H26.1984V34.5095H16.8013V30.2332Z" fill="#D7E9FF"/>
<path d="M29.9652 35.0385L31.0852 36.1687C31.3684 36.4546 31.1688 36.9451 30.7692 36.9451H12.2301C11.8305 36.9451 11.6309 36.4546 11.9141 36.1687L13.0341 35.0385C13.3698 34.6997 13.8241 34.5095 14.2977 34.5095H28.7015C29.1752 34.5095 29.6295 34.6997 29.9652 35.0385Z" fill="#38BFF2"/>
<path d="M21.5002 28.1988C21.9925 28.1988 22.3916 27.794 22.3916 27.2947C22.3916 26.7954 21.9925 26.3906 21.5002 26.3906C21.008 26.3906 20.6089 26.7954 20.6089 27.2947C20.6089 27.794 21.008 28.1988 21.5002 28.1988Z" fill="#D7E9FF"/>
<path d="M43 2.2716C43 1.01909 41.9953 0 40.7604 0H2.2396C1.00473 0 0 1.01909 0 2.2716V28.4161C0 29.6686 1.00473 30.6877 2.2396 30.6877H16.3534V34.0551H14.2979C13.7017 34.0551 13.1409 34.2903 12.7189 34.7167L11.5986 35.8467C11.0334 36.4171 11.4322 37.3995 12.2302 37.3995H30.7698C31.5674 37.3995 31.967 36.4175 31.4014 35.8467L30.2811 34.7167C29.8591 34.2898 29.2983 34.0551 28.7021 34.0551H26.6466V30.6877H40.7604C41.9953 30.6877 43 29.6686 43 28.4161C43 19.1291 43 12.2269 43 2.2716ZM0.895858 2.2716C0.895858 1.52002 1.49861 0.908656 2.2396 0.908656H40.7604C41.5014 0.908656 42.1041 1.52002 42.1041 2.2716V23.9017H0.895858V2.2716ZM29.6491 35.3603C29.6495 35.3607 29.6495 35.3607 29.6495 35.3607L30.7698 36.4908H12.2302L13.3509 35.3603C13.6042 35.1048 13.9405 34.9637 14.2979 34.9637H28.7021C29.0594 34.9637 29.3958 35.1048 29.6491 35.3603ZM25.7508 34.055H17.2492V30.6876H25.7508V34.055ZM42.1041 28.4161C42.1041 29.1676 41.5014 29.779 40.7604 29.779C27.9128 29.779 15.0566 29.779 2.2396 29.779C1.49861 29.779 0.895858 29.1676 0.895858 28.4161V24.8108H42.1041V28.4161Z" fill="#1A2E35"/>
<path d="M21.5001 28.6534C22.2384 28.6534 22.8395 28.0439 22.8395 27.2949C22.8395 26.546 22.2385 25.9364 21.5001 25.9364C20.7617 25.9364 20.1606 26.546 20.1606 27.2949C20.1606 28.0439 20.7617 28.6534 21.5001 28.6534ZM21.5001 26.8451C21.7445 26.8451 21.9436 27.0469 21.9436 27.2949C21.9436 27.5429 21.7446 27.7448 21.5001 27.7448C21.2555 27.7448 21.0565 27.543 21.0565 27.2949C21.0565 27.0469 21.2556 26.8451 21.5001 26.8451Z" fill="#1A2E35"/>
<path d="M34.5754 5.35498H4.56849C4.32087 5.35498 4.12061 5.5582 4.12061 5.80927C4.12061 6.06034 4.32096 6.26355 4.56849 6.26355H34.5754C34.823 6.26355 35.0233 6.06034 35.0233 5.80927C35.0233 5.5582 34.8229 5.35498 34.5754 5.35498Z" fill="#1A2E35"/>
<path d="M34.5754 8.45837H4.56849C4.32087 8.45837 4.12061 8.66159 4.12061 8.91266C4.12061 9.16373 4.32096 9.36694 4.56849 9.36694H34.5754C34.823 9.36694 35.0233 9.16373 35.0233 8.91266C35.0233 8.66159 34.8229 8.45837 34.5754 8.45837Z" fill="#1A2E35"/>
<path d="M28.3686 11.5619H4.56849C4.32087 11.5619 4.12061 11.7651 4.12061 12.0162C4.12061 12.2672 4.32096 12.4705 4.56849 12.4705H28.3686C28.6162 12.4705 28.8165 12.2672 28.8165 12.0162C28.8165 11.7651 28.6161 11.5619 28.3686 11.5619Z" fill="#1A2E35"/>
<path d="M22.1617 14.6653H4.56849C4.32087 14.6653 4.12061 14.8685 4.12061 15.1196C4.12061 15.3706 4.32096 15.5739 4.56849 15.5739H22.1617C22.4093 15.5739 22.6096 15.3706 22.6096 15.1196C22.6096 14.8685 22.4093 14.6653 22.1617 14.6653Z" fill="#1A2E35"/>
<path d="M15.9549 17.7687H4.56849C4.32087 17.7687 4.12061 17.9719 4.12061 18.223C4.12061 18.474 4.32096 18.6772 4.56849 18.6772H15.9549C16.2025 18.6772 16.4028 18.474 16.4028 18.223C16.4028 17.9719 16.2024 17.7687 15.9549 17.7687Z" fill="#1A2E35"/>
</svg>
