<svg width="38" height="38" viewBox="0 0 38 38" fill="none" xmlns="http://www.w3.org/2000/svg">
<g clip-path="url(#clip0_64_4842)">
<circle cx="19" cy="19" r="5.47458" fill="#38BFF2"/>
<ellipse cx="26.7289" cy="3.54235" rx="2.8983" ry="2.89831" fill="#38BFF2"/>
<ellipse cx="3.54235" cy="11.2712" rx="2.89831" ry="2.8983" fill="#38BFF2"/>
<circle cx="11.2714" cy="34.4576" r="2.8983" fill="#38BFF2"/>
<ellipse cx="34.4574" cy="26.7289" rx="2.8983" ry="2.8983" fill="#38BFF2"/>
<path d="M13.3516 17.4869C12.5174 20.6011 14.3722 23.8136 17.4868 24.6485C17.9917 24.7835 18.4988 24.848 18.9983 24.848C21.5799 24.848 23.949 23.1229 24.6483 20.5132C25.0525 19.0047 24.8449 17.429 24.0639 16.0764C23.2829 14.7238 22.0219 13.7562 20.5135 13.352C19.004 12.9474 17.4286 13.1554 16.0763 13.9361C14.7237 14.717 13.7561 15.9781 13.3516 17.4869ZM19.001 14.1794C19.4126 14.1794 19.8315 14.2325 20.2474 14.3442H20.2478C21.4914 14.6772 22.5309 15.4749 23.1744 16.5899C23.8184 17.7048 23.9895 19.004 23.6562 20.2474C22.9682 22.8147 20.3196 24.3455 17.7527 23.6561C15.1851 22.9681 13.6559 20.3199 14.3439 17.7526C14.9203 15.6013 16.8727 14.1794 19.001 14.1794ZM8.8416 16.7146C8.85429 16.7157 8.86668 16.716 8.87908 16.716C9.14589 16.716 9.37122 16.5093 9.39059 16.2392C10.0356 7.23302 16.7866 3.3821 23.3637 3.48081C23.387 4.00784 23.5351 4.52552 23.8066 4.99547C24.2512 5.76579 24.9693 6.31671 25.8286 6.54709C26.1154 6.62398 26.4063 6.66176 26.6954 6.66176C27.2725 6.66176 27.8422 6.51027 28.3553 6.21407C28.9495 5.87103 29.4113 5.36419 29.698 4.75648C32.0963 5.68303 34.3351 7.06469 36.3553 8.8806C36.4536 8.96885 36.5763 9.01234 36.6984 9.01234C36.8391 9.01234 36.9792 8.95482 37.0805 8.84215C37.2701 8.63122 37.253 8.30659 37.0421 8.11704C34.9063 6.19714 32.5336 4.73949 29.9883 3.76789C30.2056 2.13567 29.1842 0.551174 27.5519 0.113655C25.7817 -0.360084 23.9568 0.690557 23.477 2.45771C15.1479 2.27223 8.96168 7.85104 8.36608 16.1656C8.34581 16.4485 8.55875 16.6942 8.8416 16.7146ZM24.4658 2.7341C24.741 1.70639 25.674 1.02707 26.6908 1.02707C26.8877 1.02707 27.0876 1.05245 27.2865 1.10596C28.5128 1.4346 29.2433 2.69966 28.9147 3.92664C28.586 5.15326 27.3196 5.88409 26.094 5.55478C24.8677 5.22614 24.1372 3.96108 24.4658 2.7341ZM2.45774 14.5229C2.27197 22.8509 7.85085 29.038 16.1656 29.6339C16.1783 29.6348 16.1907 29.6352 16.2031 29.6352C16.4699 29.6352 16.6952 29.4286 16.7146 29.1584C16.735 28.8756 16.522 28.6298 16.2392 28.6094C7.23097 27.964 3.37716 21.2083 3.4807 14.6316C4.00765 14.6083 4.52562 14.4647 4.9955 14.1935C5.76582 13.7488 6.31675 13.0307 6.54712 12.1715C6.77713 11.3126 6.65912 10.4149 6.2141 9.64461C5.87106 9.05041 5.36422 8.5887 4.75652 8.30199C5.68299 5.90368 7.0648 3.6648 8.88063 1.64457C9.07019 1.43364 9.05312 1.109 8.84219 0.919448C8.63059 0.729225 8.30596 0.74726 8.11707 0.957893C6.19725 3.09376 4.73952 5.46646 3.768 8.01172C2.13578 7.79456 0.550985 8.81581 0.113762 10.448C-0.360347 12.2178 0.690962 14.0428 2.45774 14.5229ZM1.10599 10.7134C1.38112 9.68572 2.3142 9.0064 3.33092 9.0064C3.52783 9.0064 3.72777 9.03178 3.92668 9.08529C5.153 9.41394 5.88346 10.679 5.55482 11.906C5.22618 13.1326 3.95941 13.8631 2.73413 13.5341C1.50789 13.2055 0.777352 11.9404 1.10599 10.7134ZM29.1584 21.2854C28.8709 21.2614 28.6298 21.4783 28.6095 21.7609C27.9645 30.7671 21.2155 34.6226 14.6364 34.5195C14.6132 33.9923 14.465 33.4746 14.1935 33.0045C13.7489 32.2342 13.0307 31.6833 12.1715 31.4529C11.3123 31.2229 10.4153 31.3412 9.64464 31.7859C9.05045 32.129 8.58866 32.6358 8.30202 33.2435C5.90379 32.317 3.66491 30.9353 1.64467 29.1194C1.43308 28.9292 1.10844 28.9472 0.919556 29.1578C0.730001 29.3688 0.747071 29.6934 0.958001 29.883C3.0938 31.8028 5.4665 33.2605 8.01175 34.2321C7.79444 35.8643 8.81592 37.4488 10.4481 37.8863C10.7357 37.9632 11.0245 38 11.309 38C12.7759 38 14.1216 37.0219 14.5233 35.5417C14.6576 35.5447 14.7931 35.5511 14.9264 35.5511C23.0504 35.5511 29.0478 30.0147 29.6339 21.8344C29.6542 21.5516 29.4412 21.3059 29.1584 21.2854ZM13.5342 35.266C13.2055 36.4926 11.9384 37.2234 10.7135 36.8941C9.48715 36.5655 8.75669 35.3004 9.08533 34.0734C9.36046 33.0457 10.2935 32.3664 11.3103 32.3664C11.5072 32.3664 11.7071 32.3918 11.906 32.4453C13.1323 32.7738 13.8628 34.039 13.5342 35.266ZM35.5423 23.4771C35.728 15.1492 30.1492 8.96209 21.8344 8.36611C21.5522 8.34474 21.3058 8.55901 21.2855 8.84156C21.2651 9.12441 21.4781 9.37015 21.7609 9.39056C30.7669 10.0359 34.621 16.7884 34.5194 23.3636C33.9921 23.3869 33.4746 23.5352 33.0045 23.8067C32.2342 24.2513 31.6832 24.9694 31.4529 25.8287C31.2229 26.6875 31.3409 27.5852 31.7859 28.3555C32.1289 28.9497 32.6358 29.4114 33.2435 29.6981C32.317 32.0965 30.9352 34.3353 29.1194 36.3556C28.9298 36.5665 28.9469 36.8911 29.1578 37.0807C29.2561 37.1689 29.3788 37.2124 29.5008 37.2124C29.6416 37.2124 29.7817 37.1549 29.883 37.0422C31.8021 34.9071 33.2595 32.5353 34.2311 29.9911C34.3776 30.0107 34.5238 30.0208 34.6688 30.0208C36.1392 30.0208 37.4882 29.0382 37.8864 27.5521C38.3603 25.7822 37.309 23.9573 35.5423 23.4771ZM36.894 27.2866C36.5654 28.5132 35.2986 29.2441 34.0733 28.9148C32.847 28.5861 32.1165 27.3211 32.4452 26.0941C32.7203 25.0664 33.6534 24.3871 34.6701 24.3871C34.867 24.3871 35.067 24.4124 35.2659 24.4659C36.4921 24.7945 37.2226 26.0596 36.894 27.2866Z" fill="#1A2E35"/>
</g>
<defs>
<clipPath id="clip0_64_4842">
<rect width="38" height="38" fill="white"/>
</clipPath>
</defs>
</svg>
