<svg width="44" height="44" viewBox="0 0 44 44" fill="none" xmlns="http://www.w3.org/2000/svg">
<path d="M39.1962 6.60367V38.7423C39.1962 39.586 38.5132 40.2691 37.6695 40.2691H6.76832C5.92459 40.2691 5.24156 39.586 5.24156 38.7423V36.7414C4.41793 36.7414 3.67062 36.404 3.13222 35.8656C2.58583 35.3272 2.25635 34.5758 2.25635 33.7522H5.24156V6.60367C5.24156 5.75994 5.92459 5.0769 6.76832 5.0769H37.6695C38.5133 5.0769 39.1962 5.75994 39.1962 6.60367Z" fill="white"/>
<path d="M5.35877 36.3845C3.77929 36.3845 3.00835 34.5042 2.82031 33.564L33.5639 33.282C34.1445 35.6043 35.4581 36.2944 36.2948 36.3845H36.6665C36.5594 36.3979 36.4337 36.3995 36.2948 36.3845H5.35877Z" fill="#38BFF2"/>
<path d="M11.8301 16.9231C10.4984 16.9231 9.41504 18.0041 9.41504 19.3326C9.41504 20.6615 10.4984 21.7426 11.8301 21.7426C13.1586 21.7426 14.2396 20.6615 14.2396 19.3326C14.2396 18.0041 13.1586 16.9231 11.8301 16.9231Z" fill="#38BFF2"/>
<path d="M11.8301 16.9231C10.4984 16.9231 9.41504 18.0041 9.41504 19.3326C9.41504 20.6615 10.4984 21.7425 11.8301 21.7425C13.1586 21.7425 14.2396 20.6615 14.2396 19.3326C14.2396 18.0041 13.1586 16.9231 11.8301 16.9231ZM11.8301 20.9389C10.9415 20.9389 10.2186 20.2182 10.2186 19.3326C10.2186 18.447 10.9415 17.7266 11.8301 17.7266C12.7156 17.7266 13.4361 18.447 13.4361 19.3326C13.4361 20.2182 12.7156 20.9389 11.8301 20.9389Z" fill="#1A2E35"/>
<path d="M18.9663 16.9231C17.6346 16.9231 16.5513 18.0041 16.5513 19.3326C16.5513 20.6615 17.6346 21.7425 18.9663 21.7425C20.2951 21.7425 21.376 20.6615 21.376 19.3326C21.3761 18.0041 20.2951 16.9231 18.9663 16.9231Z" fill="#38BFF2"/>
<path d="M18.9663 16.9231C17.6346 16.9231 16.5513 18.0041 16.5513 19.3326C16.5513 20.6615 17.6346 21.7425 18.9663 21.7425C20.2951 21.7425 21.376 20.6615 21.376 19.3326C21.3761 18.0041 20.2951 16.9231 18.9663 16.9231ZM18.9663 20.9389C18.0778 20.9389 17.3549 20.2182 17.3549 19.3326C17.3549 18.447 18.0778 17.7266 18.9663 17.7266C19.8519 17.7266 20.5725 18.447 20.5725 19.3326C20.5725 20.2182 19.8519 20.9389 18.9663 20.9389Z" fill="#1A2E35"/>
<path d="M26.1025 16.9713C24.7708 16.9713 23.6875 18.0523 23.6875 19.3808C23.6875 20.7098 24.7708 21.7908 26.1025 21.7908C27.4313 21.7908 28.5122 20.7098 28.5122 19.3808C28.5122 18.0523 27.4313 16.9713 26.1025 16.9713Z" fill="#38BFF2"/>
<path d="M26.1025 16.9231C24.7708 16.9231 23.6875 18.0041 23.6875 19.3326C23.6875 20.6615 24.7708 21.7425 26.1025 21.7425C27.4313 21.7425 28.5122 20.6615 28.5122 19.3326C28.5122 18.0041 27.4313 16.9231 26.1025 16.9231ZM26.1025 20.9389C25.214 20.9389 24.4911 20.2182 24.4911 19.3326C24.4911 18.447 25.214 17.7266 26.1025 17.7266C26.9881 17.7266 27.7087 18.447 27.7087 19.3326C27.7086 20.2182 26.9881 20.9389 26.1025 20.9389Z" fill="#1A2E35"/>
<path d="M33.2387 21.7425C34.5675 21.7425 35.6484 20.6615 35.6484 19.3326C35.6484 18.004 34.5674 16.9231 33.2387 16.9231C31.9071 16.9231 30.8237 18.0041 30.8237 19.3326C30.8237 20.6615 31.9071 21.7425 33.2387 21.7425Z" fill="#38BFF2"/>
<path d="M33.2387 21.7425C34.5675 21.7425 35.6484 20.6615 35.6484 19.3326C35.6484 18.004 34.5674 16.9231 33.2387 16.9231C31.9071 16.9231 30.8237 18.0041 30.8237 19.3326C30.8237 20.6615 31.9071 21.7425 33.2387 21.7425ZM33.2387 17.7267C34.1243 17.7267 34.8449 18.4471 34.8449 19.3327C34.8449 20.2183 34.1243 20.939 33.2387 20.939C32.3502 20.939 31.6273 20.2183 31.6273 19.3327C31.6273 18.447 32.3502 17.7267 33.2387 17.7267Z" fill="#1A2E35"/>
<path d="M11.8301 23.6923C10.4984 23.6923 9.41504 24.7733 9.41504 26.1022C9.41504 27.4308 10.4984 28.5117 11.8301 28.5117C13.1586 28.5117 14.2396 27.4307 14.2396 26.1022C14.2396 24.7733 13.1586 23.6923 11.8301 23.6923Z" fill="#38BFF2"/>
<path d="M11.8301 23.6923C10.4984 23.6923 9.41504 24.7733 9.41504 26.1022C9.41504 27.4308 10.4984 28.5117 11.8301 28.5117C13.1586 28.5117 14.2396 27.4307 14.2396 26.1022C14.2396 24.7733 13.1586 23.6923 11.8301 23.6923ZM11.8301 27.7081C10.9415 27.7081 10.2186 26.9877 10.2186 26.1021C10.2186 25.2165 10.9415 24.4958 11.8301 24.4958C12.7156 24.4958 13.4361 25.2165 13.4361 26.1021C13.4361 26.9877 12.7156 27.7081 11.8301 27.7081Z" fill="#1A2E35"/>
<path d="M18.9663 23.6923C17.6346 23.6923 16.5513 24.7733 16.5513 26.1022C16.5513 27.4308 17.6346 28.5117 18.9663 28.5117C20.2951 28.5117 21.376 27.4307 21.376 26.1022C21.3761 24.7733 20.2951 23.6923 18.9663 23.6923Z" fill="#38BFF2"/>
<path d="M18.9663 23.6923C17.6346 23.6923 16.5513 24.7733 16.5513 26.1022C16.5513 27.4308 17.6346 28.5117 18.9663 28.5117C20.2951 28.5117 21.376 27.4307 21.376 26.1022C21.3761 24.7733 20.2951 23.6923 18.9663 23.6923ZM18.9663 27.7081C18.0778 27.7081 17.3549 26.9877 17.3549 26.1021C17.3549 25.2165 18.0778 24.4958 18.9663 24.4958C19.8519 24.4958 20.5725 25.2165 20.5725 26.1021C20.5725 26.9877 19.8519 27.7081 18.9663 27.7081Z" fill="#1A2E35"/>
<path d="M26.1025 23.6923C24.7708 23.6923 23.6875 24.7733 23.6875 26.1022C23.6875 27.4308 24.7708 28.5117 26.1025 28.5117C27.4313 28.5117 28.5122 27.4307 28.5122 26.1022C28.5122 24.7733 27.4313 23.6923 26.1025 23.6923ZM26.1025 27.7081C25.214 27.7081 24.4911 26.9877 24.4911 26.1021C24.4911 25.2165 25.214 24.4958 26.1025 24.4958C26.9881 24.4958 27.7087 25.2165 27.7087 26.1021C27.7087 26.9877 26.9881 27.7081 26.1025 27.7081Z" fill="#1A2E35"/>
<path d="M35.6484 26.1022C35.6484 24.7733 34.5674 23.6923 33.2387 23.6923C31.9071 23.6923 30.8237 24.7733 30.8237 26.1022C30.8237 27.4308 31.9071 28.5117 33.2387 28.5117C34.5675 28.5117 35.6484 27.4307 35.6484 26.1022ZM33.2387 27.7081C32.3502 27.7081 31.6273 26.9877 31.6273 26.1021C31.6273 25.2165 32.3502 24.4958 33.2387 24.4958C34.1243 24.4958 34.8449 25.2165 34.8449 26.1021C34.8449 26.9877 34.1243 27.7081 33.2387 27.7081Z" fill="#1A2E35"/>
<path d="M37.9818 4.32815H34.7571V2.15444C34.7571 1.93238 34.5773 1.75269 34.3554 1.75269C34.1335 1.75269 33.9536 1.93238 33.9536 2.15444V4.32815H10.1505V2.15444C10.1505 1.93238 9.9706 1.75269 9.74871 1.75269C9.52682 1.75269 9.34695 1.93238 9.34695 2.15444V4.32815H7.08164C6.01834 4.32815 5.15338 5.19328 5.15338 6.25667C5.1532 9.79068 5.15217 32.8541 5.15217 33.0047H2.56777C2.34588 33.0047 2.16602 33.1844 2.16602 33.4065C2.16602 35.1904 3.513 36.5756 5.15209 36.7691V38.3954C5.15209 39.4587 6.01722 40.3239 7.08061 40.3239H37.9818C39.0451 40.3239 39.9104 39.4588 39.9104 38.3954C39.9104 31.3094 39.9104 12.9831 39.9104 6.25667C39.9103 5.19328 39.0452 4.32815 37.9818 4.32815ZM7.08155 5.13175H9.34687V8.32012C9.34687 8.54218 9.52673 8.72187 9.74863 8.72187C9.97052 8.72187 10.1504 8.54218 10.1504 8.32012V5.13175H33.9535V8.32012C33.9535 8.54218 34.1334 8.72187 34.3553 8.72187C34.5772 8.72187 34.757 8.54218 34.757 8.32012V5.13175H37.9817C38.602 5.13175 39.1066 5.63637 39.1066 6.25667V11.5081H5.9568V6.25658C5.9568 5.63629 6.46143 5.13175 7.08155 5.13175ZM5.95569 12.312H39.1068V33.4053C39.1068 34.8314 37.9486 35.9916 36.5248 35.9924C36.5235 35.9924 36.5225 35.9917 36.5213 35.9917C35.0936 35.9917 33.9359 34.8347 33.9359 33.4064C33.9359 33.1843 33.756 33.0046 33.5341 33.0046H5.95569V12.312ZM3.00012 33.8082H33.1559C33.2565 34.6639 33.6764 35.4356 34.3306 35.9917H5.55505C4.25404 35.9917 3.18833 35.0334 3.00012 33.8082ZM39.1067 38.3954C39.1067 39.0157 38.6021 39.5203 37.9818 39.5203H7.08061C6.46031 39.5203 5.95569 39.0158 5.95569 38.3954V36.7961H36.5232C37.5583 36.7961 38.485 36.3277 39.1068 35.593V38.3954H39.1067Z" fill="#1A2E35"/>
</svg>
