<svg width="40" height="15" viewBox="0 0 40 15" fill="none" xmlns="http://www.w3.org/2000/svg">
<path fill-rule="evenodd" clip-rule="evenodd" d="M14.6226 5.90411V12.8268C14.693 13.4465 15.2818 14.686 17.0734 14.686H19.651V13.2916H17.0734C16.7072 13.2916 15.9748 13.0888 15.9748 12.2775V5.90411H19.017V4.38292H15.9748V1.84042H14.6226V4.38292H12.7632V5.90411H14.6226Z" fill="black"/>
<path fill-rule="evenodd" clip-rule="evenodd" d="M34.9717 5.90411V12.8268C35.0421 13.4465 35.6309 14.686 37.4225 14.686H40.0001V13.2916H37.4225C37.0563 13.2916 36.3239 13.0888 36.3239 12.2775V5.90411H39.3661V4.38292H36.3239V1.84042H34.9717V4.38292H33.1123V5.90411H34.9717Z" fill="black"/>
<path fill-rule="evenodd" clip-rule="evenodd" d="M0 0H1.72309L5.70404 6.95179L9.76327 0H11.5269L6.47646 8.67489L6.47741 8.67488V14.686H4.75721V8.67488L4.75337 8.67489L0 0Z" fill="#38BFF2"/>
<path fill-rule="evenodd" clip-rule="evenodd" d="M20.3491 0H22.0722L26.0532 6.95179L30.1124 0H31.876L26.8256 8.67489L26.8265 8.67488V14.686H25.1063V8.67488L25.1025 8.67489L20.3491 0Z" fill="#F15525"/>
</svg>
