<svg width="408" height="355" viewBox="0 0 408 355" fill="none" xmlns="http://www.w3.org/2000/svg">
<path d="M319.09 231.093C312.636 236.458 314.775 267.769 294.819 254.285C274.862 240.801 308.901 232.803 306.955 225.16C304.229 214.459 259.221 227.317 266.772 206.821C274.323 186.325 301.23 217.149 308.303 209.519C314.801 202.509 282.413 177.157 297.516 172.842C312.618 168.526 309.366 205.207 319.09 205.204C326.656 205.201 325.248 170.145 339.159 182.55C353.071 194.955 322.661 207.177 326.642 214.876C329.666 220.727 353.609 206.282 352.531 219.766C351.452 233.25 325.878 225.45 319.09 231.093Z" fill="#38BFF2"/>
<path d="M314.776 215.058C314.776 215.058 329.339 232.711 327.721 280.715" stroke="#1A2E35" stroke-width="1.33333" stroke-miterlimit="10" stroke-linecap="round" stroke-linejoin="round"/>
<path d="M286.405 240.035C288.985 234.842 310.376 231.298 298.135 220.026C285.895 208.755 285.935 232.912 280.485 232.819C272.858 232.69 274.342 200.384 261.764 208.723C249.185 217.06 274.189 230.245 270.184 236.215C266.505 241.698 244.308 223.958 243.811 234.798C243.312 245.638 267.455 237.616 269 244.154C270.202 249.241 246.41 253.871 256.963 261.249C267.517 268.628 270.896 246.239 276.704 247.691C281.119 248.794 275.217 267.189 284.11 264.318C293.004 261.448 283.691 245.495 286.405 240.035Z" fill="#38BFF2"/>
<g opacity="0.300003">
<g opacity="0.300003">
<path opacity="0.300003" d="M286.404 240.035C288.985 234.842 310.375 231.298 298.135 220.026C285.895 208.755 285.934 232.911 280.485 232.819C272.857 232.69 274.341 200.384 261.763 208.723C249.185 217.06 274.189 230.245 270.184 236.215C266.504 241.698 244.308 223.958 243.81 234.798C243.311 245.638 267.454 237.616 268.999 244.154C270.201 249.241 246.409 253.871 256.963 261.249C267.516 268.628 270.895 246.239 276.704 247.691C281.118 248.794 275.217 267.189 284.11 264.318C293.003 261.448 283.691 245.495 286.404 240.035Z" fill="black"/>
</g>
</g>
<path d="M275.402 240.262C275.402 240.262 316.846 235.947 320.935 280.714" stroke="#1A2E35" stroke-width="1.33333" stroke-miterlimit="10" stroke-linecap="round" stroke-linejoin="round"/>
<path d="M354.411 235.407C360.864 240.773 358.726 272.083 378.682 258.6C398.638 245.115 364.6 237.119 366.546 229.475C369.272 218.773 414.28 231.632 406.729 211.136C399.178 190.64 372.271 221.463 365.198 213.834C358.701 206.823 391.087 181.472 375.986 177.157C360.883 172.842 364.134 209.523 354.411 209.519C346.845 209.515 348.253 174.459 334.342 186.865C320.43 199.27 350.84 211.492 346.86 219.19C343.835 225.042 319.892 210.597 320.97 224.081C322.049 237.564 347.623 229.765 354.411 235.407Z" fill="#38BFF2"/>
<g opacity="0.300003">
<g opacity="0.300003">
<path opacity="0.300003" d="M354.411 235.407C360.864 240.773 358.726 272.083 378.682 258.6C398.638 245.115 364.6 237.119 366.546 229.475C369.272 218.773 414.28 231.632 406.729 211.136C399.178 190.64 372.271 221.463 365.198 213.834C358.701 206.823 391.087 181.472 375.986 177.157C360.883 172.842 364.134 209.523 354.411 209.519C346.845 209.515 348.253 174.459 334.342 186.865C320.43 199.27 350.84 211.492 346.86 219.19C343.835 225.042 319.892 210.597 320.97 224.081C322.049 237.564 347.623 229.765 354.411 235.407Z" fill="white"/>
</g>
</g>
<path d="M359.003 219.372C359.003 219.372 340.126 244.577 335.811 286.648" stroke="#1A2E35" stroke-width="1.33333" stroke-miterlimit="10" stroke-linecap="round" stroke-linejoin="round"/>
<path d="M345.488 352.458H316.06C310.427 352.458 305.731 348.146 305.253 342.532L300.627 288.164C300.089 281.835 305.082 276.399 311.434 276.399H350.114C356.467 276.399 361.46 281.835 360.922 288.164L356.294 342.532C355.818 348.146 351.122 352.458 345.488 352.458Z" fill="#38BFF2"/>
<path d="M345.488 352.458H316.06C310.427 352.458 305.731 348.146 305.253 342.532L300.627 288.164C300.089 281.835 305.082 276.399 311.434 276.399H350.114C356.467 276.399 361.46 281.835 360.922 288.164L356.294 342.532C355.818 348.146 351.122 352.458 345.488 352.458Z" stroke="#1A2E35" stroke-width="1.33333" stroke-miterlimit="10" stroke-linecap="round" stroke-linejoin="round"/>
<path d="M125.139 274.373C134.973 274.373 163.384 267.955 163.384 267.955H86.8938C86.8938 267.955 115.305 274.373 125.139 274.373Z" fill="#1A2E35"/>
<path d="M125.139 274.373C134.973 274.373 163.384 267.955 163.384 267.955H86.8938C86.8938 267.955 115.305 274.373 125.139 274.373Z" stroke="#1A2E35" stroke-width="1.33333" stroke-miterlimit="10" stroke-linecap="round" stroke-linejoin="round"/>
<path d="M116.374 283.178H133.902V271.164H116.374V283.178Z" fill="#868686" stroke="#1A2E35" stroke-width="1.33333" stroke-miterlimit="10" stroke-linecap="round" stroke-linejoin="round"/>
<path d="M113.782 334.84H136.496V283.178H113.782V334.84Z" fill="#9A9A9A" stroke="#1A2E35" stroke-width="1.33333" stroke-miterlimit="10" stroke-linecap="round" stroke-linejoin="round"/>
<path d="M82.4776 252.632H97.2383C95.5984 242.462 94.3883 232.098 93.6419 221.824H78.8801C79.6265 232.098 80.8377 242.462 82.4776 252.632Z" fill="#868686"/>
<path d="M82.4776 252.632H97.2383C95.5984 242.462 94.3883 232.098 93.6419 221.824H78.8801C79.6265 232.098 80.8377 242.462 82.4776 252.632Z" stroke="#1A2E35" stroke-width="1.33333" stroke-miterlimit="10" stroke-linecap="round" stroke-linejoin="round"/>
<path d="M60.0556 130.839H123.685C131.165 130.839 136.059 137.153 134.613 144.597C130.539 167.504 128.132 190.151 127.338 213.413C127.218 220.154 122.088 225.36 115.343 225.36H61.7786C55.0337 225.36 48.9616 220.154 48.0959 213.413C45.5156 190.398 44.5837 167.755 45.3045 144.597C45.6585 137.153 52.575 130.839 60.0556 130.839Z" fill="#868686"/>
<path d="M60.0556 130.839H123.685C131.165 130.839 136.059 137.153 134.613 144.597C130.539 167.504 128.132 190.151 127.338 213.413C127.218 220.154 122.088 225.36 115.343 225.36H61.7786C55.0337 225.36 48.9616 220.154 48.0959 213.413C45.5156 190.398 44.5837 167.755 45.3045 144.597C45.6585 137.153 52.575 130.839 60.0556 130.839Z" stroke="#1A2E35" stroke-width="1.33333" stroke-miterlimit="10" stroke-linecap="round" stroke-linejoin="round"/>
<path d="M56.5898 144.596C55.868 167.755 56.8009 190.399 59.3812 213.413C60.247 220.154 66.3191 225.361 73.064 225.361H115.343C122.089 225.361 127.218 220.154 127.338 213.413C128.132 190.15 130.54 167.504 134.614 144.596C136.059 137.154 131.165 130.839 123.686 130.839H71.341C63.8593 130.839 56.9438 137.154 56.5898 144.596Z" fill="#9A9A9A"/>
<path d="M56.5898 144.596C55.868 167.755 56.8009 190.399 59.3812 213.413C60.247 220.154 66.3191 225.361 73.064 225.361H115.343C122.089 225.361 127.218 220.154 127.338 213.413C128.132 190.15 130.54 167.504 134.614 144.596C136.059 137.154 131.165 130.839 123.686 130.839H71.341C63.8593 130.839 56.9438 137.154 56.5898 144.596Z" stroke="#1A2E35" stroke-width="1.33333" stroke-miterlimit="10" stroke-linecap="round" stroke-linejoin="round"/>
<path d="M86.8933 344.114C86.8933 345.326 88.0096 346.228 89.1942 345.97C96.1545 344.452 117.003 340.06 125.139 340.06C133.273 340.06 154.123 344.452 161.083 345.97C162.267 346.228 163.384 345.326 163.384 344.114C163.384 341.764 161.748 339.736 159.451 339.242C151.302 337.491 132.712 333.686 125.139 333.686C117.566 333.686 98.9746 337.491 90.8266 339.242C88.5289 339.736 86.8933 341.764 86.8933 344.114Z" fill="#1A2E35"/>
<path d="M86.8933 344.114C86.8933 345.326 88.0096 346.228 89.1942 345.97C96.1545 344.452 117.003 340.06 125.139 340.06C133.273 340.06 154.123 344.452 161.083 345.97C162.267 346.228 163.384 345.326 163.384 344.114C163.384 341.764 161.748 339.736 159.451 339.242C151.302 337.491 132.712 333.686 125.139 333.686C117.566 333.686 98.9746 337.491 90.8266 339.242C88.5289 339.736 86.8933 341.764 86.8933 344.114Z" stroke="#1A2E35" stroke-width="1.33333" stroke-miterlimit="10" stroke-linecap="round" stroke-linejoin="round"/>
<path d="M163.385 350.355C165.342 350.355 166.928 348.77 166.928 346.812C166.928 344.855 165.342 343.269 163.385 343.269C161.428 343.269 159.843 344.855 159.843 346.812C159.843 348.77 161.428 350.355 163.385 350.355ZM163.385 340.271C166.998 340.271 169.926 343.2 169.926 346.812C169.926 350.424 166.998 353.354 163.385 353.354C159.772 353.354 156.843 350.424 156.843 346.812C156.843 343.2 159.772 340.271 163.385 340.271Z" fill="#868686"/>
<path d="M163.385 350.355C165.342 350.355 166.928 348.77 166.928 346.812C166.928 344.855 165.342 343.269 163.385 343.269C161.428 343.269 159.843 344.855 159.843 346.812C159.843 348.77 161.428 350.355 163.385 350.355ZM163.385 340.271C166.998 340.271 169.926 343.2 169.926 346.812C169.926 350.424 166.998 353.354 163.385 353.354C159.772 353.354 156.843 350.424 156.843 346.812C156.843 343.2 159.772 340.271 163.385 340.271Z" stroke="#1A2E35" stroke-width="1.33333" stroke-miterlimit="10" stroke-linecap="round" stroke-linejoin="round"/>
<path d="M125.139 350.355C127.095 350.355 128.681 348.77 128.681 346.812C128.681 344.855 127.095 343.269 125.139 343.269C123.182 343.269 121.596 344.855 121.596 346.812C121.596 348.77 123.182 350.355 125.139 350.355ZM125.139 340.271C128.751 340.271 131.68 343.2 131.68 346.812C131.68 350.424 128.751 353.354 125.139 353.354C121.526 353.354 118.598 350.424 118.598 346.812C118.598 343.2 121.526 340.271 125.139 340.271Z" fill="#868686"/>
<path d="M125.139 350.355C127.095 350.355 128.681 348.77 128.681 346.812C128.681 344.855 127.095 343.269 125.139 343.269C123.182 343.269 121.596 344.855 121.596 346.812C121.596 348.77 123.182 350.355 125.139 350.355ZM125.139 340.271C128.751 340.271 131.68 343.2 131.68 346.812C131.68 350.424 128.751 353.354 125.139 353.354C121.526 353.354 118.598 350.424 118.598 346.812C118.598 343.2 121.526 340.271 125.139 340.271Z" stroke="#1A2E35" stroke-width="1.33333" stroke-miterlimit="10" stroke-linecap="round" stroke-linejoin="round"/>
<path d="M87.6867 350.355C89.6443 350.355 91.2297 348.77 91.2297 346.812C91.2297 344.855 89.6443 343.269 87.6867 343.269C85.7302 343.269 84.1447 344.855 84.1447 346.812C84.1447 348.77 85.7302 350.355 87.6867 350.355ZM87.6867 340.271C91.3001 340.271 94.229 343.2 94.229 346.812C94.229 350.424 91.3001 353.354 87.6867 353.354C84.0743 353.354 81.1454 350.424 81.1454 346.812C81.1454 343.2 84.0743 340.271 87.6867 340.271Z" fill="#868686"/>
<path d="M87.6867 350.355C89.6443 350.355 91.2297 348.77 91.2297 346.812C91.2297 344.855 89.6443 343.269 87.6867 343.269C85.7302 343.269 84.1447 344.855 84.1447 346.812C84.1447 348.77 85.7302 350.355 87.6867 350.355ZM87.6867 340.271C91.3001 340.271 94.229 343.2 94.229 346.812C94.229 350.424 91.3001 353.354 87.6867 353.354C84.0743 353.354 81.1454 350.424 81.1454 346.812C81.1454 343.2 84.0743 340.271 87.6867 340.271Z" stroke="#1A2E35" stroke-width="1.33333" stroke-miterlimit="10" stroke-linecap="round" stroke-linejoin="round"/>
<path d="M105.75 250.564C131.493 251.36 156.618 250.249 182.189 247.184C187.396 246.484 191.605 250.048 191.605 255.272V256.521C191.605 261.746 187.396 266.654 182.189 267.355C156.618 270.419 131.493 271.53 105.75 270.733V250.564Z" fill="#9A9A9A"/>
<path d="M105.75 250.564C131.493 251.36 156.618 250.249 182.189 247.184C187.396 246.484 191.605 250.048 191.605 255.272V256.521C191.605 261.746 187.396 266.654 182.189 267.355C156.618 270.419 131.493 271.53 105.75 270.733V250.564Z" stroke="#1A2E35" stroke-width="1.33333" stroke-miterlimit="10" stroke-linecap="round" stroke-linejoin="round"/>
<path d="M65.6598 267.02C81.5038 269.001 97.2103 270.32 113.164 271.005C117.053 271.113 120.208 268 120.208 264.12V257.997C120.208 254.118 117.053 250.944 113.164 250.835C97.2103 250.15 81.5038 248.832 65.6598 246.851C61.7969 246.309 58.6718 248.956 58.6718 252.834V258.958C58.6718 262.838 61.7969 266.479 65.6598 267.02Z" fill="#868686"/>
<path d="M65.6598 267.02C81.5038 269.001 97.2103 270.32 113.164 271.005C117.053 271.113 120.208 268 120.208 264.12V257.997C120.208 254.118 117.053 250.944 113.164 250.835C97.2103 250.15 81.5038 248.832 65.6598 246.851C61.7969 246.309 58.6718 248.956 58.6718 252.834V258.958C58.6718 262.838 61.7969 266.479 65.6598 267.02Z" stroke="#1A2E35" stroke-width="1.33333" stroke-miterlimit="10" stroke-linecap="round" stroke-linejoin="round"/>
<path d="M171.745 349.955C171.792 346.393 172.522 339.263 176.714 330.068L182.187 310.343L199.246 317.63L194.448 332.734C194.448 332.734 209.114 339.731 214.528 341.62C218.135 342.876 228.922 345.351 228.389 349.971C228.389 351.346 227.276 352.459 225.902 352.459H174.234C172.852 352.459 171.727 351.337 171.745 349.955Z" fill="white"/>
<path d="M171.745 349.955C171.792 346.393 172.522 339.263 176.714 330.068L182.187 310.343L199.246 317.63L194.448 332.734C194.448 332.734 209.114 339.731 214.528 341.62C218.135 342.876 228.922 345.351 228.389 349.971C228.389 351.346 227.276 352.459 225.902 352.459H174.234C172.852 352.459 171.727 351.337 171.745 349.955Z" stroke="#1A2E35" stroke-width="1.33333" stroke-miterlimit="10" stroke-linecap="round" stroke-linejoin="round"/>
<path d="M181.132 338.421C183.797 340.375 198.013 342.862 194.448 340.02C190.883 337.176 194.448 332.733 194.448 332.733C194.448 332.733 209.113 339.731 214.529 341.619C218.136 342.876 228.923 345.351 228.39 349.971C228.39 351.345 227.275 352.458 225.901 352.458H174.233C172.851 352.458 171.728 351.337 171.745 349.955C171.784 346.947 172.319 341.385 175.009 334.191C177.947 334.227 178.466 336.466 181.132 338.421Z" fill="#38BFF2"/>
<path d="M181.132 338.421C183.797 340.375 198.013 342.862 194.448 340.02C190.883 337.176 194.448 332.733 194.448 332.733C194.448 332.733 209.113 339.731 214.529 341.619C218.136 342.876 228.923 345.351 228.39 349.971C228.39 351.345 227.275 352.458 225.901 352.458H174.233C172.851 352.458 171.728 351.337 171.745 349.955C171.784 346.947 172.319 341.385 175.009 334.191C177.947 334.227 178.466 336.466 181.132 338.421Z" stroke="#1A2E35" stroke-width="1.33333" stroke-miterlimit="10" stroke-linecap="round" stroke-linejoin="round"/>
<path d="M159.404 352.458H121.555C120.773 352.458 120.105 351.904 119.957 351.136C119.377 348.127 119.509 341.401 122.923 332.467L123.259 314.33L142.648 317.629L140.188 333.09C140.188 333.09 147.995 341.68 151.703 343.219C154.309 344.3 160.23 344.414 161.026 350.645C161.149 351.608 160.375 352.458 159.404 352.458Z" fill="white"/>
<path d="M159.404 352.458H121.555C120.773 352.458 120.105 351.904 119.957 351.136C119.377 348.127 119.509 341.401 122.923 332.467L123.259 314.33L142.648 317.629L140.188 333.09C140.188 333.09 147.995 341.68 151.703 343.219C154.309 344.3 160.23 344.414 161.026 350.645C161.149 351.608 160.375 352.458 159.404 352.458Z" stroke="#1A2E35" stroke-width="1.33333" stroke-miterlimit="10" stroke-linecap="round" stroke-linejoin="round"/>
<path d="M129.312 338.489C133.314 341.287 136.263 341.62 134.397 337.423C132.531 333.227 140.188 333.09 140.188 333.09C140.188 333.09 147.994 341.679 151.703 343.219C154.309 344.299 160.23 344.414 161.026 350.644C161.148 351.608 160.375 352.459 159.404 352.459H121.555C120.772 352.459 120.104 351.904 119.957 351.136C119.377 348.127 119.509 341.4 122.923 332.467C125.844 333.178 125.31 335.691 129.312 338.489Z" fill="#38BFF2"/>
<path d="M129.312 338.489C133.314 341.287 136.263 341.62 134.397 337.423C132.531 333.227 140.188 333.09 140.188 333.09C140.188 333.09 147.994 341.679 151.703 343.219C154.309 344.299 160.23 344.414 161.026 350.644C161.148 351.608 160.375 352.459 159.404 352.459H121.555C120.772 352.459 120.104 351.904 119.957 351.136C119.377 348.127 119.509 341.4 122.923 332.467C125.844 333.178 125.31 335.691 129.312 338.489Z" stroke="#1A2E35" stroke-width="1.33333" stroke-miterlimit="10" stroke-linecap="round" stroke-linejoin="round"/>
<path d="M163.173 214.028C163.173 214.028 166.983 217.938 182.582 220.425C198.18 222.913 230.523 230.733 230.167 243.527C229.811 256.322 199.957 324.56 199.957 324.56C199.957 324.56 185.03 321.716 178.1 317.451C178.1 317.451 190.115 268.76 199.124 255.966C199.124 255.966 158.681 250.991 136.315 241.75C113.949 232.509 127.098 211.479 127.098 211.479L163.173 214.028Z" fill="#1A2E35"/>
<path d="M163.173 214.028C163.173 214.028 166.983 217.938 182.582 220.425C198.18 222.913 230.523 230.733 230.167 243.527C229.811 256.322 199.957 324.56 199.957 324.56C199.957 324.56 185.03 321.716 178.1 317.451C178.1 317.451 190.115 268.76 199.124 255.966C199.124 255.966 158.681 250.991 136.315 241.75C113.949 232.509 127.098 211.479 127.098 211.479L163.173 214.028Z" stroke="#1A2E35" stroke-width="1.33333" stroke-miterlimit="10" stroke-linecap="round" stroke-linejoin="round"/>
<path d="M137.762 212.232C137.762 212.232 132.025 221.847 136.314 227.178C140.604 232.509 164.934 242.461 162.187 254.545C159.441 266.628 150.357 283.688 144.432 324.204C144.432 324.204 130.653 322.072 121.412 318.163C121.412 318.163 119.881 276.935 130.597 259.165C130.597 259.165 99.9095 253.479 96.8004 243.171C93.6902 232.865 99.5086 217.103 99.6205 211.479L137.762 212.232Z" fill="#1A2E35"/>
<path d="M137.762 212.232C137.762 212.232 132.025 221.847 136.314 227.178C140.604 232.509 164.934 242.461 162.187 254.545C159.441 266.628 150.357 283.688 144.432 324.204C144.432 324.204 130.653 322.072 121.412 318.163C121.412 318.163 119.881 276.935 130.597 259.165C130.597 259.165 99.9095 253.479 96.8004 243.171C93.6902 232.865 99.5086 217.103 99.6205 211.479L137.762 212.232Z" stroke="#1A2E35" stroke-width="1.33333" stroke-miterlimit="10" stroke-linecap="round" stroke-linejoin="round"/>
<path d="M156.251 227.499C156.93 227.455 157.638 227.462 158.375 227.534" stroke="#808080" stroke-linecap="round" stroke-linejoin="round"/>
<path d="M154.901 221.137C154.901 221.137 148.599 222.991 146.126 231.204C145.93 231.855 146.742 232.353 147.219 231.869C148.532 230.543 150.579 228.913 153.289 228.057" stroke="#808080" stroke-linecap="round" stroke-linejoin="round"/>
<path d="M202.089 255.522C202.089 252.056 217.016 250.191 213.018 246.992C209.019 243.794 199.957 254.189 199.957 254.189" stroke="#808080" stroke-linecap="round" stroke-linejoin="round"/>
<path d="M128.743 269.383C128.743 265.414 143.008 263.252 142.294 258.987C141.582 254.722 132.519 263.119 132.519 263.119" stroke="#808080" stroke-linecap="round" stroke-linejoin="round"/>
<path d="M201.529 324.803L199.958 328.427C199.779 328.839 199.339 329.068 198.902 328.969C195.454 328.192 181.08 324.796 176.032 321.176C175.732 320.961 175.607 320.573 175.694 320.213L176.673 316.173C176.818 315.575 177.49 315.28 178.03 315.576C180.297 316.815 186.622 319.768 200.901 323.528C201.454 323.673 201.756 324.278 201.529 324.803Z" fill="#9A9A9A"/>
<path d="M201.529 324.803L199.958 328.427C199.779 328.839 199.339 329.068 198.902 328.969C195.454 328.192 181.08 324.796 176.032 321.176C175.732 320.961 175.607 320.573 175.694 320.213L176.673 316.173C176.818 315.575 177.49 315.28 178.03 315.576C180.297 316.815 186.622 319.768 200.901 323.528C201.454 323.673 201.756 324.278 201.529 324.803Z" stroke="#1A2E35" stroke-width="1.33333" stroke-miterlimit="10" stroke-linecap="round" stroke-linejoin="round"/>
<path d="M146.167 321.818C146.246 321.273 145.72 320.822 145.205 321.013C144.182 321.393 142.451 321.689 139.849 321.094C135.897 320.191 124.579 316.609 121.213 315.535C120.736 315.383 120.257 315.741 120.257 316.241V320.954C120.257 321.247 120.422 321.508 120.689 321.626C123.336 322.805 137.502 328.873 144.917 327.22C145.212 327.153 145.43 326.901 145.473 326.6L146.167 321.818Z" fill="#9A9A9A"/>
<path d="M146.167 321.818C146.246 321.273 145.72 320.822 145.205 321.013C144.182 321.393 142.451 321.689 139.849 321.094C135.897 320.191 124.579 316.609 121.213 315.535C120.736 315.383 120.257 315.741 120.257 316.241V320.954C120.257 321.247 120.422 321.508 120.689 321.626C123.336 322.805 137.502 328.873 144.917 327.22C145.212 327.153 145.43 326.901 145.473 326.6L146.167 321.818Z" stroke="#1A2E35" stroke-width="1.33333" stroke-miterlimit="10" stroke-linecap="round" stroke-linejoin="round"/>
<path d="M134.766 223.128C134.9 224.588 135.359 225.99 136.314 227.178C139.443 231.066 153.234 237.412 159.403 245.252" stroke="#808080" stroke-width="1.33333" stroke-linecap="round" stroke-linejoin="round"/>
<path d="M135.43 217.706C135.205 218.473 135.014 219.283 134.887 220.107" stroke="#808080" stroke-width="1.33333" stroke-linecap="round" stroke-linejoin="round"/>
<path d="M217.087 344.018C217.087 344.018 216.021 345.706 215.221 349.083H176.715C176.715 349.083 176.612 346.501 174.571 344.685" stroke="#1A2E35" stroke-width="1.33333" stroke-miterlimit="10" stroke-linecap="round" stroke-linejoin="round"/>
<path d="M150.182 344.018C150.182 344.018 144.851 344.418 142.851 349.083H122.727C122.727 349.083 121.66 346.684 121.66 344.685" stroke="#1A2E35" stroke-width="1.33333" stroke-miterlimit="10" stroke-linecap="round" stroke-linejoin="round"/>
<path d="M181.741 153.726C181.246 155.609 180.739 157.473 180.231 159.296C174.9 178.488 167.971 215.006 167.971 215.006C133.852 222.203 97.8669 215.006 97.8669 215.006C97.6707 207.044 98.6399 196.544 99.72 185.514C94.1245 183.966 90.0899 178.801 89.8703 170.225C89.6037 159.829 91.4877 141.112 92.5358 132.374C93.4581 124.684 92.8024 120.112 104.712 114.285C110.681 110.839 120.591 109.21 132.786 107.584C156.775 104.386 174.087 109.233 180.231 111.849C185.102 110.566 186.457 116.286 186.457 116.286C189.155 114.242 192.288 122.88 192.288 122.88C200.179 132.95 206.387 149.905 208.45 155.952C208.902 157.276 209.747 158.42 210.859 159.269C216.457 163.537 213.346 168.814 213.346 168.814L201.884 172.327C201.884 172.327 196.331 173.772 192.089 166.469C188.539 160.36 182.74 150.004 181.741 153.726Z" fill="#38BFF2"/>
<g opacity="0.300003">
<g opacity="0.300003">
<path opacity="0.300003" d="M199.772 167.507C199.772 167.507 200.039 162.177 204.304 161.244C208.569 160.311 203.104 158.719 199.772 159.516C196.44 160.311 197.208 157.379 194.359 152.581C191.509 147.783 190.11 143.99 187.677 146.757C185.244 149.523 182.767 149.904 181.74 153.726C180.714 157.547 185.778 166.468 185.778 166.468L193.734 172.639L197.773 174.904H203.806L205.866 169.69L199.772 167.507Z" fill="black"/>
</g>
</g>
<path d="M181.741 153.726C181.247 155.609 180.739 157.472 180.232 159.296C174.901 178.488 167.971 215.006 167.971 215.006C133.852 222.203 97.8674 215.006 97.8674 215.006C97.6712 207.044 98.6404 196.544 99.7205 185.514C94.125 183.966 90.0904 178.801 89.8708 170.224C89.6042 159.829 91.4882 141.111 92.5363 132.374C93.4586 124.684 92.8029 120.112 104.713 114.285C110.681 110.839 120.592 109.21 132.786 107.584C156.776 104.385 174.087 109.233 180.232 111.849C185.102 110.566 186.457 116.286 186.457 116.286C189.156 114.242 192.288 122.88 192.288 122.88C200.18 132.949 206.387 149.904 208.45 155.952C208.902 157.276 209.748 158.42 210.86 159.269C216.458 163.537 213.346 168.814 213.346 168.814L201.884 172.327C201.884 172.327 196.332 173.772 192.089 166.469C188.54 160.36 182.74 150.004 181.741 153.726Z" stroke="#1A2E35" stroke-width="1.33333" stroke-miterlimit="10" stroke-linecap="round" stroke-linejoin="round"/>
<g opacity="0.300003">
<g opacity="0.300003">
<path opacity="0.300003" d="M97.8683 215.006C97.7265 209.246 98.1978 202.147 98.8759 194.491C97.7137 210.722 131.523 215.801 132.59 207.004C133.656 198.202 99.7214 185.514 118.186 189.95C134.301 193.82 165.521 190.122 173.204 189.119C170.254 202.987 167.972 215.006 167.972 215.006C133.853 222.203 97.8683 215.006 97.8683 215.006Z" fill="black"/>
</g>
</g>
<g opacity="0.300003">
<g opacity="0.300003">
<path opacity="0.300003" d="M113.37 133.44C113.37 133.44 118.195 147.567 118.185 155.031C118.174 162.487 131.72 167.497 131.743 167.507C124.491 166.028 117.429 164.078 114.055 163.103C112.857 162.758 112.075 161.621 112.183 160.38C112.849 152.728 113.569 142.424 113.369 133.44H113.37Z" fill="black"/>
</g>
</g>
<path d="M186.209 129.883C186.209 129.883 186.371 140.045 182.653 149.385C182.308 150.251 183.292 151.041 184.05 150.498C185.879 149.189 188.465 146.52 190.805 141.145" stroke="#1A2E35" stroke-miterlimit="10" stroke-linecap="round" stroke-linejoin="round"/>
<path d="M95.7343 173.423C98.547 164.095 103.415 161.758 107.189 161.524C107.795 161.486 107.997 160.693 107.464 160.404C105.274 159.217 101 158.281 95.7343 164.093" stroke="#1A2E35" stroke-miterlimit="10" stroke-linecap="round" stroke-linejoin="round"/>
<path d="M149.821 146.719C149.821 147.604 150.539 148.32 151.423 148.32C152.308 148.32 153.025 147.604 153.025 146.719C153.025 145.834 152.308 145.117 151.423 145.117C150.539 145.117 149.821 145.834 149.821 146.719Z" fill="#9A9A9A"/>
<path d="M149.821 146.719C149.821 147.604 150.539 148.32 151.423 148.32C152.308 148.32 153.025 147.604 153.025 146.719C153.025 145.834 152.308 145.117 151.423 145.117C150.539 145.117 149.821 145.834 149.821 146.719Z" stroke="#1A2E35" stroke-miterlimit="10" stroke-linecap="round" stroke-linejoin="round"/>
<path d="M147.65 164.867C147.65 165.752 148.368 166.469 149.253 166.469C150.138 166.469 150.854 165.752 150.854 164.867C150.854 163.982 150.138 163.265 149.253 163.265C148.368 163.265 147.65 163.982 147.65 164.867Z" fill="#9A9A9A"/>
<path d="M147.65 164.867C147.65 165.752 148.368 166.469 149.253 166.469C150.138 166.469 150.854 165.752 150.854 164.867C150.854 163.982 150.138 163.265 149.253 163.265C148.368 163.265 147.65 163.982 147.65 164.867Z" stroke="#1A2E35" stroke-miterlimit="10" stroke-linecap="round" stroke-linejoin="round"/>
<path d="M142.295 208.605C142.295 209.49 143.012 210.208 143.897 210.208C144.781 210.208 145.499 209.49 145.499 208.605C145.499 207.72 144.781 207.004 143.897 207.004C143.012 207.004 142.295 207.72 142.295 208.605Z" fill="#9A9A9A"/>
<path d="M142.295 208.605C142.295 209.49 143.012 210.208 143.897 210.208C144.781 210.208 145.499 209.49 145.499 208.605C145.499 207.72 144.781 207.004 143.897 207.004C143.012 207.004 142.295 207.72 142.295 208.605Z" stroke="#1A2E35" stroke-width="1.33333" stroke-miterlimit="10" stroke-linecap="round" stroke-linejoin="round"/>
<path d="M172.911 176.755C172.911 176.755 178.149 181.751 175.658 181.829C173.168 181.907 170.018 178.487 167.129 178.087C164.24 177.688 168.904 175.922 168.904 175.922L172.911 176.755Z" fill="white"/>
<path d="M172.911 176.755C172.911 176.755 178.149 181.751 175.658 181.829C173.168 181.907 170.018 178.487 167.129 178.087C164.24 177.688 168.904 175.922 168.904 175.922L172.911 176.755Z" stroke="#1A2E35" stroke-width="1.33333" stroke-miterlimit="10" stroke-linecap="round" stroke-linejoin="round"/>
<path d="M142.342 171.143C142.811 170.716 143.447 170.514 144.08 170.565C146.646 170.771 153.994 171.329 156.776 171.157C161.695 170.854 176.203 167.78 176.203 167.78C176.539 167.723 176.885 167.742 177.212 167.838L186.196 170.477C186.523 170.574 186.824 170.743 187.075 170.975L192.513 175.972C192.692 176.137 192.844 176.33 192.961 176.545L194.087 178.61C194.565 179.483 194.403 180.568 193.692 181.265L184.695 181.546C184.139 181.563 183.597 181.373 183.175 181.011L180.511 178.726C180.334 178.574 180.183 178.394 180.06 178.195C179.403 177.142 176.892 173.615 172.911 173.956C172.911 173.956 181.432 178.487 179.833 180.353C178.233 182.219 171.703 176.888 169.57 177.421C167.484 177.943 167.296 183.184 155.69 181.289C155.175 181.205 154.641 181.225 154.139 181.365L143.584 184.316C142.262 184.686 140.905 183.893 140.565 182.564C139.775 179.476 139.054 174.14 142.342 171.143Z" fill="white"/>
<path d="M142.342 171.143C142.811 170.716 143.447 170.514 144.08 170.565C146.646 170.771 153.994 171.329 156.776 171.157C161.695 170.854 176.203 167.78 176.203 167.78C176.539 167.723 176.885 167.742 177.212 167.838L186.196 170.477C186.523 170.574 186.824 170.743 187.075 170.975L192.513 175.972C192.692 176.137 192.844 176.33 192.961 176.545L194.087 178.61C194.565 179.483 194.403 180.568 193.692 181.265L184.695 181.546C184.139 181.563 183.597 181.373 183.175 181.011L180.511 178.726C180.334 178.574 180.183 178.394 180.06 178.195C179.403 177.142 176.892 173.615 172.911 173.956C172.911 173.956 181.432 178.487 179.833 180.353C178.233 182.219 171.703 176.888 169.57 177.421C167.484 177.943 167.296 183.184 155.69 181.289C155.175 181.205 154.641 181.225 154.139 181.365L143.584 184.316C142.262 184.686 140.905 183.893 140.565 182.564C139.775 179.476 139.054 174.14 142.342 171.143Z" stroke="#1A2E35" stroke-width="1.33333" stroke-miterlimit="10" stroke-linecap="round" stroke-linejoin="round"/>
<path d="M174.948 169.691L177.213 170.073C178.315 170.259 179.345 170.747 180.188 171.484L182.54 173.543C182.955 173.906 183.317 174.323 183.619 174.783L185.163 177.145C185.332 177.405 185.524 177.649 185.733 177.879C186.65 178.89 189.174 181.892 186.447 181.492" fill="white"/>
<path d="M174.948 169.691L177.213 170.073C178.315 170.259 179.345 170.747 180.188 171.484L182.54 173.543C182.955 173.906 183.317 174.323 183.619 174.783L185.163 177.145C185.332 177.405 185.524 177.649 185.733 177.879C186.65 178.89 189.174 181.892 186.447 181.492" stroke="#1A2E35" stroke-width="1.33333" stroke-miterlimit="10" stroke-linecap="round" stroke-linejoin="round"/>
<path d="M181.313 170.491L183.653 171.123C184.381 171.32 185.049 171.697 185.594 172.221L187.418 173.973C187.591 174.139 187.75 174.318 187.894 174.511L190.888 178.487C190.888 178.487 192.492 181.303 190.888 181.353" fill="white"/>
<path d="M181.313 170.491L183.653 171.123C184.381 171.32 185.049 171.697 185.594 172.221L187.418 173.973C187.591 174.139 187.75 174.318 187.894 174.511L190.888 178.487C190.888 178.487 192.492 181.303 190.888 181.353" stroke="#1A2E35" stroke-width="1.33333" stroke-miterlimit="10" stroke-linecap="round" stroke-linejoin="round"/>
<path d="M113.3 131.178C113.695 140.648 112.906 152.078 112.183 160.38C112.075 161.621 112.857 162.757 114.054 163.103C118.709 164.447 130.382 167.654 139.897 168.909" stroke="#1A2E35" stroke-width="1.33333" stroke-miterlimit="10" stroke-linecap="round" stroke-linejoin="round"/>
<path d="M112.769 124.567C112.909 125.651 113.023 126.791 113.114 127.976" stroke="#1A2E35" stroke-miterlimit="10" stroke-linecap="round" stroke-linejoin="round"/>
<path d="M109.191 114.581C110.414 115.633 111.314 117.582 111.961 120.146" stroke="#1A2E35" stroke-miterlimit="10" stroke-linecap="round" stroke-linejoin="round"/>
<path d="M162.577 108.25C162.577 108.25 161.91 106.118 158.312 104.918C154.713 103.719 142.262 101.797 135.855 104.918C129.446 108.039 141.719 124.977 141.719 124.977L147.449 132.839L152.514 136.638L154.78 129.884L157.713 126.842C157.713 126.842 164.043 121.645 163.51 116.513C162.977 111.383 162.577 108.25 162.577 108.25Z" fill="white"/>
<path d="M136.405 107.546C144.869 134.117 152.333 135.305 152.333 135.305C154.82 125.532 156.952 127.665 160.329 121.557C163.038 116.658 162.122 110.446 161.655 108.183C161.54 107.632 161.192 107.155 160.691 106.9C152.292 102.624 142.016 104.197 137.778 105.133C136.7 105.371 136.071 106.495 136.405 107.546ZM131.12 107.808C132.12 104.302 136.694 103.319 136.694 103.319C158.552 99.5868 163.173 107.532 163.173 107.532C167.615 119.919 163.173 129.883 163.173 129.883C163.173 129.883 156.952 127.308 155.886 129.883C154.82 132.457 152.866 137.971 152.866 137.971C152.866 137.971 148.601 135.838 145.224 131.396C141.848 126.953 133.907 131.396 133.907 131.396C128.811 122.51 131.12 107.808 131.12 107.808Z" fill="#38BFF2"/>
<g opacity="0.399994">
<g opacity="0.399994">
<path opacity="0.399994" d="M136.405 107.546C144.869 134.118 152.333 135.305 152.333 135.305C154.82 125.532 156.952 127.665 160.329 121.557C163.038 116.658 162.122 110.446 161.655 108.183C161.54 107.633 161.192 107.155 160.691 106.9C152.292 102.625 142.016 104.197 137.778 105.133C136.7 105.371 136.071 106.495 136.405 107.546ZM131.12 107.809C132.12 104.302 136.694 103.319 136.694 103.319C158.552 99.587 163.173 107.532 163.173 107.532C167.615 119.919 163.173 129.884 163.173 129.884C163.173 129.884 156.952 127.309 155.886 129.884C154.82 132.457 152.866 137.971 152.866 137.971C152.866 137.971 148.601 135.838 145.224 131.397C141.848 126.954 133.907 131.397 133.907 131.397C128.811 122.511 131.12 107.809 131.12 107.809Z" fill="white"/>
</g>
</g>
<path d="M136.405 107.546C144.869 134.117 152.332 135.305 152.332 135.305C154.82 125.532 156.952 127.665 160.329 121.557C163.038 116.658 162.121 110.446 161.654 108.183C161.54 107.632 161.191 107.155 160.69 106.9C152.292 102.624 142.015 104.197 137.777 105.133C136.699 105.371 136.07 106.495 136.405 107.546ZM131.12 107.808C132.12 104.302 136.694 103.319 136.694 103.319C158.551 99.5868 163.172 107.532 163.172 107.532C167.614 119.919 163.172 129.883 163.172 129.883C163.172 129.883 156.952 127.308 155.886 129.883C154.82 132.457 152.865 137.971 152.865 137.971C152.865 137.971 148.6 135.838 145.224 131.396C141.848 126.953 133.907 131.396 133.907 131.396C128.81 122.51 131.12 107.808 131.12 107.808V107.808Z" stroke="#1A2E35" stroke-width="1.33333" stroke-miterlimit="10" stroke-linecap="round" stroke-linejoin="round"/>
<path d="M166.804 67.2049C166.804 67.2049 185.64 70.9772 175.267 83.2291C163.761 96.817 166.804 67.2049 166.804 67.2049Z" fill="#1A2E35"/>
<path d="M166.804 67.2049C166.804 67.2049 185.64 70.9772 175.267 83.2291C163.761 96.817 166.804 67.2049 166.804 67.2049Z" stroke="#1A2E35" stroke-width="1.33333" stroke-miterlimit="10" stroke-linecap="round" stroke-linejoin="round"/>
<path d="M174.232 97.0989C174.232 97.0989 178.711 78.9732 170.181 70.2654C161.651 61.5587 152.41 59.7813 145.48 64.0462C138.549 68.311 135.707 78.9732 136.773 84.4824C137.839 89.9904 137.319 109.715 146.82 117.89C156.32 126.065 162.167 124.05 168.449 112.914C172.578 105.598 174.552 103.496 174.232 97.0989Z" fill="white"/>
<path d="M174.232 97.0989C174.232 97.0989 178.711 78.9732 170.181 70.2654C161.651 61.5587 152.41 59.7813 145.48 64.0462C138.549 68.311 135.707 78.9732 136.773 84.4824C137.839 89.9904 137.319 109.715 146.82 117.89C156.32 126.065 162.167 124.05 168.449 112.914C172.578 105.598 174.552 103.496 174.232 97.0989Z" stroke="#1A2E35" stroke-width="1.33333" stroke-miterlimit="10" stroke-linecap="round" stroke-linejoin="round"/>
<path d="M141.218 93.5454C141.218 93.5454 148.379 86.4369 150.572 78.0852C152.765 69.7335 154.009 68.3112 162.183 72.3991C170.358 76.4859 183.112 70.9842 179.776 60.6707C176.269 49.8304 165.56 63.8693 155.253 60.3145C144.946 56.7608 137.636 63.1581 137.62 72.5761C137.62 72.5761 131.391 78.6183 137.636 94.2565L141.218 93.5454Z" fill="#1A2E35"/>
<path d="M141.218 93.5454C141.218 93.5454 148.379 86.4369 150.572 78.0852C152.765 69.7335 154.009 68.3112 162.183 72.3991C170.358 76.4859 183.112 70.9842 179.776 60.6707C176.269 49.8304 165.56 63.8693 155.253 60.3145C144.946 56.7608 137.636 63.1581 137.62 72.5761C137.62 72.5761 131.391 78.6183 137.636 94.2565L141.218 93.5454Z" stroke="#1A2E35" stroke-width="1.33333" stroke-miterlimit="10" stroke-linecap="round" stroke-linejoin="round"/>
<path d="M143.465 92.3531C143.465 92.3531 141.654 82.417 136.614 83.3382C131.575 84.2605 135.178 98.921 141.106 97.3217" fill="white"/>
<path d="M143.465 92.3531C143.465 92.3531 141.654 82.417 136.614 83.3382C131.575 84.2605 135.178 98.921 141.106 97.3217" stroke="#1A2E35" stroke-width="1.33333" stroke-miterlimit="10" stroke-linecap="round" stroke-linejoin="round"/>
<path d="M167.426 95.7219C167.426 95.7219 169.401 104.943 168.759 106.528C168.116 108.114 162.011 106.9 162.011 106.9" fill="white"/>
<path d="M167.426 95.7219C167.426 95.7219 169.401 104.943 168.759 106.528C168.116 108.114 162.011 106.9 162.011 106.9" stroke="#1A2E35" stroke-width="1.33333" stroke-miterlimit="10" stroke-linecap="round" stroke-linejoin="round"/>
<path d="M161.162 110.916C161.162 110.916 156.381 112.804 152.174 106.528L161.162 110.916Z" fill="white"/>
<path d="M161.162 110.916C161.162 110.916 156.381 112.804 152.174 106.528" stroke="#1A2E35" stroke-width="1.33333" stroke-miterlimit="10" stroke-linecap="round" stroke-linejoin="round"/>
<path d="M170.697 96.4909C170.519 97.3503 170.743 98.1233 171.198 98.2182C171.653 98.312 172.168 97.6926 172.346 96.8332C172.524 95.9738 172.3 95.2008 171.844 95.107C171.389 95.0121 170.876 95.6316 170.697 96.4909Z" fill="#1A2E35"/>
<path d="M159.004 95.5512C158.826 96.4106 159.05 97.1836 159.505 97.2774C159.96 97.3723 160.475 96.7518 160.653 95.8935C160.831 95.0341 160.607 94.2611 160.152 94.1662C159.696 94.0724 159.182 94.6918 159.004 95.5512Z" fill="#1A2E35"/>
<path d="M168.239 96.0916C167.998 98.5066 170.426 100.727 173.662 101.051C176.898 101.374 179.717 99.6783 179.959 97.2633C180.2 94.8473 177.657 93.7811 174.421 93.458C171.185 93.1349 168.481 93.6755 168.239 96.0916Z" stroke="#1A2E35" stroke-width="1.33333" stroke-miterlimit="10" stroke-linecap="round" stroke-linejoin="round"/>
<path d="M153.15 94.5829C152.908 96.999 155.337 99.2188 158.573 99.5419C161.809 99.866 164.628 98.1697 164.869 95.7547C165.111 93.3386 162.568 92.2735 159.332 91.9504C156.096 91.6274 153.393 92.1679 153.15 94.5829Z" stroke="#1A2E35" stroke-width="1.33333" stroke-miterlimit="10" stroke-linecap="round" stroke-linejoin="round"/>
<path d="M168.239 96.0917L164.87 95.7547L168.239 96.0917Z" fill="white"/>
<path d="M168.239 96.0917L164.87 95.7547" stroke="#1A2E35" stroke-width="1.33333" stroke-miterlimit="10" stroke-linecap="round" stroke-linejoin="round"/>
<path d="M153.565 93.3735L141.17 86.0645L153.565 93.3735Z" fill="white"/>
<path d="M153.565 93.3735L141.17 86.0645" stroke="#1A2E35" stroke-width="1.33333" stroke-miterlimit="10" stroke-linecap="round" stroke-linejoin="round"/>
<path d="M139.044 104.742L138.46 106.162L139.044 104.742Z" fill="white"/>
<path d="M139.044 104.742L138.46 106.162" stroke="#1A2E35" stroke-width="1.33333" stroke-miterlimit="10" stroke-linecap="round" stroke-linejoin="round"/>
<path d="M175.228 92.1943C175.228 92.1943 173.34 89.7921 171.023 90.949L175.228 92.1943Z" fill="white"/>
<path d="M175.228 92.1943C175.228 92.1943 173.34 89.7921 171.023 90.949" stroke="#1A2E35" stroke-width="1.33333" stroke-miterlimit="10" stroke-linecap="round" stroke-linejoin="round"/>
<path d="M155.909 91.1208C155.909 91.1208 159.226 87.9595 162.417 90.1772L155.909 91.1208Z" fill="white"/>
<path d="M155.909 91.1208C155.909 91.1208 159.226 87.9595 162.417 90.1772" stroke="#1A2E35" stroke-width="1.33333" stroke-miterlimit="10" stroke-linecap="round" stroke-linejoin="round"/>
<path d="M171.04 61.8669C165.997 63.4705 157.508 65.4281 150.572 63.3351C139.97 60.1364 143.568 72.0738 141.169 75.3684" stroke="#808080" stroke-width="1.33333" stroke-linecap="round" stroke-linejoin="round"/>
<path d="M175.406 60.2703C175.406 60.2703 174.56 60.6434 173.126 61.1595" stroke="#808080" stroke-width="1.33333" stroke-linecap="round" stroke-linejoin="round"/>
<path d="M162.668 67.8098C162.103 67.6371 161.512 67.4356 160.895 67.2053" stroke="#808080" stroke-width="1.33333" stroke-linecap="round" stroke-linejoin="round"/>
<path d="M174.232 66.401C174.232 66.401 171.979 69.8939 164.698 68.3393" stroke="#808080" stroke-width="1.33333" stroke-linecap="round" stroke-linejoin="round"/>
<path d="M147.156 73.2383C146.708 76.2717 145.56 80.6709 142.637 84.6597" stroke="#808080" stroke-width="1.33333" stroke-linecap="round" stroke-linejoin="round"/>
<path d="M147.434 69.4664C147.434 69.4664 147.461 70.1829 147.368 71.3738" stroke="#808080" stroke-width="1.33333" stroke-linecap="round" stroke-linejoin="round"/>
<g opacity="0.300003">
<g opacity="0.300003">
<path opacity="0.300003" d="M137.95 183.843C138.808 184.611 138.309 186.027 137.157 186.033C129.958 186.066 110.533 186.114 103 185.685C93.6707 185.152 100.791 175 108.293 178.876C115.206 182.449 129.749 176.501 137.95 183.843Z" fill="black"/>
</g>
</g>
<path d="M219.143 173.848C219.143 173.848 214.785 162.237 203.847 164.08C192.797 165.942 201.268 175.08 206.527 175.898C206.527 175.898 207.326 172.71 219.143 173.848Z" fill="white"/>
<path d="M219.143 173.848C219.143 173.848 214.785 162.237 203.847 164.08C192.797 165.942 201.268 175.08 206.527 175.898C206.527 175.898 207.326 172.71 219.143 173.848Z" stroke="#1A2E35" stroke-width="1.33333" stroke-miterlimit="10" stroke-linecap="round" stroke-linejoin="round"/>
<path d="M228.406 180.436C229.85 181.879 233.312 182.003 230.983 178.876C228.406 175.416 225.502 174.256 223.52 173.371C218.33 171.055 216.308 171.519 211.613 170.49C206.919 169.462 206.041 171.371 204.416 172.261C200.548 174.382 199.618 174.75 198.64 176.882C197.664 179.015 196.598 181.79 199.618 181.79C202.372 181.79 202.55 177.237 205.216 177.415C207.881 177.592 209.214 181.79 211.08 181.79H211.791C213.391 181.79 213.477 180.459 212.498 178.368C211.519 176.276 210.458 174.394 210.458 174.394C210.458 174.394 212.776 175.449 214.057 178.17C215.336 180.891 215.572 182.037 217.924 182.037C220.276 182.037 220.114 180.29 217.774 176.431C217.774 176.431 219.882 177.589 221.034 179.767C222.187 181.947 222.787 181.79 224.298 181.79C226.274 181.79 226.14 178.525 222.63 176.393C222.63 176.393 223.409 175.438 228.406 180.436Z" fill="white"/>
<path d="M228.406 180.436C229.85 181.879 233.312 182.003 230.983 178.876C228.406 175.416 225.502 174.256 223.52 173.371C218.33 171.055 216.308 171.519 211.613 170.49C206.919 169.462 206.041 171.371 204.416 172.261C200.548 174.382 199.618 174.75 198.64 176.882C197.664 179.015 196.598 181.79 199.618 181.79C202.372 181.79 202.55 177.237 205.216 177.415C207.881 177.592 209.214 181.79 211.08 181.79H211.791C213.391 181.79 213.477 180.459 212.498 178.368C211.519 176.276 210.458 174.394 210.458 174.394C210.458 174.394 212.776 175.449 214.057 178.17C215.336 180.891 215.572 182.037 217.924 182.037C220.276 182.037 220.114 180.29 217.774 176.431C217.774 176.431 219.882 177.589 221.034 179.767C222.187 181.947 222.787 181.79 224.298 181.79C226.274 181.79 226.14 178.525 222.63 176.393C222.63 176.393 223.409 175.438 228.406 180.436Z" stroke="#1A2E35" stroke-width="1.33333" stroke-miterlimit="10" stroke-linecap="round" stroke-linejoin="round"/>
<path d="M214.698 172.639C214.698 172.639 216.078 172.573 216.944 174.905L214.698 172.639Z" fill="white"/>
<path d="M214.698 172.639C214.698 172.639 216.078 172.573 216.944 174.905" stroke="#1A2E35" stroke-miterlimit="10" stroke-linecap="round" stroke-linejoin="round"/>
<path d="M39.4995 72.2537C32.6981 77.5997 26.1419 83.4064 19.8726 89.6757" stroke="#1A2E35" stroke-miterlimit="10" stroke-linecap="round" stroke-linejoin="round"/>
<path d="M46.939 66.6593C45.635 67.5965 44.3395 68.5497 43.0526 69.5189" stroke="#1A2E35" stroke-miterlimit="10" stroke-linecap="round" stroke-linejoin="round"/>
<path d="M54.3691 61.5478C53.0321 62.4274 51.7025 63.3231 50.3815 64.2347" stroke="#1A2E35" stroke-miterlimit="10" stroke-linecap="round" stroke-linejoin="round"/>
<path d="M108.915 35.7446C91.4781 41.1791 74.5881 48.8548 58.6983 58.7739" stroke="#1A2E35" stroke-miterlimit="10" stroke-linecap="round" stroke-linejoin="round"/>
<path d="M120.563 32.4673C118.404 33.01 116.251 33.5869 114.105 34.1978" stroke="#1A2E35" stroke-miterlimit="10" stroke-linecap="round" stroke-linejoin="round"/>
<path d="M132.541 29.8101C130.197 30.2611 127.86 30.7516 125.53 31.2794" stroke="#1A2E35" stroke-miterlimit="10" stroke-linecap="round" stroke-linejoin="round"/>
<path d="M143.216 28.0281C141.195 28.3149 139.177 28.6284 137.162 28.9717" stroke="#1A2E35" stroke-miterlimit="10" stroke-linecap="round" stroke-linejoin="round"/>
<path d="M207.523 28.4575C187.758 25.3889 167.654 25.0456 147.814 27.4265" stroke="#1A2E35" stroke-miterlimit="10" stroke-linecap="round" stroke-linejoin="round"/>
<path d="M216.32 30.0081C214.506 29.6498 212.688 29.315 210.866 29.0037" stroke="#1A2E35" stroke-miterlimit="10" stroke-linecap="round" stroke-linejoin="round"/>
<path d="M224.854 31.8713C223.039 31.4363 221.219 31.0258 219.394 30.6377" stroke="#1A2E35" stroke-miterlimit="10" stroke-linecap="round" stroke-linejoin="round"/>
<path d="M235.352 34.6629C233.5 34.1202 231.641 33.6031 229.777 33.1105" stroke="#1A2E35" stroke-miterlimit="10" stroke-linecap="round" stroke-linejoin="round"/>
<path d="M298.801 65.1645C280.848 52.5778 261.421 43.0149 241.228 36.4747" stroke="#1A2E35" stroke-miterlimit="10" stroke-linecap="round" stroke-linejoin="round"/>
<path d="M307.374 71.4936C305.706 70.1981 304.022 68.9293 302.327 67.6893" stroke="#1A2E35" stroke-miterlimit="10" stroke-linecap="round" stroke-linejoin="round"/>
<path d="M315.969 78.5281C314.142 76.9533 312.293 75.4137 310.426 73.9082" stroke="#1A2E35" stroke-miterlimit="10" stroke-linecap="round" stroke-linejoin="round"/>
<path d="M327.973 89.6757C325.472 87.1743 322.925 84.7465 320.335 82.3923" stroke="#1A2E35" stroke-miterlimit="10" stroke-linecap="round" stroke-linejoin="round"/>
<path d="M244.594 50.7268C244.594 65.3756 256.469 77.2512 271.118 77.2512C285.768 77.2512 297.644 65.3756 297.644 50.7268C297.644 36.077 285.768 24.2025 271.118 24.2025C256.469 24.2025 244.594 36.077 244.594 50.7268Z" fill="#38BFF2"/>
<g opacity="0.300003">
<g opacity="0.300003">
<path opacity="0.300003" d="M245.001 50.093C245.001 64.7418 256.876 76.6173 271.525 76.6173C286.175 76.6173 298.05 64.7418 298.05 50.093C298.05 35.4432 286.175 23.5687 271.525 23.5687C256.876 23.5687 245.001 35.4432 245.001 50.093Z" fill="white"/>
</g>
</g>
<path d="M244.594 50.7269C244.594 65.3757 256.47 77.2512 271.119 77.2512C285.769 77.2512 297.644 65.3757 297.644 50.7269C297.644 36.0771 285.769 24.2026 271.119 24.2026C256.47 24.2026 244.594 36.0771 244.594 50.7269Z" stroke="#1A2E35" stroke-miterlimit="10" stroke-linecap="round" stroke-linejoin="round"/>
<path d="M322.516 125.397H337.819C344.86 125.397 350.569 119.689 350.569 112.647V97.3438C350.569 90.3025 344.86 84.5939 337.819 84.5939H322.516C315.474 84.5939 309.766 90.3025 309.766 97.3438V112.647C309.766 119.689 315.474 125.397 322.516 125.397Z" fill="#38BFF2"/>
<path d="M322.516 125.397H337.819C344.86 125.397 350.569 119.689 350.569 112.647V97.3438C350.569 90.3025 344.86 84.5939 337.819 84.5939H322.516C315.474 84.5939 309.766 90.3025 309.766 97.3438V112.647C309.766 119.689 315.474 125.397 322.516 125.397Z" stroke="#1A2E35" stroke-miterlimit="10" stroke-linecap="round" stroke-linejoin="round"/>
<path d="M344.953 105.982V104.01L336.795 100.491V102.624L342.421 104.996L336.795 107.368V109.501L344.953 105.982Z" fill="white"/>
<path d="M344.953 105.982V104.01L336.795 100.491V102.624L342.421 104.996L336.795 107.368V109.501L344.953 105.982Z" stroke="#1A2E35" stroke-miterlimit="10" stroke-linecap="round" stroke-linejoin="round"/>
<path d="M327.756 95.6663H325.224L332.581 114.325H335.112L327.756 95.6663Z" fill="white"/>
<path d="M327.756 95.6663H325.224L332.581 114.325H335.112L327.756 95.6663Z" stroke="#1A2E35" stroke-miterlimit="10" stroke-linecap="round" stroke-linejoin="round"/>
<path d="M323.538 107.368L317.914 104.996L323.538 102.623V100.491L315.382 104.01V105.982L323.538 109.501V107.368Z" fill="white"/>
<path d="M323.538 107.368L317.914 104.996L323.538 102.623V100.491L315.382 104.01V105.982L323.538 109.501V107.368Z" stroke="#1A2E35" stroke-miterlimit="10" stroke-linecap="round" stroke-linejoin="round"/>
<path d="M60.2941 44.7253C60.2941 57.2288 70.4306 67.3654 82.9331 67.3654C95.4377 67.3654 105.574 57.2288 105.574 44.7253C105.574 32.2207 95.4377 22.0852 82.9331 22.0852C70.4306 22.0852 60.2941 32.2207 60.2941 44.7253Z" fill="#38BFF2"/>
<g opacity="0.199997">
<g opacity="0.199997">
<path opacity="0.199997" d="M60.1466 45.1644C60.1466 57.6679 70.2831 67.8044 82.7856 67.8044C95.2902 67.8044 105.427 57.6679 105.427 45.1644C105.427 32.6598 95.2902 22.5243 82.7856 22.5243C70.2831 22.5243 60.1466 32.6598 60.1466 45.1644Z" fill="black"/>
</g>
</g>
<path d="M60.2936 44.7253C60.2936 57.2289 70.4301 67.3654 82.9326 67.3654C95.4372 67.3654 105.574 57.2289 105.574 44.7253C105.574 32.2207 95.4372 22.0853 82.9326 22.0853C70.4301 22.0853 60.2936 32.2207 60.2936 44.7253Z" stroke="#1A2E35" stroke-miterlimit="10" stroke-linecap="round" stroke-linejoin="round"/>
<path d="M169.717 49.9576H190.174C198.182 49.9576 204.674 43.4654 204.674 35.457V15.0006C204.674 6.9922 198.182 0.499989 190.174 0.499989H169.717C161.708 0.499989 155.216 6.9922 155.216 15.0006V35.457C155.216 43.4654 161.708 49.9576 169.717 49.9576Z" fill="#38BFF2"/>
<path d="M169.717 49.9576H190.174C198.182 49.9576 204.674 43.4654 204.674 35.457V15.0006C204.674 6.99219 198.182 0.49999 190.174 0.49999H169.717C161.708 0.49999 155.216 6.99219 155.216 15.0006V35.457C155.216 43.4654 161.708 49.9576 169.717 49.9576Z" stroke="#1A2E35" stroke-miterlimit="10" stroke-linecap="round" stroke-linejoin="round"/>
<path d="M0.499332 92.6078C0.499332 105.079 10.6081 115.189 23.0808 115.189C35.5523 115.189 45.6611 105.079 45.6611 92.6078C45.6611 80.1363 35.5523 70.0264 23.0808 70.0264C10.6081 70.0264 0.499332 80.1363 0.499332 92.6078Z" fill="#38BFF2"/>
<g opacity="0.300003">
<g opacity="0.300003">
<path opacity="0.300003" d="M1.09259 93.064C1.09259 105.536 11.2014 115.645 23.674 115.645C36.1456 115.645 46.2544 105.536 46.2544 93.064C46.2544 80.5925 36.1456 70.4826 23.674 70.4826C11.2014 70.4826 1.09259 80.5925 1.09259 93.064Z" fill="white"/>
</g>
</g>
<path d="M0.499821 92.6077C0.499821 105.079 10.6086 115.189 23.0813 115.189C35.5528 115.189 45.6616 105.079 45.6616 92.6077C45.6616 80.1361 35.5528 70.0262 23.0813 70.0262C10.6086 70.0262 0.499821 80.1361 0.499821 92.6077Z" stroke="#1A2E35" stroke-miterlimit="10" stroke-linecap="round" stroke-linejoin="round"/>
<path d="M290.03 352.637H293.981L295.047 195.631H290.03V352.637Z" fill="#868686"/>
<path d="M290.03 352.637H293.981L295.047 195.631H290.03V352.637Z" stroke="#1A2E35" stroke-width="1.33333" stroke-miterlimit="10" stroke-linecap="round" stroke-linejoin="round"/>
<path d="M286.078 352.637H290.03V195.631H285.012L286.078 352.637Z" fill="#9A9A9A"/>
<path d="M286.078 352.637H290.03V195.631H285.012L286.078 352.637Z" stroke="#1A2E35" stroke-width="1.33333" stroke-miterlimit="10" stroke-linecap="round" stroke-linejoin="round"/>
<path d="M64.2495 195.631H335.289V186.018H64.2495V195.631Z" fill="#1A2E35" stroke="#1A2E35" stroke-width="1.33333" stroke-miterlimit="10" stroke-linecap="round" stroke-linejoin="round"/>
<path d="M7.6044 195.631H68.2925V186.018H7.6044V195.631Z" fill="#868686" stroke="#1A2E35" stroke-width="1.33333" stroke-miterlimit="10" stroke-linecap="round" stroke-linejoin="round"/>
<path d="M51.9494 211.479H321.407V195.63H51.9494V211.479Z" fill="#38BFF2" stroke="#1A2E35" stroke-width="1.33333" stroke-miterlimit="10"/>
<path d="M51.9492 211.479H20.5725V195.63H51.9492V211.479Z" fill="#38BFF2"/>
<g opacity="0.300003">
<path opacity="0.300003" d="M51.9487 211.479H20.5721V195.631H51.9487V211.479Z" fill="black"/>
</g>
<path d="M51.9492 211.479H20.5725V195.63H51.9492V211.479Z" stroke="#1A2E35" stroke-width="1.33333" stroke-miterlimit="10"/>
<path d="M51.9483 352.637H55.8986L56.9648 195.631H51.9483V352.637Z" fill="#868686"/>
<path d="M51.9483 352.637H55.8986L56.9648 195.631H51.9483V352.637Z" stroke="#1A2E35" stroke-width="1.33333" stroke-miterlimit="10" stroke-linecap="round" stroke-linejoin="round"/>
<path d="M47.9973 352.637H51.9487V195.631H46.9311L47.9973 352.637Z" fill="#9A9A9A"/>
<path d="M47.9973 352.637H51.9487V195.631H46.9311L47.9973 352.637Z" stroke="#1A2E35" stroke-width="1.33333" stroke-miterlimit="10" stroke-linecap="round" stroke-linejoin="round"/>
<path d="M321.407 352.637H325.358L326.424 195.631H321.407V352.637Z" fill="#868686"/>
<path d="M321.407 352.637H325.358L326.424 195.631H321.407V352.637Z" stroke="#1A2E35" stroke-width="1.33333" stroke-miterlimit="10" stroke-linecap="round" stroke-linejoin="round"/>
<path d="M317.454 352.637H321.406V195.631H316.388L317.454 352.637Z" fill="#9A9A9A"/>
<path d="M317.454 352.637H321.406V195.631H316.388L317.454 352.637Z" stroke="#1A2E35" stroke-width="1.33333" stroke-miterlimit="10" stroke-linecap="round" stroke-linejoin="round"/>
<path d="M20.5723 352.637H24.5226L25.5889 195.631H20.5723V352.637Z" fill="#868686"/>
<path d="M20.5723 352.637H24.5226L25.5889 195.631H20.5723V352.637Z" stroke="#1A2E35" stroke-width="1.33333" stroke-miterlimit="10" stroke-linecap="round" stroke-linejoin="round"/>
<path d="M16.6209 352.637H20.5723V195.631H15.5546L16.6209 352.637Z" fill="#9A9A9A"/>
<path d="M16.6209 352.637H20.5723V195.631H15.5546L16.6209 352.637Z" stroke="#1A2E35" stroke-width="1.33333" stroke-miterlimit="10" stroke-linecap="round" stroke-linejoin="round"/>
<path d="M160.137 184.952H191.903C192.552 184.952 193.079 184.425 193.079 183.775V181.153L158.96 182.219V183.775C158.96 184.425 159.488 184.952 160.137 184.952Z" fill="#868686"/>
<path d="M160.137 184.952H191.903C192.552 184.952 193.079 184.425 193.079 183.775V181.153L158.96 182.219V183.775C158.96 184.425 159.488 184.952 160.137 184.952Z" stroke="#1A2E35" stroke-width="1.33333" stroke-miterlimit="10" stroke-linecap="round" stroke-linejoin="round"/>
<path d="M196.623 184.952H260.483C261.506 184.952 262.504 184.194 262.815 183.18L276.523 138.676C276.899 137.455 276.14 136.372 274.91 136.372H211.048C210.026 136.372 209.028 137.13 208.716 138.144L195.008 182.648C194.632 183.867 195.391 184.952 196.623 184.952Z" fill="#9A9A9A"/>
<path d="M196.623 184.952H260.483C261.506 184.952 262.504 184.194 262.815 183.18L276.523 138.676C276.899 137.455 276.14 136.372 274.91 136.372H211.048C210.026 136.372 209.028 137.13 208.716 138.144L195.008 182.648C194.632 183.867 195.391 184.952 196.623 184.952Z" stroke="#1A2E35" stroke-width="1.33333" stroke-miterlimit="10" stroke-linecap="round" stroke-linejoin="round"/>
<path d="M192.139 182.648L205.847 138.144C206.159 137.13 207.157 136.372 208.18 136.372H211.049C210.026 136.372 209.028 137.13 208.716 138.144L195.009 182.648C194.632 183.868 195.391 184.952 196.623 184.952H193.754C192.522 184.952 191.763 183.868 192.139 182.648Z" fill="#868686"/>
<path d="M192.139 182.648L205.847 138.144C206.159 137.13 207.157 136.372 208.18 136.372H211.049C210.026 136.372 209.028 137.13 208.716 138.144L195.009 182.648C194.632 183.868 195.391 184.952 196.623 184.952H193.754C192.522 184.952 191.763 183.868 192.139 182.648Z" stroke="#1A2E35" stroke-width="1.33333" stroke-miterlimit="10" stroke-linecap="round" stroke-linejoin="round"/>
<path d="M231.815 160.661C231.548 162.843 233.099 164.612 235.281 164.612C237.462 164.612 239.448 162.843 239.716 160.661C239.984 158.48 238.432 156.711 236.251 156.711C234.069 156.711 232.083 158.48 231.815 160.661Z" fill="white"/>
<path d="M231.815 160.661C231.548 162.843 233.099 164.612 235.281 164.612C237.462 164.612 239.448 162.843 239.716 160.661C239.984 158.48 238.432 156.711 236.251 156.711C234.069 156.711 232.083 158.48 231.815 160.661Z" stroke="#1A2E35" stroke-width="1.33333" stroke-miterlimit="10" stroke-linecap="round" stroke-linejoin="round"/>
<path d="M86.8213 52.5355H87.2339C88.136 52.5355 88.5996 52.1236 88.5996 50.7069V46.8404C88.5996 45.9124 88.9346 44.9334 90.1716 44.5726V44.5216C88.9346 44.1607 88.5996 43.1802 88.5996 42.253V38.3872C88.5996 36.9698 88.136 36.5579 87.2339 36.5579H86.8213V34.2376H88.2647C89.8618 34.2376 91.1255 35.1397 91.1255 37.0992V41.8404C91.1255 43.0264 91.4597 43.3873 92.7485 43.3873V45.7061C91.4597 45.7061 91.1255 46.0669 91.1255 47.2522V51.9949C91.1255 53.9529 89.8618 54.855 88.2647 54.855H86.8213V52.5355Z" fill="white"/>
<path d="M86.5425 52.8068H86.9807C87.9387 52.8068 88.4311 52.3793 88.4311 50.9086V46.8949C88.4311 45.9316 88.7868 44.9153 90.1006 44.5407V44.4878C88.7868 44.1132 88.4311 43.0953 88.4311 42.1328V38.1199C88.4311 36.6484 87.9387 36.2209 86.9807 36.2209H86.5425V33.8122H88.0754C89.7716 33.8122 91.1137 34.7486 91.1137 36.7827V41.7045C91.1137 42.9357 91.4686 43.3103 92.8374 43.3103V45.7174C91.4686 45.7174 91.1137 46.092 91.1137 47.3224V52.2457C91.1137 54.2783 89.7716 55.2147 88.0754 55.2147H86.5425V52.8068Z" stroke="#1A2E35" stroke-miterlimit="10" stroke-linecap="round" stroke-linejoin="round"/>
<path d="M79.9692 52.5355H79.5566C78.6545 52.5355 78.1909 52.1236 78.1909 50.7069V46.8404C78.1909 45.9124 77.856 44.9334 76.6189 44.5726V44.5216C77.856 44.1607 78.1909 43.1802 78.1909 42.253V38.3872C78.1909 36.9698 78.6545 36.5579 79.5566 36.5579H79.9692V34.2376H78.5259C76.9287 34.2376 75.665 35.1397 75.665 37.0992V41.8404C75.665 43.0264 75.3308 43.3873 74.042 43.3873V45.7061C75.3308 45.7061 75.665 46.0669 75.665 47.2522V51.9949C75.665 53.9529 76.9287 54.855 78.5259 54.855H79.9692V52.5355Z" fill="white"/>
<path d="M80.2476 52.8068H79.8094C78.8513 52.8068 78.3589 52.3793 78.3589 50.9086V46.8949C78.3589 45.9316 78.0032 44.9153 76.6894 44.5407V44.4878C78.0032 44.1132 78.3589 43.0953 78.3589 42.1328V38.1199C78.3589 36.6484 78.8513 36.2209 79.8094 36.2209H80.2476V33.8122H78.7147C77.0185 33.8122 75.6764 34.7486 75.6764 36.7827V41.7045C75.6764 42.9357 75.3215 43.3103 73.9527 43.3103V45.7174C75.3215 45.7174 75.6764 46.092 75.6764 47.3224V52.2457C75.6764 54.2783 77.0185 55.2147 78.7147 55.2147H80.2476V52.8068Z" stroke="#1A2E35" stroke-miterlimit="10" stroke-linecap="round" stroke-linejoin="round"/>
<mask id="path-192-outside-1_21_1460" maskUnits="userSpaceOnUse" x="172.521" y="18.7898" width="20" height="20" fill="black">
<rect fill="white" x="172.521" y="18.7898" width="20" height="20"/>
<path fill-rule="evenodd" clip-rule="evenodd" d="M184.881 32.4211V35.1619C184.881 37.0288 181.656 37.5055 179.876 37.5055H176.699C175.203 37.3995 173.521 36.9096 173.521 35.1619V31.1634C173.521 28.4578 175.714 26.2643 178.42 26.2643H179.36C182.936 26.2643 185.835 23.3656 185.835 19.7898H188.695C189.476 19.9751 191.038 21.3468 191.038 25.3507C191.038 29.7374 186.448 31.2295 182.061 31.2295H179.161V32.2225H184.881V32.4211ZM182.896 35.5195C183.247 35.5195 183.531 35.2349 183.531 34.8839C183.531 34.5329 183.247 34.2484 182.896 34.2484C182.545 34.2484 182.26 34.5329 182.26 34.8839C182.26 35.2349 182.545 35.5195 182.896 35.5195Z"/>
</mask>
<path fill-rule="evenodd" clip-rule="evenodd" d="M184.881 32.4211V35.1619C184.881 37.0288 181.656 37.5055 179.876 37.5055H176.699C175.203 37.3995 173.521 36.9096 173.521 35.1619V31.1634C173.521 28.4578 175.714 26.2643 178.42 26.2643H179.36C182.936 26.2643 185.835 23.3656 185.835 19.7898H188.695C189.476 19.9751 191.038 21.3468 191.038 25.3507C191.038 29.7374 186.448 31.2295 182.061 31.2295H179.161V32.2225H184.881V32.4211ZM182.896 35.5195C183.247 35.5195 183.531 35.2349 183.531 34.8839C183.531 34.5329 183.247 34.2484 182.896 34.2484C182.545 34.2484 182.26 34.5329 182.26 34.8839C182.26 35.2349 182.545 35.5195 182.896 35.5195Z" fill="white"/>
<path d="M176.699 37.5055L176.628 38.503L176.663 38.5055H176.699V37.5055ZM185.835 19.7898V18.7898H184.835V19.7898H185.835ZM188.695 19.7898L188.925 18.8168L188.812 18.7898H188.695V19.7898ZM179.161 31.2295V30.2295H178.161V31.2295H179.161ZM179.161 32.2225H178.161V33.2225H179.161V32.2225ZM184.881 32.2225H185.881V31.2225H184.881V32.2225ZM185.881 35.1619V32.4211H183.881V35.1619H185.881ZM179.876 38.5055C180.829 38.5055 182.2 38.3808 183.37 37.9798C184.45 37.6098 185.881 36.8038 185.881 35.1619H183.881C183.881 35.3869 183.7 35.7527 182.722 36.0878C181.835 36.3918 180.704 36.5055 179.876 36.5055V38.5055ZM176.699 38.5055H179.876V36.5055H176.699V38.5055ZM172.521 35.1619C172.521 36.4385 173.173 37.3049 174.045 37.8132C174.85 38.2827 175.827 38.4463 176.628 38.503L176.769 36.5079C176.074 36.4587 175.462 36.3244 175.053 36.0855C174.71 35.8855 174.521 35.633 174.521 35.1619H172.521ZM172.521 31.1634V35.1619H174.521V31.1634H172.521ZM178.42 25.2643C175.162 25.2643 172.521 27.9055 172.521 31.1634H174.521C174.521 29.01 176.267 27.2643 178.42 27.2643V25.2643ZM179.36 25.2643H178.42V27.2643H179.36V25.2643ZM184.835 19.7898C184.835 22.8133 182.384 25.2643 179.36 25.2643V27.2643C183.488 27.2643 186.835 23.9179 186.835 19.7898H184.835ZM188.695 18.7898H185.835V20.7898H188.695V18.7898ZM192.038 25.3507C192.038 21.1733 190.389 19.164 188.925 18.8168L188.464 20.7627C188.464 20.7627 188.465 20.7632 188.469 20.7644C188.473 20.7656 188.479 20.7675 188.486 20.7704C188.501 20.7761 188.521 20.7851 188.547 20.7988C188.598 20.8262 188.665 20.87 188.744 20.9367C188.901 21.0699 189.096 21.2886 189.288 21.6292C189.672 22.3099 190.038 23.4741 190.038 25.3507H192.038ZM182.061 32.2295C184.342 32.2295 186.773 31.8456 188.672 30.8138C190.625 29.7531 192.038 27.9796 192.038 25.3507H190.038C190.038 27.1086 189.157 28.2745 187.717 29.0564C186.225 29.8673 184.167 30.2295 182.061 30.2295V32.2295ZM179.161 32.2295H182.061V30.2295H179.161V32.2295ZM180.161 32.2225V31.2295H178.161V32.2225H180.161ZM184.881 31.2225H179.161V33.2225H184.881V31.2225ZM185.881 32.4211V32.2225H183.881V32.4211H185.881ZM182.531 34.8839C182.531 34.6826 182.694 34.5195 182.896 34.5195V36.5195C183.799 36.5195 184.531 35.7872 184.531 34.8839H182.531ZM182.896 35.2484C182.694 35.2484 182.531 35.0852 182.531 34.8839H184.531C184.531 33.9806 183.799 33.2484 182.896 33.2484V35.2484ZM183.26 34.8839C183.26 35.0852 183.097 35.2484 182.896 35.2484V33.2484C181.992 33.2484 181.26 33.9806 181.26 34.8839H183.26ZM182.896 34.5195C183.097 34.5195 183.26 34.6826 183.26 34.8839H181.26C181.26 35.7872 181.992 36.5195 182.896 36.5195V34.5195Z" fill="#1A2E35" mask="url(#path-192-outside-1_21_1460)"/>
<mask id="path-194-outside-2_21_1460" maskUnits="userSpaceOnUse" x="165.723" y="12.4679" width="20" height="20" fill="black">
<rect fill="white" x="165.723" y="12.4679" width="20" height="20"/>
<path fill-rule="evenodd" clip-rule="evenodd" d="M173.362 18.8365L173.362 16.0957C173.362 14.2288 176.588 13.7522 178.367 13.7522L181.545 13.7522C183.041 13.8581 184.723 14.348 184.723 16.0957L184.723 20.0942C184.723 22.7999 182.529 24.9933 179.824 24.9933L178.884 24.9933C175.308 24.9933 172.409 27.8921 172.409 31.4679L169.549 31.4679C168.768 31.2825 167.206 29.9108 167.206 25.9069C167.206 21.5202 171.796 20.0281 176.182 20.0281L179.082 20.0281L179.082 19.0351L173.362 19.0351L173.362 18.8365ZM175.348 15.7382C174.997 15.7382 174.713 16.0228 174.713 16.3738C174.713 16.7248 174.997 17.0093 175.348 17.0093C175.699 17.0093 175.984 16.7248 175.984 16.3738C175.984 16.0228 175.699 15.7382 175.348 15.7382Z"/>
</mask>
<path fill-rule="evenodd" clip-rule="evenodd" d="M173.362 18.8365L173.362 16.0957C173.362 14.2288 176.588 13.7522 178.367 13.7522L181.545 13.7522C183.041 13.8581 184.723 14.348 184.723 16.0957L184.723 20.0942C184.723 22.7999 182.529 24.9933 179.824 24.9933L178.884 24.9933C175.308 24.9933 172.409 27.8921 172.409 31.4679L169.549 31.4679C168.768 31.2825 167.206 29.9108 167.206 25.9069C167.206 21.5202 171.796 20.0281 176.182 20.0281L179.082 20.0281L179.082 19.0351L173.362 19.0351L173.362 18.8365ZM175.348 15.7382C174.997 15.7382 174.713 16.0228 174.713 16.3738C174.713 16.7248 174.997 17.0093 175.348 17.0093C175.699 17.0093 175.984 16.7248 175.984 16.3738C175.984 16.0228 175.699 15.7382 175.348 15.7382Z" fill="white"/>
<path d="M173.362 16.0957L174.362 16.0957L173.362 16.0957ZM173.362 18.8365L172.362 18.8365L173.362 18.8365ZM181.545 13.7522L181.616 12.7547L181.58 12.7522L181.545 12.7522L181.545 13.7522ZM172.409 31.4679L172.409 32.4679L173.409 32.4679L173.409 31.4679L172.409 31.4679ZM169.549 31.4679L169.318 32.4408L169.432 32.4679L169.549 32.4679L169.549 31.4679ZM179.082 20.0281L179.082 21.0281L180.082 21.0281L180.082 20.0281L179.082 20.0281ZM179.082 19.0351L180.082 19.0351L180.082 18.0351L179.082 18.0351L179.082 19.0351ZM173.362 19.0351L172.362 19.0351L172.362 20.0351L173.362 20.0351L173.362 19.0351ZM172.362 16.0957L172.362 18.8365L174.362 18.8365L174.362 16.0957L172.362 16.0957ZM178.367 12.7522C177.415 12.7522 176.044 12.8768 174.873 13.2779C173.794 13.6479 172.362 14.4539 172.362 16.0957L174.362 16.0957C174.362 15.8707 174.544 15.5049 175.522 15.1699C176.409 14.8658 177.54 14.7522 178.367 14.7522L178.367 12.7522ZM181.545 12.7522L178.367 12.7522L178.367 14.7522L181.545 14.7522L181.545 12.7522ZM185.723 16.0957C185.723 14.8191 185.07 13.9528 184.199 13.4444C183.394 12.975 182.417 12.8114 181.616 12.7547L181.474 14.7497C182.17 14.7989 182.781 14.9332 183.191 15.1721C183.534 15.3721 183.723 15.6246 183.723 16.0957L185.723 16.0957ZM185.723 20.0942L185.723 16.0957L183.723 16.0957L183.723 20.0942L185.723 20.0942ZM179.824 25.9933C183.082 25.9933 185.723 23.3521 185.723 20.0942L183.723 20.0942C183.723 22.2476 181.977 23.9933 179.824 23.9933L179.824 25.9933ZM178.884 25.9933L179.824 25.9933L179.824 23.9933L178.884 23.9933L178.884 25.9933ZM173.409 31.4679C173.409 28.4443 175.86 25.9933 178.884 25.9933L178.884 23.9933C174.756 23.9933 171.409 27.3398 171.409 31.4679L173.409 31.4679ZM169.549 32.4679L172.409 32.4679L172.409 30.4679L169.549 30.4679L169.549 32.4679ZM166.206 25.9069C166.206 30.0843 167.855 32.0936 169.318 32.4408L169.78 30.4949C169.78 30.4949 169.778 30.4945 169.774 30.4932C169.77 30.492 169.765 30.4901 169.758 30.4872C169.743 30.4815 169.723 30.4725 169.697 30.4588C169.646 30.4314 169.579 30.3876 169.5 30.3209C169.343 30.1878 169.147 29.969 168.956 29.6285C168.572 28.9477 168.206 27.7836 168.206 25.9069L166.206 25.9069ZM176.182 19.0281C173.902 19.0281 171.471 19.412 169.572 20.4438C167.619 21.5046 166.206 23.278 166.206 25.9069L168.206 25.9069C168.206 24.149 169.087 22.9831 170.526 22.2012C172.019 21.3903 174.076 21.0281 176.182 21.0281L176.182 19.0281ZM179.082 19.0281L176.182 19.0281L176.182 21.0281L179.082 21.0281L179.082 19.0281ZM178.082 19.0351L178.082 20.0281L180.082 20.0281L180.082 19.0351L178.082 19.0351ZM173.362 20.0351L179.082 20.0351L179.082 18.0351L173.362 18.0351L173.362 20.0351ZM172.362 18.8365L172.362 19.0351L174.362 19.0351L174.362 18.8365L172.362 18.8365ZM175.713 16.3738C175.713 16.5751 175.55 16.7382 175.348 16.7382L175.348 14.7382C174.445 14.7382 173.713 15.4705 173.713 16.3738L175.713 16.3738ZM175.348 16.0093C175.55 16.0093 175.713 16.1725 175.713 16.3738L173.713 16.3738C173.713 17.2771 174.445 18.0093 175.348 18.0093L175.348 16.0093ZM174.984 16.3738C174.984 16.1725 175.147 16.0093 175.348 16.0093L175.348 18.0093C176.252 18.0093 176.984 17.2771 176.984 16.3738L174.984 16.3738ZM175.348 16.7382C175.147 16.7382 174.984 16.5751 174.984 16.3738L176.984 16.3738C176.984 15.4705 176.252 14.7382 175.348 14.7382L175.348 16.7382Z" fill="#1A2E35" mask="url(#path-194-outside-2_21_1460)"/>
<rect x="14.2817" y="82.4122" width="18.6256" height="4.77692" rx="1.5" fill="white" stroke="#1A2E35"/>
<rect x="14.2817" y="89.9661" width="18.6256" height="6.0359" rx="1.5" fill="white" stroke="#1A2E35"/>
<rect x="14.2817" y="98.7789" width="18.6256" height="4.77692" rx="1.5" fill="white" stroke="#1A2E35"/>
<path d="M271.676 36.836C271.858 36.85 272.016 36.8872 272.123 36.9288C272.149 36.9507 272.188 36.9837 272.239 37.0294C272.346 37.125 272.496 37.2631 272.682 37.4395C273.054 37.7917 273.566 38.2873 274.172 38.88C275.384 40.0652 276.966 41.6345 278.542 43.212C280.119 44.7895 281.69 46.3742 282.879 47.5919C283.474 48.2009 283.973 48.7164 284.329 49.0929C284.507 49.2814 284.647 49.4336 284.745 49.5431C284.794 49.5979 284.83 49.6386 284.853 49.6671C284.854 49.6687 284.856 49.6705 284.857 49.672C284.991 49.9593 284.997 50.4131 284.86 50.7257C284.853 50.7351 284.838 50.7564 284.81 50.7911C284.757 50.8562 284.677 50.9478 284.563 51.0724C284.336 51.321 283.992 51.683 283.496 52.1915C282.504 53.2078 280.924 54.7956 278.51 57.2042C275.923 59.7859 274.339 61.3586 273.373 62.295C272.889 62.7638 272.564 63.0676 272.349 63.2579C272.241 63.3533 272.167 63.4144 272.118 63.4513C272.107 63.4591 272.098 63.4644 272.091 63.4688C271.942 63.5128 271.759 63.5349 271.574 63.5255C271.39 63.5161 271.237 63.4775 271.135 63.4317C271.109 63.4097 271.071 63.3763 271.02 63.3302C270.918 63.2373 270.774 63.1038 270.595 62.9337C270.237 62.5939 269.742 62.1161 269.155 61.544C267.98 60.4 266.441 58.8834 264.898 57.3536C263.355 55.8239 261.81 54.2814 260.623 53.0841C260.029 52.4852 259.526 51.9738 259.158 51.5938C258.974 51.4037 258.825 51.2476 258.716 51.131C258.662 51.0726 258.618 51.0261 258.586 50.9903L258.542 50.9376C258.285 50.5875 258.212 50.2422 258.299 49.8419L258.359 49.5655L262.598 45.3185L266.585 41.3214L267.792 42.5274C268.34 43.0749 268.719 43.4651 268.956 43.7257C269.029 43.8063 269.083 43.8712 269.125 43.921C269.118 43.9577 269.111 43.9925 269.107 44.0245C269.091 44.1513 269.081 44.2942 269.078 44.4347C269.07 44.697 269.081 45.026 269.14 45.2462C269.293 45.8141 269.738 46.4148 270.236 46.7374L270.364 46.8204V53.8399L270.238 53.9181C269.142 54.5995 268.758 56.0433 269.313 57.2179C269.769 58.1825 270.629 58.7271 271.697 58.7296C271.923 58.7301 272.119 58.7235 272.321 58.672C272.521 58.6208 272.7 58.5327 272.905 58.4229C274.58 57.5253 274.806 55.3504 273.367 54.1104L273.176 53.9464V47.9142L273.73 48.4679C274.407 49.1448 274.737 49.4784 274.894 49.6661C274.899 49.6718 274.903 49.6776 274.907 49.6827C274.889 49.7637 274.877 49.8472 274.869 49.9171C274.853 50.0513 274.843 50.2049 274.842 50.3497C274.841 50.5541 274.853 50.7369 274.901 50.9308C274.948 51.1202 275.024 51.2971 275.123 51.4972C276.089 53.461 278.838 53.4494 279.803 51.4884C279.991 51.1063 280.101 50.7298 280.101 50.3331C280.101 49.9363 279.992 49.5603 279.804 49.1788C279.557 48.6768 279.207 48.2804 278.75 48.0255C278.295 47.7711 277.768 47.6778 277.202 47.7198L276.883 47.7423L275.551 46.4044L274.248 45.0948L274.272 44.9854C274.456 44.1169 274.103 43.2735 273.54 42.7032C272.977 42.1332 272.138 41.7694 271.269 41.9474L271.18 41.9649L269.791 40.5724L268.563 39.3429L269.658 38.2579C270.249 37.6715 270.614 37.3195 270.858 37.1065C271.11 36.887 271.177 36.8673 271.177 36.8673C271.294 36.8355 271.475 36.8206 271.676 36.836Z" fill="white" stroke="#1A2E35"/>
</svg>
